%TF.GenerationSoftware,KiCad,Pcbnew,9.0.0*%
%TF.CreationDate,2025-03-25T01:37:38+02:00*%
%TF.ProjectId,shaun-proj,73686175-6e2d-4707-926f-6a2e6b696361,rev?*%
%TF.SameCoordinates,Original*%
%TF.FileFunction,Soldermask,Top*%
%TF.FilePolarity,Negative*%
%FSLAX46Y46*%
G04 Gerber Fmt 4.6, Leading zero omitted, Abs format (unit mm)*
G04 Created by KiCad (PCBNEW 9.0.0) date 2025-03-25 01:37:38*
%MOMM*%
%LPD*%
G01*
G04 APERTURE LIST*
G04 Aperture macros list*
%AMRoundRect*
0 Rectangle with rounded corners*
0 $1 Rounding radius*
0 $2 $3 $4 $5 $6 $7 $8 $9 X,Y pos of 4 corners*
0 Add a 4 corners polygon primitive as box body*
4,1,4,$2,$3,$4,$5,$6,$7,$8,$9,$2,$3,0*
0 Add four circle primitives for the rounded corners*
1,1,$1+$1,$2,$3*
1,1,$1+$1,$4,$5*
1,1,$1+$1,$6,$7*
1,1,$1+$1,$8,$9*
0 Add four rect primitives between the rounded corners*
20,1,$1+$1,$2,$3,$4,$5,0*
20,1,$1+$1,$4,$5,$6,$7,0*
20,1,$1+$1,$6,$7,$8,$9,0*
20,1,$1+$1,$8,$9,$2,$3,0*%
G04 Aperture macros list end*
%ADD10RoundRect,0.237500X-0.300000X-0.237500X0.300000X-0.237500X0.300000X0.237500X-0.300000X0.237500X0*%
%ADD11RoundRect,0.237500X-0.250000X-0.237500X0.250000X-0.237500X0.250000X0.237500X-0.250000X0.237500X0*%
%ADD12R,1.700000X1.700000*%
%ADD13O,1.700000X1.700000*%
%ADD14C,1.500000*%
%ADD15RoundRect,0.150000X-0.587500X-0.150000X0.587500X-0.150000X0.587500X0.150000X-0.587500X0.150000X0*%
%ADD16RoundRect,0.250000X-1.200000X-2.450000X1.200000X-2.450000X1.200000X2.450000X-1.200000X2.450000X0*%
%ADD17R,1.240000X0.600000*%
%ADD18R,1.240000X0.300000*%
%ADD19O,2.100000X1.000000*%
%ADD20O,1.800000X1.000000*%
%ADD21RoundRect,0.200000X-0.200000X-0.275000X0.200000X-0.275000X0.200000X0.275000X-0.200000X0.275000X0*%
%ADD22RoundRect,0.250000X-0.350000X-0.625000X0.350000X-0.625000X0.350000X0.625000X-0.350000X0.625000X0*%
%ADD23O,1.200000X1.750000*%
%ADD24RoundRect,0.250000X-1.500000X-0.550000X1.500000X-0.550000X1.500000X0.550000X-1.500000X0.550000X0*%
%ADD25RoundRect,0.150000X-0.825000X-0.150000X0.825000X-0.150000X0.825000X0.150000X-0.825000X0.150000X0*%
%ADD26R,2.410000X3.300000*%
%ADD27RoundRect,0.250000X-0.312500X-0.625000X0.312500X-0.625000X0.312500X0.625000X-0.312500X0.625000X0*%
%ADD28R,0.600000X1.550000*%
%ADD29R,3.100000X2.600000*%
%ADD30C,1.400000*%
%ADD31C,1.600000*%
%ADD32RoundRect,0.400000X-0.400000X-0.400000X0.400000X-0.400000X0.400000X0.400000X-0.400000X0.400000X0*%
%ADD33RoundRect,0.250000X-0.350000X-0.450000X0.350000X-0.450000X0.350000X0.450000X-0.350000X0.450000X0*%
%ADD34RoundRect,0.155000X-0.212500X-0.155000X0.212500X-0.155000X0.212500X0.155000X-0.212500X0.155000X0*%
%ADD35RoundRect,0.250000X-0.650000X1.000000X-0.650000X-1.000000X0.650000X-1.000000X0.650000X1.000000X0*%
%ADD36RoundRect,0.237500X-0.287500X-0.237500X0.287500X-0.237500X0.287500X0.237500X-0.287500X0.237500X0*%
%ADD37RoundRect,0.250000X-0.337500X-0.475000X0.337500X-0.475000X0.337500X0.475000X-0.337500X0.475000X0*%
%ADD38RoundRect,0.250000X-0.325000X-0.450000X0.325000X-0.450000X0.325000X0.450000X-0.325000X0.450000X0*%
%ADD39RoundRect,0.150000X-0.150000X0.687500X-0.150000X-0.687500X0.150000X-0.687500X0.150000X0.687500X0*%
%ADD40R,3.300000X2.100000*%
%ADD41RoundRect,0.250000X0.325000X0.450000X-0.325000X0.450000X-0.325000X-0.450000X0.325000X-0.450000X0*%
G04 APERTURE END LIST*
D10*
%TO.C,C7*%
X155397500Y-119610000D03*
X157122500Y-119610000D03*
%TD*%
D11*
%TO.C,R12*%
X145097500Y-122070000D03*
X146922500Y-122070000D03*
%TD*%
%TO.C,R15*%
X155917500Y-112890000D03*
X157742500Y-112890000D03*
%TD*%
D12*
%TO.C,J2*%
X184500000Y-73760000D03*
D13*
X187040000Y-73760000D03*
X184500000Y-76300000D03*
X187040000Y-76300000D03*
X184500000Y-78840000D03*
X187040000Y-78840000D03*
X184500000Y-81380000D03*
X187040000Y-81380000D03*
X184500000Y-83920000D03*
X187040000Y-83920000D03*
X184500000Y-86460000D03*
X187040000Y-86460000D03*
X184500000Y-89000000D03*
X187040000Y-89000000D03*
X184500000Y-91540000D03*
X187040000Y-91540000D03*
X184500000Y-94080000D03*
X187040000Y-94080000D03*
X184500000Y-96620000D03*
X187040000Y-96620000D03*
X184500000Y-99160000D03*
X187040000Y-99160000D03*
X184500000Y-101700000D03*
X187040000Y-101700000D03*
X184500000Y-104240000D03*
X187040000Y-104240000D03*
X184500000Y-106780000D03*
X187040000Y-106780000D03*
X184500000Y-109320000D03*
X187040000Y-109320000D03*
X184500000Y-111860000D03*
X187040000Y-111860000D03*
%TD*%
D14*
%TO.C,TP1*%
X145780000Y-98350000D03*
%TD*%
D15*
%TO.C,Q5*%
X198625000Y-119425000D03*
X198625000Y-121325000D03*
X200500000Y-120375000D03*
%TD*%
D16*
%TO.C,L3*%
X154550000Y-80000000D03*
X164450000Y-80000000D03*
%TD*%
D15*
%TO.C,Q3*%
X198625000Y-110175000D03*
X198625000Y-112075000D03*
X200500000Y-111125000D03*
%TD*%
D17*
%TO.C,J1*%
X128725000Y-73800000D03*
X128725000Y-74600000D03*
D18*
X128725000Y-75750000D03*
X128725000Y-76750000D03*
X128725000Y-77250000D03*
X128725000Y-78250000D03*
D17*
X128725000Y-79400000D03*
X128725000Y-80200000D03*
X128725000Y-80200000D03*
X128725000Y-79400000D03*
D18*
X128725000Y-78750000D03*
X128725000Y-77750000D03*
X128725000Y-76250000D03*
X128725000Y-75250000D03*
D17*
X128725000Y-74600000D03*
X128725000Y-73800000D03*
D19*
X128125000Y-72680000D03*
D20*
X123925000Y-72680000D03*
D19*
X128125000Y-81320000D03*
D20*
X123925000Y-81320000D03*
%TD*%
D21*
%TO.C,R7*%
X123000000Y-115000000D03*
X124650000Y-115000000D03*
%TD*%
D11*
%TO.C,R11*%
X155917500Y-105360000D03*
X157742500Y-105360000D03*
%TD*%
%TO.C,R13*%
X155917500Y-107870000D03*
X157742500Y-107870000D03*
%TD*%
%TO.C,R17*%
X155917500Y-115400000D03*
X157742500Y-115400000D03*
%TD*%
D10*
%TO.C,C5*%
X155967500Y-100340000D03*
X157692500Y-100340000D03*
%TD*%
D22*
%TO.C,J3*%
X170430000Y-117180000D03*
D23*
X172430000Y-117180000D03*
%TD*%
D24*
%TO.C,C12*%
X169800000Y-75500000D03*
X175200000Y-75500000D03*
%TD*%
D15*
%TO.C,Q1*%
X141625000Y-81550000D03*
X141625000Y-83450000D03*
X143500000Y-82500000D03*
%TD*%
D21*
%TO.C,R5*%
X203187500Y-109980000D03*
X204837500Y-109980000D03*
%TD*%
D25*
%TO.C,U5*%
X124725000Y-108295000D03*
X124725000Y-109565000D03*
X124725000Y-110835000D03*
X124725000Y-112105000D03*
X129675000Y-112105000D03*
X129675000Y-110835000D03*
X129675000Y-109565000D03*
X129675000Y-108295000D03*
D26*
X127200000Y-110200000D03*
%TD*%
D21*
%TO.C,R10*%
X203187500Y-115000000D03*
X204837500Y-115000000D03*
%TD*%
D11*
%TO.C,R14*%
X155917500Y-110380000D03*
X157742500Y-110380000D03*
%TD*%
D27*
%TO.C,R9*%
X171537500Y-102500000D03*
X174462500Y-102500000D03*
%TD*%
D28*
%TO.C,U2*%
X149605000Y-72900000D03*
X148335000Y-72900000D03*
X147065000Y-72900000D03*
X145795000Y-72900000D03*
X145795000Y-78300000D03*
X147065000Y-78300000D03*
X148335000Y-78300000D03*
X149605000Y-78300000D03*
D29*
X147700000Y-75600000D03*
%TD*%
D14*
%TO.C,TP10*%
X149330000Y-109000000D03*
%TD*%
D21*
%TO.C,R4*%
X145185000Y-117050000D03*
X146835000Y-117050000D03*
%TD*%
D14*
%TO.C,TP14*%
X152880000Y-105450000D03*
%TD*%
D30*
%TO.C,JP2*%
X173010000Y-92370000D03*
X175550000Y-92370000D03*
%TD*%
D15*
%TO.C,Q2*%
X118500000Y-114000000D03*
X118500000Y-115900000D03*
X120375000Y-114950000D03*
%TD*%
D31*
%TO.C,SW2*%
X122580000Y-100650000D03*
X122580000Y-87350000D03*
D32*
X131780000Y-98800000D03*
D31*
X131780000Y-94000000D03*
X131780000Y-89200000D03*
%TD*%
D14*
%TO.C,TP11*%
X152880000Y-98350000D03*
%TD*%
D15*
%TO.C,Q6*%
X198625000Y-124050000D03*
X198625000Y-125950000D03*
X200500000Y-125000000D03*
%TD*%
D14*
%TO.C,TP9*%
X149330000Y-105450000D03*
%TD*%
%TO.C,TP2*%
X145780000Y-101900000D03*
%TD*%
D33*
%TO.C,R16*%
X176780000Y-119230000D03*
X178780000Y-119230000D03*
%TD*%
D25*
%TO.C,U3*%
X163050000Y-100000000D03*
X163050000Y-101270000D03*
X163050000Y-102540000D03*
X163050000Y-103810000D03*
X168000000Y-103810000D03*
X168000000Y-102540000D03*
X168000000Y-101270000D03*
X168000000Y-100000000D03*
%TD*%
D30*
%TO.C,JP1*%
X173010000Y-89020000D03*
X175550000Y-89020000D03*
%TD*%
D34*
%TO.C,C1*%
X155692500Y-117640000D03*
X156827500Y-117640000D03*
%TD*%
%TO.C,C9*%
X155692500Y-121580000D03*
X156827500Y-121580000D03*
%TD*%
D21*
%TO.C,R1*%
X145185000Y-112030000D03*
X146835000Y-112030000D03*
%TD*%
D33*
%TO.C,R8*%
X176780000Y-116280000D03*
X178780000Y-116280000D03*
%TD*%
D35*
%TO.C,D5*%
X149000000Y-83500000D03*
X149000000Y-87500000D03*
%TD*%
D14*
%TO.C,TP4*%
X145780000Y-105450000D03*
%TD*%
D36*
%TO.C,D1*%
X176750000Y-122000000D03*
X178500000Y-122000000D03*
%TD*%
D14*
%TO.C,TP8*%
X149330000Y-101900000D03*
%TD*%
%TO.C,TP13*%
X152880000Y-101900000D03*
%TD*%
D21*
%TO.C,R3*%
X145185000Y-114540000D03*
X146835000Y-114540000D03*
%TD*%
D37*
%TO.C,C11*%
X138172500Y-90500000D03*
X140247500Y-90500000D03*
%TD*%
D38*
%TO.C,D4*%
X149410000Y-124585000D03*
X151460000Y-124585000D03*
%TD*%
D14*
%TO.C,TP7*%
X149330000Y-98350000D03*
%TD*%
D21*
%TO.C,R6*%
X203187500Y-112490000D03*
X204837500Y-112490000D03*
%TD*%
D10*
%TO.C,C3*%
X155967500Y-97830000D03*
X157692500Y-97830000D03*
%TD*%
D14*
%TO.C,TP5*%
X145780000Y-109000000D03*
%TD*%
D39*
%TO.C,U1*%
X140000000Y-73000000D03*
X139000000Y-73000000D03*
X138000000Y-73000000D03*
X137000000Y-73000000D03*
X136000000Y-73000000D03*
X136000000Y-78275000D03*
X137000000Y-78275000D03*
X138000000Y-78275000D03*
X139000000Y-78275000D03*
X140000000Y-78275000D03*
D40*
X138000000Y-75637500D03*
%TD*%
D10*
%TO.C,C10*%
X155967500Y-102850000D03*
X157692500Y-102850000D03*
%TD*%
D21*
%TO.C,R18*%
X203187500Y-117510000D03*
X204837500Y-117510000D03*
%TD*%
D15*
%TO.C,Q4*%
X198625000Y-114800000D03*
X198625000Y-116700000D03*
X200500000Y-115750000D03*
%TD*%
D41*
%TO.C,D2*%
X135550000Y-111000000D03*
X133500000Y-111000000D03*
%TD*%
M02*
