M48
; DRILL file {KiCad 9.0.0} date 2025-03-28T15:17:29+0200
; FORMAT={-:-/ absolute / inch / decimal}
; #@! TF.CreationDate,2025-03-28T15:17:29+02:00
; #@! TF.GenerationSoftware,Kicad,Pcbnew,9.0.0
; #@! TF.FileFunction,Plated,1,2,PTH
FMAT,2
INCH
; #@! TA.AperFunction,Plated,PTH,ComponentDrill
T1C0.0079
; #@! TA.AperFunction,Plated,PTH,ViaDrill
T2C0.0118
; #@! TA.AperFunction,Plated,PTH,ViaDrill
T3C0.0157
; #@! TA.AperFunction,Plated,PTH,ComponentDrill
T4C0.0201
; #@! TA.AperFunction,Plated,PTH,ComponentDrill
T5C0.0276
; #@! TA.AperFunction,Plated,PTH,ComponentDrill
T6C0.0295
; #@! TA.AperFunction,Plated,PTH,ComponentDrill
T7C0.0394
; #@! TA.AperFunction,Plated,PTH,ComponentDrill
T8C0.0630
%
G90
G05
T1
X5.5217Y-3.5827
X5.5217Y-3.6417
X5.5217Y-3.7008
X5.5512Y-3.5827
X5.5512Y-3.6417
X5.5512Y-3.7008
X5.7874Y-3.9606
X5.7874Y-4.0079
X5.7874Y-4.0551
X5.8425Y-3.9606
X5.8425Y-4.0079
X5.8425Y-4.0551
X5.9665Y-2.2542
X5.9665Y-2.3133
X5.9665Y-2.3723
X5.996Y-2.2542
X5.996Y-2.3133
X5.996Y-2.3723
X6.251Y-3.6462
X6.251Y-3.7052
X6.31Y-3.6462
X6.31Y-3.7052
X6.3691Y-3.6462
X6.3691Y-3.7052
X6.5354Y-1.9291
X6.5354Y-1.9882
X6.5354Y-2.0472
X6.5945Y-1.9291
X6.5945Y-1.9882
X6.5945Y-2.0472
T2
X6.2008Y-3.5039
X6.2441Y-3.5039
X6.3938Y-3.8698
X6.725Y-3.7231
X6.7323Y-2.0276
T3
X5.2559Y-2.4508
X5.3248Y-1.4665
X5.3346Y-3.3366
X5.3642Y-1.8602
X5.7185Y-4.1339
X5.748Y-1.8012
X5.8268Y-3.9075
X6.0138Y-3.8681
X6.122Y-1.4862
X6.1319Y-2.0965
X6.1749Y-3.7795
X6.2008Y-3.3071
X6.2402Y-3.8543
X6.2527Y-1.6465
X6.2598Y-1.7323
X6.2795Y-1.9685
X6.2992Y-2.8839
X6.3386Y-2.2047
X6.3482Y-3.0269
X6.3484Y-2.9528
X6.3878Y-2.7657
X6.3937Y-2.2047
X6.3976Y-3.1031
X6.4075Y-3.1693
X6.4198Y-3.3465
X6.6535Y-2.1063
X6.6654Y-1.8711
X6.7323Y-2.2244
X6.7421Y-3.061
X6.7618Y-3.9173
X6.8799Y-2.2539
X6.9193Y-2.8445
X6.9193Y-2.9429
T4
X6.097Y-1.7224
X6.147Y-1.7224
T6
X6.1004Y-4.252
X6.1004Y-4.3307
T7
X6.531Y-2.203
X6.531Y-2.303
X6.531Y-2.403
X6.531Y-2.503
X6.531Y-2.603
X6.531Y-2.703
X6.531Y-2.803
X6.531Y-2.903
X6.531Y-3.003
X6.531Y-3.103
X6.531Y-3.203
X6.531Y-3.303
X6.531Y-3.403
X6.531Y-3.503
X6.531Y-3.603
X6.531Y-3.703
X6.631Y-2.203
X6.631Y-2.303
X6.631Y-2.403
X6.631Y-2.503
X6.631Y-2.603
X6.631Y-2.703
X6.631Y-2.803
X6.631Y-2.903
X6.631Y-3.003
X6.631Y-3.103
X6.631Y-3.203
X6.631Y-3.303
X6.631Y-3.403
X6.631Y-3.503
X6.631Y-3.603
X6.631Y-3.703
T8
X6.2395Y-3.935
X6.2395Y-4.124
X6.2395Y-4.313
X6.6017Y-3.8622
X6.6017Y-4.3858
T5
G00X6.3337Y-1.4835
M15
G01X6.373Y-1.4835
M16
G05
G00X6.3337Y-1.8236
M15
G01X6.373Y-1.8236
M16
G05
G00X6.5049Y-1.4835
M15
G01X6.5325Y-1.4835
M16
G05
G00X6.5049Y-1.8236
M15
G01X6.5325Y-1.8236
M16
G05
M30
