%TF.GenerationSoftware,KiCad,Pcbnew,9.0.0*%
%TF.CreationDate,2025-03-25T01:37:38+02:00*%
%TF.ProjectId,shaun-proj,73686175-6e2d-4707-926f-6a2e6b696361,rev?*%
%TF.SameCoordinates,Original*%
%TF.FileFunction,Copper,L1,Top*%
%TF.FilePolarity,Positive*%
%FSLAX46Y46*%
G04 Gerber Fmt 4.6, Leading zero omitted, Abs format (unit mm)*
G04 Created by KiCad (PCBNEW 9.0.0) date 2025-03-25 01:37:38*
%MOMM*%
%LPD*%
G01*
G04 APERTURE LIST*
G04 Aperture macros list*
%AMRoundRect*
0 Rectangle with rounded corners*
0 $1 Rounding radius*
0 $2 $3 $4 $5 $6 $7 $8 $9 X,Y pos of 4 corners*
0 Add a 4 corners polygon primitive as box body*
4,1,4,$2,$3,$4,$5,$6,$7,$8,$9,$2,$3,0*
0 Add four circle primitives for the rounded corners*
1,1,$1+$1,$2,$3*
1,1,$1+$1,$4,$5*
1,1,$1+$1,$6,$7*
1,1,$1+$1,$8,$9*
0 Add four rect primitives between the rounded corners*
20,1,$1+$1,$2,$3,$4,$5,0*
20,1,$1+$1,$4,$5,$6,$7,0*
20,1,$1+$1,$6,$7,$8,$9,0*
20,1,$1+$1,$8,$9,$2,$3,0*%
G04 Aperture macros list end*
%TA.AperFunction,SMDPad,CuDef*%
%ADD10RoundRect,0.237500X-0.300000X-0.237500X0.300000X-0.237500X0.300000X0.237500X-0.300000X0.237500X0*%
%TD*%
%TA.AperFunction,SMDPad,CuDef*%
%ADD11RoundRect,0.237500X-0.250000X-0.237500X0.250000X-0.237500X0.250000X0.237500X-0.250000X0.237500X0*%
%TD*%
%TA.AperFunction,ComponentPad*%
%ADD12R,1.700000X1.700000*%
%TD*%
%TA.AperFunction,ComponentPad*%
%ADD13O,1.700000X1.700000*%
%TD*%
%TA.AperFunction,SMDPad,CuDef*%
%ADD14C,1.500000*%
%TD*%
%TA.AperFunction,SMDPad,CuDef*%
%ADD15RoundRect,0.150000X-0.587500X-0.150000X0.587500X-0.150000X0.587500X0.150000X-0.587500X0.150000X0*%
%TD*%
%TA.AperFunction,SMDPad,CuDef*%
%ADD16RoundRect,0.250000X-1.200000X-2.450000X1.200000X-2.450000X1.200000X2.450000X-1.200000X2.450000X0*%
%TD*%
%TA.AperFunction,SMDPad,CuDef*%
%ADD17R,1.240000X0.600000*%
%TD*%
%TA.AperFunction,SMDPad,CuDef*%
%ADD18R,1.240000X0.300000*%
%TD*%
%TA.AperFunction,HeatsinkPad*%
%ADD19O,2.100000X1.000000*%
%TD*%
%TA.AperFunction,HeatsinkPad*%
%ADD20O,1.800000X1.000000*%
%TD*%
%TA.AperFunction,SMDPad,CuDef*%
%ADD21RoundRect,0.200000X-0.200000X-0.275000X0.200000X-0.275000X0.200000X0.275000X-0.200000X0.275000X0*%
%TD*%
%TA.AperFunction,ComponentPad*%
%ADD22RoundRect,0.250000X-0.350000X-0.625000X0.350000X-0.625000X0.350000X0.625000X-0.350000X0.625000X0*%
%TD*%
%TA.AperFunction,ComponentPad*%
%ADD23O,1.200000X1.750000*%
%TD*%
%TA.AperFunction,SMDPad,CuDef*%
%ADD24RoundRect,0.250000X-1.500000X-0.550000X1.500000X-0.550000X1.500000X0.550000X-1.500000X0.550000X0*%
%TD*%
%TA.AperFunction,SMDPad,CuDef*%
%ADD25RoundRect,0.150000X-0.825000X-0.150000X0.825000X-0.150000X0.825000X0.150000X-0.825000X0.150000X0*%
%TD*%
%TA.AperFunction,HeatsinkPad*%
%ADD26C,0.500000*%
%TD*%
%TA.AperFunction,HeatsinkPad*%
%ADD27R,2.410000X3.300000*%
%TD*%
%TA.AperFunction,SMDPad,CuDef*%
%ADD28RoundRect,0.250000X-0.312500X-0.625000X0.312500X-0.625000X0.312500X0.625000X-0.312500X0.625000X0*%
%TD*%
%TA.AperFunction,SMDPad,CuDef*%
%ADD29R,0.600000X1.550000*%
%TD*%
%TA.AperFunction,ComponentPad*%
%ADD30C,0.600000*%
%TD*%
%TA.AperFunction,SMDPad,CuDef*%
%ADD31R,3.100000X2.600000*%
%TD*%
%TA.AperFunction,SMDPad,CuDef*%
%ADD32R,4.500000X2.950000*%
%TD*%
%TA.AperFunction,ComponentPad*%
%ADD33C,1.400000*%
%TD*%
%TA.AperFunction,ComponentPad*%
%ADD34C,1.600000*%
%TD*%
%TA.AperFunction,ComponentPad*%
%ADD35RoundRect,0.400000X-0.400000X-0.400000X0.400000X-0.400000X0.400000X0.400000X-0.400000X0.400000X0*%
%TD*%
%TA.AperFunction,SMDPad,CuDef*%
%ADD36RoundRect,0.250000X-0.350000X-0.450000X0.350000X-0.450000X0.350000X0.450000X-0.350000X0.450000X0*%
%TD*%
%TA.AperFunction,SMDPad,CuDef*%
%ADD37RoundRect,0.155000X-0.212500X-0.155000X0.212500X-0.155000X0.212500X0.155000X-0.212500X0.155000X0*%
%TD*%
%TA.AperFunction,SMDPad,CuDef*%
%ADD38RoundRect,0.250000X-0.650000X1.000000X-0.650000X-1.000000X0.650000X-1.000000X0.650000X1.000000X0*%
%TD*%
%TA.AperFunction,SMDPad,CuDef*%
%ADD39RoundRect,0.237500X-0.287500X-0.237500X0.287500X-0.237500X0.287500X0.237500X-0.287500X0.237500X0*%
%TD*%
%TA.AperFunction,SMDPad,CuDef*%
%ADD40RoundRect,0.250000X-0.337500X-0.475000X0.337500X-0.475000X0.337500X0.475000X-0.337500X0.475000X0*%
%TD*%
%TA.AperFunction,SMDPad,CuDef*%
%ADD41RoundRect,0.250000X-0.325000X-0.450000X0.325000X-0.450000X0.325000X0.450000X-0.325000X0.450000X0*%
%TD*%
%TA.AperFunction,SMDPad,CuDef*%
%ADD42RoundRect,0.150000X-0.150000X0.687500X-0.150000X-0.687500X0.150000X-0.687500X0.150000X0.687500X0*%
%TD*%
%TA.AperFunction,HeatsinkPad*%
%ADD43R,3.300000X2.100000*%
%TD*%
%TA.AperFunction,SMDPad,CuDef*%
%ADD44RoundRect,0.250000X0.325000X0.450000X-0.325000X0.450000X-0.325000X-0.450000X0.325000X-0.450000X0*%
%TD*%
G04 APERTURE END LIST*
D10*
%TO.P,C7,1*%
%TO.N,BATTERY_POWER*%
X155397500Y-119610000D03*
%TO.P,C7,2*%
%TO.N,GND*%
X157122500Y-119610000D03*
%TD*%
D11*
%TO.P,R12,1*%
%TO.N,3V3_OUT*%
X145097500Y-122070000D03*
%TO.P,R12,2*%
%TO.N,Net-(U3-A1)*%
X146922500Y-122070000D03*
%TD*%
%TO.P,R15,1*%
%TO.N,Net-(U1-VDD)*%
X155917500Y-112890000D03*
%TO.P,R15,2*%
%TO.N,VBUS*%
X157742500Y-112890000D03*
%TD*%
D12*
%TO.P,J2,1,Pin_1*%
%TO.N,MOTOR2_B_OUT*%
X184500000Y-73760000D03*
D13*
%TO.P,J2,2,Pin_2*%
%TO.N,MOTOR2_A_OUT*%
X187040000Y-73760000D03*
%TO.P,J2,3,Pin_3*%
%TO.N,MOTOR4_A_OUT*%
X184500000Y-76300000D03*
%TO.P,J2,4,Pin_4*%
%TO.N,MOTOR2_CTRL1*%
X187040000Y-76300000D03*
%TO.P,J2,5,Pin_5*%
%TO.N,MOTOR3_B_OUT*%
X184500000Y-78840000D03*
%TO.P,J2,6,Pin_6*%
%TO.N,MOTOR2_CTRL2*%
X187040000Y-78840000D03*
%TO.P,J2,7,Pin_7*%
%TO.N,CTRL_EXT_LOAD2*%
X184500000Y-81380000D03*
%TO.P,J2,8,Pin_8*%
%TO.N,MOTOR4_CTRL1*%
X187040000Y-81380000D03*
%TO.P,J2,9,Pin_9*%
%TO.N,unconnected-(J2-Pin_9-Pad9)*%
X184500000Y-83920000D03*
%TO.P,J2,10,Pin_10*%
%TO.N,MOTOR4_CTRL2*%
X187040000Y-83920000D03*
%TO.P,J2,11,Pin_11*%
%TO.N,EXT_LOAD2_OUT*%
X184500000Y-86460000D03*
%TO.P,J2,12,Pin_12*%
%TO.N,unconnected-(J2-Pin_12-Pad12)*%
X187040000Y-86460000D03*
%TO.P,J2,13,Pin_13*%
%TO.N,FAST_CHARGE_CTRL*%
X184500000Y-89000000D03*
%TO.P,J2,14,Pin_14*%
%TO.N,BATTERY*%
X187040000Y-89000000D03*
%TO.P,J2,15,Pin_15*%
%TO.N,unconnected-(J2-Pin_15-Pad15)*%
X184500000Y-91540000D03*
%TO.P,J2,16,Pin_16*%
%TO.N,I2C1_SCL*%
X187040000Y-91540000D03*
%TO.P,J2,17,Pin_17*%
%TO.N,I2C1_SDA*%
X184500000Y-94080000D03*
%TO.P,J2,18,Pin_18*%
%TO.N,3V3_OUT*%
X187040000Y-94080000D03*
%TO.P,J2,19,Pin_19*%
%TO.N,GND*%
X184500000Y-96620000D03*
%TO.P,J2,20,Pin_20*%
%TO.N,5V_OUT*%
X187040000Y-96620000D03*
%TO.P,J2,21,Pin_21*%
%TO.N,EXT_LOAD1_OUT*%
X184500000Y-99160000D03*
%TO.P,J2,22,Pin_22*%
%TO.N,HV*%
X187040000Y-99160000D03*
%TO.P,J2,23,Pin_23*%
%TO.N,GND*%
X184500000Y-101700000D03*
%TO.P,J2,24,Pin_24*%
%TO.N,MOTOR3_CTRL1*%
X187040000Y-101700000D03*
%TO.P,J2,25,Pin_25*%
%TO.N,CTRL_EXT_LOAD1*%
X184500000Y-104240000D03*
%TO.P,J2,26,Pin_26*%
%TO.N,MOTOR3_CTRL2*%
X187040000Y-104240000D03*
%TO.P,J2,27,Pin_27*%
%TO.N,MOTOR3_A_OUT*%
X184500000Y-106780000D03*
%TO.P,J2,28,Pin_28*%
%TO.N,MOTOR1_CTRL1*%
X187040000Y-106780000D03*
%TO.P,J2,29,Pin_29*%
%TO.N,MOTOR3_B_OUT*%
X184500000Y-109320000D03*
%TO.P,J2,30,Pin_30*%
%TO.N,MOTOR1_CTRL2*%
X187040000Y-109320000D03*
%TO.P,J2,31,Pin_31*%
%TO.N,MOTOR1_B_OUT*%
X184500000Y-111860000D03*
%TO.P,J2,32,Pin_32*%
%TO.N,MOTOR1_A_OUT*%
X187040000Y-111860000D03*
%TD*%
D14*
%TO.P,TP1,1,1*%
%TO.N,VBUS*%
X145780000Y-98350000D03*
%TD*%
D15*
%TO.P,Q5,1,G*%
%TO.N,Net-(Q5-G)*%
X198625000Y-119425000D03*
%TO.P,Q5,2,S*%
%TO.N,GND*%
X198625000Y-121325000D03*
%TO.P,Q5,3,D*%
%TO.N,Net-(Q5-D)*%
X200500000Y-120375000D03*
%TD*%
D16*
%TO.P,L3,1,1*%
%TO.N,Net-(D5-K)*%
X154550000Y-80000000D03*
%TO.P,L3,2,2*%
%TO.N,/5V*%
X164450000Y-80000000D03*
%TD*%
D15*
%TO.P,Q3,1,G*%
%TO.N,Net-(Q3-G)*%
X198625000Y-110175000D03*
%TO.P,Q3,2,S*%
%TO.N,5V_OUT*%
X198625000Y-112075000D03*
%TO.P,Q3,3,D*%
%TO.N,EXT_LOAD1_OUT*%
X200500000Y-111125000D03*
%TD*%
D17*
%TO.P,J1,A1,GND*%
%TO.N,GND*%
X128725000Y-73800000D03*
%TO.P,J1,A4,VBUS*%
%TO.N,VBUS*%
X128725000Y-74600000D03*
D18*
%TO.P,J1,A5,CC1*%
%TO.N,Net-(J1-CC1)*%
X128725000Y-75750000D03*
%TO.P,J1,A6,D+*%
%TO.N,Net-(U1-DP)*%
X128725000Y-76750000D03*
%TO.P,J1,A7,D-*%
%TO.N,Net-(U1-DM)*%
X128725000Y-77250000D03*
%TO.P,J1,A8,SBU1*%
%TO.N,unconnected-(J1-SBU1-PadA8)*%
X128725000Y-78250000D03*
D17*
%TO.P,J1,A9,VBUS*%
%TO.N,VBUS*%
X128725000Y-79400000D03*
%TO.P,J1,A12,GND*%
%TO.N,GND*%
X128725000Y-80200000D03*
%TO.P,J1,B1,GND*%
X128725000Y-80200000D03*
%TO.P,J1,B4,VBUS*%
%TO.N,VBUS*%
X128725000Y-79400000D03*
D18*
%TO.P,J1,B5,CC2*%
%TO.N,Net-(J1-CC2)*%
X128725000Y-78750000D03*
%TO.P,J1,B6,D+*%
%TO.N,Net-(U1-DP)*%
X128725000Y-77750000D03*
%TO.P,J1,B7,D-*%
%TO.N,Net-(U1-DM)*%
X128725000Y-76250000D03*
%TO.P,J1,B8,SBU2*%
%TO.N,unconnected-(J1-SBU2-PadB8)*%
X128725000Y-75250000D03*
D17*
%TO.P,J1,B9,VBUS*%
%TO.N,VBUS*%
X128725000Y-74600000D03*
%TO.P,J1,B12,GND*%
%TO.N,GND*%
X128725000Y-73800000D03*
D19*
%TO.P,J1,S1,SHIELD*%
X128125000Y-72680000D03*
D20*
X123925000Y-72680000D03*
D19*
X128125000Y-81320000D03*
D20*
X123925000Y-81320000D03*
%TD*%
D21*
%TO.P,R7,1*%
%TO.N,Net-(Q2-D)*%
X123000000Y-115000000D03*
%TO.P,R7,2*%
%TO.N,GND*%
X124650000Y-115000000D03*
%TD*%
D11*
%TO.P,R11,1*%
%TO.N,/5V*%
X155917500Y-105360000D03*
%TO.P,R11,2*%
%TO.N,/VSENSE*%
X157742500Y-105360000D03*
%TD*%
%TO.P,R13,1*%
%TO.N,/VSENSE*%
X155917500Y-107870000D03*
%TO.P,R13,2*%
%TO.N,GND*%
X157742500Y-107870000D03*
%TD*%
%TO.P,R17,1*%
%TO.N,Net-(D4-A)*%
X155917500Y-115400000D03*
%TO.P,R17,2*%
%TO.N,VBUS*%
X157742500Y-115400000D03*
%TD*%
D10*
%TO.P,C5,1*%
%TO.N,BATTERY*%
X155967500Y-100340000D03*
%TO.P,C5,2*%
%TO.N,GND*%
X157692500Y-100340000D03*
%TD*%
D22*
%TO.P,J3,1,Pin_1*%
%TO.N,GND*%
X170430000Y-117180000D03*
D23*
%TO.P,J3,2,Pin_2*%
%TO.N,BATTERY*%
X172430000Y-117180000D03*
%TD*%
D24*
%TO.P,C12,1*%
%TO.N,/5V*%
X169800000Y-75500000D03*
%TO.P,C12,2*%
%TO.N,GND*%
X175200000Y-75500000D03*
%TD*%
D15*
%TO.P,Q1,1,G*%
%TO.N,/PG*%
X141625000Y-81550000D03*
%TO.P,Q1,2,S*%
%TO.N,VBUS*%
X141625000Y-83450000D03*
%TO.P,Q1,3,D*%
%TO.N,HV*%
X143500000Y-82500000D03*
%TD*%
D21*
%TO.P,R5,1*%
%TO.N,5V_OUT*%
X203187500Y-109980000D03*
%TO.P,R5,2*%
%TO.N,Net-(Q3-G)*%
X204837500Y-109980000D03*
%TD*%
D25*
%TO.P,U5,1,TEMP*%
%TO.N,GND*%
X124725000Y-108295000D03*
%TO.P,U5,2,PROG*%
%TO.N,Net-(U5-PROG)*%
X124725000Y-109565000D03*
%TO.P,U5,3,GND*%
%TO.N,GND*%
X124725000Y-110835000D03*
%TO.P,U5,4,V_{CC}*%
%TO.N,Net-(U5-CE)*%
X124725000Y-112105000D03*
%TO.P,U5,5,BAT*%
%TO.N,BATTERY*%
X129675000Y-112105000D03*
%TO.P,U5,6,~{STDBY}*%
%TO.N,Net-(D2-K)*%
X129675000Y-110835000D03*
%TO.P,U5,7,~{CHRG}*%
%TO.N,Net-(D1-K)*%
X129675000Y-109565000D03*
%TO.P,U5,8,CE*%
%TO.N,Net-(U5-CE)*%
X129675000Y-108295000D03*
D26*
%TO.P,U5,9,EPAD*%
%TO.N,GND*%
X126500000Y-109000000D03*
X126500000Y-110200000D03*
X126500000Y-111400000D03*
D27*
X127200000Y-110200000D03*
D26*
X127900000Y-109000000D03*
X127900000Y-110200000D03*
X127900000Y-111400000D03*
%TD*%
D21*
%TO.P,R10,1*%
%TO.N,CTRL_EXT_LOAD2*%
X203187500Y-115000000D03*
%TO.P,R10,2*%
%TO.N,Net-(Q5-G)*%
X204837500Y-115000000D03*
%TD*%
D11*
%TO.P,R14,1*%
%TO.N,Net-(D1-A)*%
X155917500Y-110380000D03*
%TO.P,R14,2*%
%TO.N,Net-(U5-CE)*%
X157742500Y-110380000D03*
%TD*%
D28*
%TO.P,R9,1*%
%TO.N,BATTERY_POWER*%
X171537500Y-102500000D03*
%TO.P,R9,2*%
%TO.N,BATTERY_LOAD*%
X174462500Y-102500000D03*
%TD*%
D29*
%TO.P,U2,1,BOOT*%
%TO.N,Net-(U2-BOOT)*%
X149605000Y-72900000D03*
%TO.P,U2,2,NC*%
%TO.N,unconnected-(U2-NC-Pad2)*%
X148335000Y-72900000D03*
%TO.P,U2,3,NC*%
%TO.N,unconnected-(U2-NC-Pad3)*%
X147065000Y-72900000D03*
%TO.P,U2,4,VSENSE*%
%TO.N,/VSENSE*%
X145795000Y-72900000D03*
%TO.P,U2,5,EN*%
%TO.N,unconnected-(U2-EN-Pad5)*%
X145795000Y-78300000D03*
%TO.P,U2,6,GND*%
%TO.N,GND*%
X147065000Y-78300000D03*
%TO.P,U2,7,VIN*%
%TO.N,HV*%
X148335000Y-78300000D03*
%TO.P,U2,8,PH*%
%TO.N,Net-(D5-K)*%
X149605000Y-78300000D03*
D30*
%TO.P,U2,9,GNDPAD*%
%TO.N,GND*%
X149500000Y-75000000D03*
X148300000Y-75000000D03*
X147000000Y-75000000D03*
X145900000Y-75000000D03*
D31*
X147700000Y-75600000D03*
D32*
X147700000Y-75600000D03*
D30*
X149500000Y-76200000D03*
X148300000Y-76200000D03*
X147000000Y-76200000D03*
X145900000Y-76200000D03*
%TD*%
D14*
%TO.P,TP10,1,1*%
%TO.N,Net-(D5-K)*%
X149330000Y-109000000D03*
%TD*%
D21*
%TO.P,R4,1*%
%TO.N,Net-(U5-PROG)*%
X145185000Y-117050000D03*
%TO.P,R4,2*%
%TO.N,Net-(Q2-D)*%
X146835000Y-117050000D03*
%TD*%
D14*
%TO.P,TP14,1,1*%
%TO.N,/5V*%
X152880000Y-105450000D03*
%TD*%
D33*
%TO.P,JP2,1,A*%
%TO.N,BATTERY_POWER*%
X173010000Y-92370000D03*
%TO.P,JP2,2,B*%
%TO.N,3V3_OUT*%
X175550000Y-92370000D03*
%TD*%
D15*
%TO.P,Q2,1,G*%
%TO.N,FAST_CHARGE_CTRL*%
X118500000Y-114000000D03*
%TO.P,Q2,2,S*%
%TO.N,GND*%
X118500000Y-115900000D03*
%TO.P,Q2,3,D*%
%TO.N,Net-(Q2-D)*%
X120375000Y-114950000D03*
%TD*%
D34*
%TO.P,SW2,*%
%TO.N,*%
X122580000Y-100650000D03*
X122580000Y-87350000D03*
D35*
%TO.P,SW2,1,A*%
%TO.N,BATTERY*%
X131780000Y-98800000D03*
D34*
%TO.P,SW2,2,B*%
%TO.N,BATTERY_POWER*%
X131780000Y-94000000D03*
%TO.P,SW2,3,C*%
%TO.N,GND*%
X131780000Y-89200000D03*
%TD*%
D14*
%TO.P,TP11,1,1*%
%TO.N,3V3_OUT*%
X152880000Y-98350000D03*
%TD*%
D15*
%TO.P,Q6,1,G*%
%TO.N,Net-(Q5-D)*%
X198625000Y-124050000D03*
%TO.P,Q6,2,S*%
%TO.N,5V_OUT*%
X198625000Y-125950000D03*
%TO.P,Q6,3,D*%
%TO.N,EXT_LOAD2_OUT*%
X200500000Y-125000000D03*
%TD*%
D14*
%TO.P,TP9,1,1*%
%TO.N,BATTERY_POWER*%
X149330000Y-105450000D03*
%TD*%
%TO.P,TP2,1,1*%
%TO.N,HV*%
X145780000Y-101900000D03*
%TD*%
D36*
%TO.P,R16,1*%
%TO.N,/5V*%
X176780000Y-119230000D03*
%TO.P,R16,2*%
%TO.N,Net-(U5-CE)*%
X178780000Y-119230000D03*
%TD*%
D25*
%TO.P,U3,1,A1*%
%TO.N,Net-(U3-A1)*%
X163050000Y-100000000D03*
%TO.P,U3,2,A0*%
%TO.N,GND*%
X163050000Y-101270000D03*
%TO.P,U3,3,SDA*%
%TO.N,I2C1_SDA*%
X163050000Y-102540000D03*
%TO.P,U3,4,SCL*%
%TO.N,I2C1_SCL*%
X163050000Y-103810000D03*
%TO.P,U3,5,VS*%
%TO.N,3V3_OUT*%
X168000000Y-103810000D03*
%TO.P,U3,6,GND*%
%TO.N,GND*%
X168000000Y-102540000D03*
%TO.P,U3,7,IN-*%
%TO.N,BATTERY_LOAD*%
X168000000Y-101270000D03*
%TO.P,U3,8,IN+*%
%TO.N,BATTERY_POWER*%
X168000000Y-100000000D03*
%TD*%
D33*
%TO.P,JP1,1,A*%
%TO.N,VBUS*%
X173010000Y-89020000D03*
%TO.P,JP1,2,B*%
%TO.N,HV*%
X175550000Y-89020000D03*
%TD*%
D37*
%TO.P,C1,1*%
%TO.N,Net-(U1-VDD)*%
X155692500Y-117640000D03*
%TO.P,C1,2*%
%TO.N,GND*%
X156827500Y-117640000D03*
%TD*%
%TO.P,C9,1*%
%TO.N,Net-(U2-BOOT)*%
X155692500Y-121580000D03*
%TO.P,C9,2*%
%TO.N,Net-(D5-K)*%
X156827500Y-121580000D03*
%TD*%
D21*
%TO.P,R1,1*%
%TO.N,GND*%
X145185000Y-112030000D03*
%TO.P,R1,2*%
%TO.N,Net-(U1-CFG1)*%
X146835000Y-112030000D03*
%TD*%
D36*
%TO.P,R8,1*%
%TO.N,/5V*%
X176780000Y-116280000D03*
%TO.P,R8,2*%
%TO.N,Net-(U5-CE)*%
X178780000Y-116280000D03*
%TD*%
D38*
%TO.P,D5,1,K*%
%TO.N,Net-(D5-K)*%
X149000000Y-83500000D03*
%TO.P,D5,2,A*%
%TO.N,GND*%
X149000000Y-87500000D03*
%TD*%
D14*
%TO.P,TP4,1,1*%
%TO.N,Net-(U1-DP)*%
X145780000Y-105450000D03*
%TD*%
D39*
%TO.P,D1,1,K*%
%TO.N,Net-(D1-K)*%
X176750000Y-122000000D03*
%TO.P,D1,2,A*%
%TO.N,Net-(D1-A)*%
X178500000Y-122000000D03*
%TD*%
D14*
%TO.P,TP8,1,1*%
%TO.N,BATTERY*%
X149330000Y-101900000D03*
%TD*%
%TO.P,TP13,1,1*%
%TO.N,HV*%
X152880000Y-101900000D03*
%TD*%
D21*
%TO.P,R3,1*%
%TO.N,VBUS*%
X145185000Y-114540000D03*
%TO.P,R3,2*%
%TO.N,/PG*%
X146835000Y-114540000D03*
%TD*%
D40*
%TO.P,C11,1*%
%TO.N,HV*%
X138172500Y-90500000D03*
%TO.P,C11,2*%
%TO.N,GND*%
X140247500Y-90500000D03*
%TD*%
D41*
%TO.P,D4,1,K*%
%TO.N,/PG*%
X149410000Y-124585000D03*
%TO.P,D4,2,A*%
%TO.N,Net-(D4-A)*%
X151460000Y-124585000D03*
%TD*%
D14*
%TO.P,TP7,1,1*%
%TO.N,/PG*%
X149330000Y-98350000D03*
%TD*%
D21*
%TO.P,R6,1*%
%TO.N,CTRL_EXT_LOAD1*%
X203187500Y-112490000D03*
%TO.P,R6,2*%
%TO.N,Net-(Q4-G)*%
X204837500Y-112490000D03*
%TD*%
D10*
%TO.P,C3,1*%
%TO.N,Net-(U5-CE)*%
X155967500Y-97830000D03*
%TO.P,C3,2*%
%TO.N,GND*%
X157692500Y-97830000D03*
%TD*%
D14*
%TO.P,TP5,1,1*%
%TO.N,Net-(U1-DM)*%
X145780000Y-109000000D03*
%TD*%
D42*
%TO.P,U1,1,VDD*%
%TO.N,Net-(U1-VDD)*%
X140000000Y-73000000D03*
%TO.P,U1,2,CFG2*%
%TO.N,unconnected-(U1-CFG2-Pad2)*%
X139000000Y-73000000D03*
%TO.P,U1,3,CFG3*%
%TO.N,unconnected-(U1-CFG3-Pad3)*%
X138000000Y-73000000D03*
%TO.P,U1,4,DP*%
%TO.N,Net-(U1-DP)*%
X137000000Y-73000000D03*
%TO.P,U1,5,DM*%
%TO.N,Net-(U1-DM)*%
X136000000Y-73000000D03*
%TO.P,U1,6,CC2*%
%TO.N,Net-(J1-CC2)*%
X136000000Y-78275000D03*
%TO.P,U1,7,CC1*%
%TO.N,Net-(J1-CC1)*%
X137000000Y-78275000D03*
%TO.P,U1,8,VBUS*%
%TO.N,VBUS*%
X138000000Y-78275000D03*
%TO.P,U1,9,CFG1*%
%TO.N,Net-(U1-CFG1)*%
X139000000Y-78275000D03*
%TO.P,U1,10,PG*%
%TO.N,/PG*%
X140000000Y-78275000D03*
D43*
%TO.P,U1,11,GND*%
%TO.N,GND*%
X138000000Y-75637500D03*
%TD*%
D10*
%TO.P,C10,1*%
%TO.N,/5V*%
X155967500Y-102850000D03*
%TO.P,C10,2*%
%TO.N,GND*%
X157692500Y-102850000D03*
%TD*%
D21*
%TO.P,R18,1*%
%TO.N,5V_OUT*%
X203187500Y-117510000D03*
%TO.P,R18,2*%
%TO.N,Net-(Q5-D)*%
X204837500Y-117510000D03*
%TD*%
D15*
%TO.P,Q4,1,G*%
%TO.N,Net-(Q4-G)*%
X198625000Y-114800000D03*
%TO.P,Q4,2,S*%
%TO.N,GND*%
X198625000Y-116700000D03*
%TO.P,Q4,3,D*%
%TO.N,Net-(Q3-G)*%
X200500000Y-115750000D03*
%TD*%
D44*
%TO.P,D2,1,K*%
%TO.N,Net-(D2-K)*%
X135550000Y-111000000D03*
%TO.P,D2,2,A*%
%TO.N,Net-(D1-A)*%
X133500000Y-111000000D03*
%TD*%
M02*
