%TF.GenerationSoftware,KiCad,Pcbnew,9.0.0*%
%TF.CreationDate,2025-03-28T06:27:49+02:00*%
%TF.ProjectId,shaun-proj,73686175-6e2d-4707-926f-6a2e6b696361,0*%
%TF.SameCoordinates,Original*%
%TF.FileFunction,Soldermask,Bot*%
%TF.FilePolarity,Negative*%
%FSLAX46Y46*%
G04 Gerber Fmt 4.6, Leading zero omitted, Abs format (unit mm)*
G04 Created by KiCad (PCBNEW 9.0.0) date 2025-03-28 06:27:49*
%MOMM*%
%LPD*%
G01*
G04 APERTURE LIST*
G04 Aperture macros list*
%AMRoundRect*
0 Rectangle with rounded corners*
0 $1 Rounding radius*
0 $2 $3 $4 $5 $6 $7 $8 $9 X,Y pos of 4 corners*
0 Add a 4 corners polygon primitive as box body*
4,1,4,$2,$3,$4,$5,$6,$7,$8,$9,$2,$3,0*
0 Add four circle primitives for the rounded corners*
1,1,$1+$1,$2,$3*
1,1,$1+$1,$4,$5*
1,1,$1+$1,$6,$7*
1,1,$1+$1,$8,$9*
0 Add four rect primitives between the rounded corners*
20,1,$1+$1,$2,$3,$4,$5,0*
20,1,$1+$1,$4,$5,$6,$7,0*
20,1,$1+$1,$6,$7,$8,$9,0*
20,1,$1+$1,$8,$9,$2,$3,0*%
G04 Aperture macros list end*
%ADD10RoundRect,0.250000X-0.625000X0.350000X-0.625000X-0.350000X0.625000X-0.350000X0.625000X0.350000X0*%
%ADD11O,1.750000X1.200000*%
%ADD12C,3.200000*%
%ADD13C,2.200000*%
%ADD14RoundRect,0.550000X0.550000X0.550000X-0.550000X0.550000X-0.550000X-0.550000X0.550000X-0.550000X0*%
%ADD15R,1.700000X1.700000*%
%ADD16O,1.700000X1.700000*%
%ADD17C,0.600000*%
%ADD18C,0.650000*%
%ADD19O,2.100000X1.000000*%
%ADD20O,1.800000X1.000000*%
G04 APERTURE END LIST*
D10*
%TO.C,J3*%
X154950000Y-108000000D03*
D11*
X154950000Y-110000000D03*
%TD*%
D12*
%TO.C,H1*%
X140968883Y-75000000D03*
%TD*%
D13*
%TO.C,SW2*%
X167682785Y-98100000D03*
X167682785Y-111400000D03*
D14*
X158482785Y-99950000D03*
D13*
X158482785Y-104750000D03*
X158482785Y-109550000D03*
%TD*%
D15*
%TO.C,J2*%
X165886604Y-55956647D03*
D16*
X168426604Y-55956647D03*
X165886604Y-58496647D03*
X168426604Y-58496647D03*
X165886604Y-61036647D03*
X168426604Y-61036647D03*
X165886604Y-63576647D03*
X168426604Y-63576647D03*
X165886604Y-66116647D03*
X168426604Y-66116647D03*
X165886604Y-68656647D03*
X168426604Y-68656647D03*
X165886604Y-71196647D03*
X168426604Y-71196647D03*
X165886604Y-73736647D03*
X168426604Y-73736647D03*
X165886604Y-76276647D03*
X168426604Y-76276647D03*
X165886604Y-78816647D03*
X168426604Y-78816647D03*
X165886604Y-81356647D03*
X168426604Y-81356647D03*
X165886604Y-83896647D03*
X168426604Y-83896647D03*
X165886604Y-86436647D03*
X168426604Y-86436647D03*
X165886604Y-88976647D03*
X168426604Y-88976647D03*
X165886604Y-91516647D03*
X168426604Y-91516647D03*
X165886604Y-94056647D03*
X168426604Y-94056647D03*
%TD*%
D17*
%TO.C,J1*%
X161895000Y-44890000D03*
D18*
X161895000Y-39110000D03*
D19*
X161375000Y-46320000D03*
D20*
X165575000Y-46320000D03*
D19*
X161375000Y-37680000D03*
D20*
X165575000Y-37680000D03*
%TD*%
M02*
