%TF.GenerationSoftware,KiCad,Pcbnew,9.0.0*%
%TF.CreationDate,2025-03-25T01:37:38+02:00*%
%TF.ProjectId,shaun-proj,73686175-6e2d-4707-926f-6a2e6b696361,rev?*%
%TF.SameCoordinates,Original*%
%TF.FileFunction,Legend,Top*%
%TF.FilePolarity,Positive*%
%FSLAX46Y46*%
G04 Gerber Fmt 4.6, Leading zero omitted, Abs format (unit mm)*
G04 Created by KiCad (PCBNEW 9.0.0) date 2025-03-25 01:37:38*
%MOMM*%
%LPD*%
G01*
G04 APERTURE LIST*
G04 Aperture macros list*
%AMRoundRect*
0 Rectangle with rounded corners*
0 $1 Rounding radius*
0 $2 $3 $4 $5 $6 $7 $8 $9 X,Y pos of 4 corners*
0 Add a 4 corners polygon primitive as box body*
4,1,4,$2,$3,$4,$5,$6,$7,$8,$9,$2,$3,0*
0 Add four circle primitives for the rounded corners*
1,1,$1+$1,$2,$3*
1,1,$1+$1,$4,$5*
1,1,$1+$1,$6,$7*
1,1,$1+$1,$8,$9*
0 Add four rect primitives between the rounded corners*
20,1,$1+$1,$2,$3,$4,$5,0*
20,1,$1+$1,$4,$5,$6,$7,0*
20,1,$1+$1,$6,$7,$8,$9,0*
20,1,$1+$1,$8,$9,$2,$3,0*%
G04 Aperture macros list end*
%ADD10C,0.150000*%
%ADD11C,0.100000*%
%ADD12C,0.120000*%
%ADD13RoundRect,0.237500X-0.300000X-0.237500X0.300000X-0.237500X0.300000X0.237500X-0.300000X0.237500X0*%
%ADD14RoundRect,0.237500X-0.250000X-0.237500X0.250000X-0.237500X0.250000X0.237500X-0.250000X0.237500X0*%
%ADD15R,1.700000X1.700000*%
%ADD16O,1.700000X1.700000*%
%ADD17C,1.500000*%
%ADD18RoundRect,0.150000X-0.587500X-0.150000X0.587500X-0.150000X0.587500X0.150000X-0.587500X0.150000X0*%
%ADD19RoundRect,0.250000X-1.200000X-2.450000X1.200000X-2.450000X1.200000X2.450000X-1.200000X2.450000X0*%
%ADD20C,0.650000*%
%ADD21R,1.240000X0.600000*%
%ADD22R,1.240000X0.300000*%
%ADD23O,2.100000X1.000000*%
%ADD24O,1.800000X1.000000*%
%ADD25RoundRect,0.200000X-0.200000X-0.275000X0.200000X-0.275000X0.200000X0.275000X-0.200000X0.275000X0*%
%ADD26RoundRect,0.250000X-0.350000X-0.625000X0.350000X-0.625000X0.350000X0.625000X-0.350000X0.625000X0*%
%ADD27O,1.200000X1.750000*%
%ADD28RoundRect,0.250000X-1.500000X-0.550000X1.500000X-0.550000X1.500000X0.550000X-1.500000X0.550000X0*%
%ADD29RoundRect,0.150000X-0.825000X-0.150000X0.825000X-0.150000X0.825000X0.150000X-0.825000X0.150000X0*%
%ADD30R,2.410000X3.300000*%
%ADD31RoundRect,0.250000X-0.312500X-0.625000X0.312500X-0.625000X0.312500X0.625000X-0.312500X0.625000X0*%
%ADD32R,0.600000X1.550000*%
%ADD33R,3.100000X2.600000*%
%ADD34C,1.400000*%
%ADD35C,1.600000*%
%ADD36RoundRect,0.400000X-0.400000X-0.400000X0.400000X-0.400000X0.400000X0.400000X-0.400000X0.400000X0*%
%ADD37RoundRect,0.250000X-0.350000X-0.450000X0.350000X-0.450000X0.350000X0.450000X-0.350000X0.450000X0*%
%ADD38RoundRect,0.155000X-0.212500X-0.155000X0.212500X-0.155000X0.212500X0.155000X-0.212500X0.155000X0*%
%ADD39RoundRect,0.250000X-0.650000X1.000000X-0.650000X-1.000000X0.650000X-1.000000X0.650000X1.000000X0*%
%ADD40RoundRect,0.237500X-0.287500X-0.237500X0.287500X-0.237500X0.287500X0.237500X-0.287500X0.237500X0*%
%ADD41RoundRect,0.250000X-0.337500X-0.475000X0.337500X-0.475000X0.337500X0.475000X-0.337500X0.475000X0*%
%ADD42RoundRect,0.250000X-0.325000X-0.450000X0.325000X-0.450000X0.325000X0.450000X-0.325000X0.450000X0*%
%ADD43RoundRect,0.150000X-0.150000X0.687500X-0.150000X-0.687500X0.150000X-0.687500X0.150000X0.687500X0*%
%ADD44R,3.300000X2.100000*%
%ADD45RoundRect,0.250000X0.325000X0.450000X-0.325000X0.450000X-0.325000X-0.450000X0.325000X-0.450000X0*%
G04 APERTURE END LIST*
D10*
X156093333Y-118539580D02*
X156045714Y-118587200D01*
X156045714Y-118587200D02*
X155902857Y-118634819D01*
X155902857Y-118634819D02*
X155807619Y-118634819D01*
X155807619Y-118634819D02*
X155664762Y-118587200D01*
X155664762Y-118587200D02*
X155569524Y-118491961D01*
X155569524Y-118491961D02*
X155521905Y-118396723D01*
X155521905Y-118396723D02*
X155474286Y-118206247D01*
X155474286Y-118206247D02*
X155474286Y-118063390D01*
X155474286Y-118063390D02*
X155521905Y-117872914D01*
X155521905Y-117872914D02*
X155569524Y-117777676D01*
X155569524Y-117777676D02*
X155664762Y-117682438D01*
X155664762Y-117682438D02*
X155807619Y-117634819D01*
X155807619Y-117634819D02*
X155902857Y-117634819D01*
X155902857Y-117634819D02*
X156045714Y-117682438D01*
X156045714Y-117682438D02*
X156093333Y-117730057D01*
X156426667Y-117634819D02*
X157093333Y-117634819D01*
X157093333Y-117634819D02*
X156664762Y-118634819D01*
X145367142Y-121094819D02*
X145033809Y-120618628D01*
X144795714Y-121094819D02*
X144795714Y-120094819D01*
X144795714Y-120094819D02*
X145176666Y-120094819D01*
X145176666Y-120094819D02*
X145271904Y-120142438D01*
X145271904Y-120142438D02*
X145319523Y-120190057D01*
X145319523Y-120190057D02*
X145367142Y-120285295D01*
X145367142Y-120285295D02*
X145367142Y-120428152D01*
X145367142Y-120428152D02*
X145319523Y-120523390D01*
X145319523Y-120523390D02*
X145271904Y-120571009D01*
X145271904Y-120571009D02*
X145176666Y-120618628D01*
X145176666Y-120618628D02*
X144795714Y-120618628D01*
X146319523Y-121094819D02*
X145748095Y-121094819D01*
X146033809Y-121094819D02*
X146033809Y-120094819D01*
X146033809Y-120094819D02*
X145938571Y-120237676D01*
X145938571Y-120237676D02*
X145843333Y-120332914D01*
X145843333Y-120332914D02*
X145748095Y-120380533D01*
X146700476Y-120190057D02*
X146748095Y-120142438D01*
X146748095Y-120142438D02*
X146843333Y-120094819D01*
X146843333Y-120094819D02*
X147081428Y-120094819D01*
X147081428Y-120094819D02*
X147176666Y-120142438D01*
X147176666Y-120142438D02*
X147224285Y-120190057D01*
X147224285Y-120190057D02*
X147271904Y-120285295D01*
X147271904Y-120285295D02*
X147271904Y-120380533D01*
X147271904Y-120380533D02*
X147224285Y-120523390D01*
X147224285Y-120523390D02*
X146652857Y-121094819D01*
X146652857Y-121094819D02*
X147271904Y-121094819D01*
X156187142Y-111914819D02*
X155853809Y-111438628D01*
X155615714Y-111914819D02*
X155615714Y-110914819D01*
X155615714Y-110914819D02*
X155996666Y-110914819D01*
X155996666Y-110914819D02*
X156091904Y-110962438D01*
X156091904Y-110962438D02*
X156139523Y-111010057D01*
X156139523Y-111010057D02*
X156187142Y-111105295D01*
X156187142Y-111105295D02*
X156187142Y-111248152D01*
X156187142Y-111248152D02*
X156139523Y-111343390D01*
X156139523Y-111343390D02*
X156091904Y-111391009D01*
X156091904Y-111391009D02*
X155996666Y-111438628D01*
X155996666Y-111438628D02*
X155615714Y-111438628D01*
X157139523Y-111914819D02*
X156568095Y-111914819D01*
X156853809Y-111914819D02*
X156853809Y-110914819D01*
X156853809Y-110914819D02*
X156758571Y-111057676D01*
X156758571Y-111057676D02*
X156663333Y-111152914D01*
X156663333Y-111152914D02*
X156568095Y-111200533D01*
X158044285Y-110914819D02*
X157568095Y-110914819D01*
X157568095Y-110914819D02*
X157520476Y-111391009D01*
X157520476Y-111391009D02*
X157568095Y-111343390D01*
X157568095Y-111343390D02*
X157663333Y-111295771D01*
X157663333Y-111295771D02*
X157901428Y-111295771D01*
X157901428Y-111295771D02*
X157996666Y-111343390D01*
X157996666Y-111343390D02*
X158044285Y-111391009D01*
X158044285Y-111391009D02*
X158091904Y-111486247D01*
X158091904Y-111486247D02*
X158091904Y-111724342D01*
X158091904Y-111724342D02*
X158044285Y-111819580D01*
X158044285Y-111819580D02*
X157996666Y-111867200D01*
X157996666Y-111867200D02*
X157901428Y-111914819D01*
X157901428Y-111914819D02*
X157663333Y-111914819D01*
X157663333Y-111914819D02*
X157568095Y-111867200D01*
X157568095Y-111867200D02*
X157520476Y-111819580D01*
X185436666Y-70884819D02*
X185436666Y-71599104D01*
X185436666Y-71599104D02*
X185389047Y-71741961D01*
X185389047Y-71741961D02*
X185293809Y-71837200D01*
X185293809Y-71837200D02*
X185150952Y-71884819D01*
X185150952Y-71884819D02*
X185055714Y-71884819D01*
X185865238Y-70980057D02*
X185912857Y-70932438D01*
X185912857Y-70932438D02*
X186008095Y-70884819D01*
X186008095Y-70884819D02*
X186246190Y-70884819D01*
X186246190Y-70884819D02*
X186341428Y-70932438D01*
X186341428Y-70932438D02*
X186389047Y-70980057D01*
X186389047Y-70980057D02*
X186436666Y-71075295D01*
X186436666Y-71075295D02*
X186436666Y-71170533D01*
X186436666Y-71170533D02*
X186389047Y-71313390D01*
X186389047Y-71313390D02*
X185817619Y-71884819D01*
X185817619Y-71884819D02*
X186436666Y-71884819D01*
X144518095Y-96156819D02*
X145089523Y-96156819D01*
X144803809Y-97156819D02*
X144803809Y-96156819D01*
X145422857Y-97156819D02*
X145422857Y-96156819D01*
X145422857Y-96156819D02*
X145803809Y-96156819D01*
X145803809Y-96156819D02*
X145899047Y-96204438D01*
X145899047Y-96204438D02*
X145946666Y-96252057D01*
X145946666Y-96252057D02*
X145994285Y-96347295D01*
X145994285Y-96347295D02*
X145994285Y-96490152D01*
X145994285Y-96490152D02*
X145946666Y-96585390D01*
X145946666Y-96585390D02*
X145899047Y-96633009D01*
X145899047Y-96633009D02*
X145803809Y-96680628D01*
X145803809Y-96680628D02*
X145422857Y-96680628D01*
X146946666Y-97156819D02*
X146375238Y-97156819D01*
X146660952Y-97156819D02*
X146660952Y-96156819D01*
X146660952Y-96156819D02*
X146565714Y-96299676D01*
X146565714Y-96299676D02*
X146470476Y-96394914D01*
X146470476Y-96394914D02*
X146375238Y-96442533D01*
X199467261Y-118525057D02*
X199372023Y-118477438D01*
X199372023Y-118477438D02*
X199276785Y-118382200D01*
X199276785Y-118382200D02*
X199133928Y-118239342D01*
X199133928Y-118239342D02*
X199038690Y-118191723D01*
X199038690Y-118191723D02*
X198943452Y-118191723D01*
X198991071Y-118429819D02*
X198895833Y-118382200D01*
X198895833Y-118382200D02*
X198800595Y-118286961D01*
X198800595Y-118286961D02*
X198752976Y-118096485D01*
X198752976Y-118096485D02*
X198752976Y-117763152D01*
X198752976Y-117763152D02*
X198800595Y-117572676D01*
X198800595Y-117572676D02*
X198895833Y-117477438D01*
X198895833Y-117477438D02*
X198991071Y-117429819D01*
X198991071Y-117429819D02*
X199181547Y-117429819D01*
X199181547Y-117429819D02*
X199276785Y-117477438D01*
X199276785Y-117477438D02*
X199372023Y-117572676D01*
X199372023Y-117572676D02*
X199419642Y-117763152D01*
X199419642Y-117763152D02*
X199419642Y-118096485D01*
X199419642Y-118096485D02*
X199372023Y-118286961D01*
X199372023Y-118286961D02*
X199276785Y-118382200D01*
X199276785Y-118382200D02*
X199181547Y-118429819D01*
X199181547Y-118429819D02*
X198991071Y-118429819D01*
X200324404Y-117429819D02*
X199848214Y-117429819D01*
X199848214Y-117429819D02*
X199800595Y-117906009D01*
X199800595Y-117906009D02*
X199848214Y-117858390D01*
X199848214Y-117858390D02*
X199943452Y-117810771D01*
X199943452Y-117810771D02*
X200181547Y-117810771D01*
X200181547Y-117810771D02*
X200276785Y-117858390D01*
X200276785Y-117858390D02*
X200324404Y-117906009D01*
X200324404Y-117906009D02*
X200372023Y-118001247D01*
X200372023Y-118001247D02*
X200372023Y-118239342D01*
X200372023Y-118239342D02*
X200324404Y-118334580D01*
X200324404Y-118334580D02*
X200276785Y-118382200D01*
X200276785Y-118382200D02*
X200181547Y-118429819D01*
X200181547Y-118429819D02*
X199943452Y-118429819D01*
X199943452Y-118429819D02*
X199848214Y-118382200D01*
X199848214Y-118382200D02*
X199800595Y-118334580D01*
X159333333Y-73304819D02*
X158857143Y-73304819D01*
X158857143Y-73304819D02*
X158857143Y-72304819D01*
X159571429Y-72304819D02*
X160190476Y-72304819D01*
X160190476Y-72304819D02*
X159857143Y-72685771D01*
X159857143Y-72685771D02*
X160000000Y-72685771D01*
X160000000Y-72685771D02*
X160095238Y-72733390D01*
X160095238Y-72733390D02*
X160142857Y-72781009D01*
X160142857Y-72781009D02*
X160190476Y-72876247D01*
X160190476Y-72876247D02*
X160190476Y-73114342D01*
X160190476Y-73114342D02*
X160142857Y-73209580D01*
X160142857Y-73209580D02*
X160095238Y-73257200D01*
X160095238Y-73257200D02*
X160000000Y-73304819D01*
X160000000Y-73304819D02*
X159714286Y-73304819D01*
X159714286Y-73304819D02*
X159619048Y-73257200D01*
X159619048Y-73257200D02*
X159571429Y-73209580D01*
X199467261Y-109275057D02*
X199372023Y-109227438D01*
X199372023Y-109227438D02*
X199276785Y-109132200D01*
X199276785Y-109132200D02*
X199133928Y-108989342D01*
X199133928Y-108989342D02*
X199038690Y-108941723D01*
X199038690Y-108941723D02*
X198943452Y-108941723D01*
X198991071Y-109179819D02*
X198895833Y-109132200D01*
X198895833Y-109132200D02*
X198800595Y-109036961D01*
X198800595Y-109036961D02*
X198752976Y-108846485D01*
X198752976Y-108846485D02*
X198752976Y-108513152D01*
X198752976Y-108513152D02*
X198800595Y-108322676D01*
X198800595Y-108322676D02*
X198895833Y-108227438D01*
X198895833Y-108227438D02*
X198991071Y-108179819D01*
X198991071Y-108179819D02*
X199181547Y-108179819D01*
X199181547Y-108179819D02*
X199276785Y-108227438D01*
X199276785Y-108227438D02*
X199372023Y-108322676D01*
X199372023Y-108322676D02*
X199419642Y-108513152D01*
X199419642Y-108513152D02*
X199419642Y-108846485D01*
X199419642Y-108846485D02*
X199372023Y-109036961D01*
X199372023Y-109036961D02*
X199276785Y-109132200D01*
X199276785Y-109132200D02*
X199181547Y-109179819D01*
X199181547Y-109179819D02*
X198991071Y-109179819D01*
X199752976Y-108179819D02*
X200372023Y-108179819D01*
X200372023Y-108179819D02*
X200038690Y-108560771D01*
X200038690Y-108560771D02*
X200181547Y-108560771D01*
X200181547Y-108560771D02*
X200276785Y-108608390D01*
X200276785Y-108608390D02*
X200324404Y-108656009D01*
X200324404Y-108656009D02*
X200372023Y-108751247D01*
X200372023Y-108751247D02*
X200372023Y-108989342D01*
X200372023Y-108989342D02*
X200324404Y-109084580D01*
X200324404Y-109084580D02*
X200276785Y-109132200D01*
X200276785Y-109132200D02*
X200181547Y-109179819D01*
X200181547Y-109179819D02*
X199895833Y-109179819D01*
X199895833Y-109179819D02*
X199800595Y-109132200D01*
X199800595Y-109132200D02*
X199752976Y-109084580D01*
X129954819Y-77333333D02*
X130669104Y-77333333D01*
X130669104Y-77333333D02*
X130811961Y-77380952D01*
X130811961Y-77380952D02*
X130907200Y-77476190D01*
X130907200Y-77476190D02*
X130954819Y-77619047D01*
X130954819Y-77619047D02*
X130954819Y-77714285D01*
X130954819Y-76333333D02*
X130954819Y-76904761D01*
X130954819Y-76619047D02*
X129954819Y-76619047D01*
X129954819Y-76619047D02*
X130097676Y-76714285D01*
X130097676Y-76714285D02*
X130192914Y-76809523D01*
X130192914Y-76809523D02*
X130240533Y-76904761D01*
X123658333Y-114024819D02*
X123325000Y-113548628D01*
X123086905Y-114024819D02*
X123086905Y-113024819D01*
X123086905Y-113024819D02*
X123467857Y-113024819D01*
X123467857Y-113024819D02*
X123563095Y-113072438D01*
X123563095Y-113072438D02*
X123610714Y-113120057D01*
X123610714Y-113120057D02*
X123658333Y-113215295D01*
X123658333Y-113215295D02*
X123658333Y-113358152D01*
X123658333Y-113358152D02*
X123610714Y-113453390D01*
X123610714Y-113453390D02*
X123563095Y-113501009D01*
X123563095Y-113501009D02*
X123467857Y-113548628D01*
X123467857Y-113548628D02*
X123086905Y-113548628D01*
X123991667Y-113024819D02*
X124658333Y-113024819D01*
X124658333Y-113024819D02*
X124229762Y-114024819D01*
X156187142Y-104384819D02*
X155853809Y-103908628D01*
X155615714Y-104384819D02*
X155615714Y-103384819D01*
X155615714Y-103384819D02*
X155996666Y-103384819D01*
X155996666Y-103384819D02*
X156091904Y-103432438D01*
X156091904Y-103432438D02*
X156139523Y-103480057D01*
X156139523Y-103480057D02*
X156187142Y-103575295D01*
X156187142Y-103575295D02*
X156187142Y-103718152D01*
X156187142Y-103718152D02*
X156139523Y-103813390D01*
X156139523Y-103813390D02*
X156091904Y-103861009D01*
X156091904Y-103861009D02*
X155996666Y-103908628D01*
X155996666Y-103908628D02*
X155615714Y-103908628D01*
X157139523Y-104384819D02*
X156568095Y-104384819D01*
X156853809Y-104384819D02*
X156853809Y-103384819D01*
X156853809Y-103384819D02*
X156758571Y-103527676D01*
X156758571Y-103527676D02*
X156663333Y-103622914D01*
X156663333Y-103622914D02*
X156568095Y-103670533D01*
X158091904Y-104384819D02*
X157520476Y-104384819D01*
X157806190Y-104384819D02*
X157806190Y-103384819D01*
X157806190Y-103384819D02*
X157710952Y-103527676D01*
X157710952Y-103527676D02*
X157615714Y-103622914D01*
X157615714Y-103622914D02*
X157520476Y-103670533D01*
X156187142Y-106894819D02*
X155853809Y-106418628D01*
X155615714Y-106894819D02*
X155615714Y-105894819D01*
X155615714Y-105894819D02*
X155996666Y-105894819D01*
X155996666Y-105894819D02*
X156091904Y-105942438D01*
X156091904Y-105942438D02*
X156139523Y-105990057D01*
X156139523Y-105990057D02*
X156187142Y-106085295D01*
X156187142Y-106085295D02*
X156187142Y-106228152D01*
X156187142Y-106228152D02*
X156139523Y-106323390D01*
X156139523Y-106323390D02*
X156091904Y-106371009D01*
X156091904Y-106371009D02*
X155996666Y-106418628D01*
X155996666Y-106418628D02*
X155615714Y-106418628D01*
X157139523Y-106894819D02*
X156568095Y-106894819D01*
X156853809Y-106894819D02*
X156853809Y-105894819D01*
X156853809Y-105894819D02*
X156758571Y-106037676D01*
X156758571Y-106037676D02*
X156663333Y-106132914D01*
X156663333Y-106132914D02*
X156568095Y-106180533D01*
X157472857Y-105894819D02*
X158091904Y-105894819D01*
X158091904Y-105894819D02*
X157758571Y-106275771D01*
X157758571Y-106275771D02*
X157901428Y-106275771D01*
X157901428Y-106275771D02*
X157996666Y-106323390D01*
X157996666Y-106323390D02*
X158044285Y-106371009D01*
X158044285Y-106371009D02*
X158091904Y-106466247D01*
X158091904Y-106466247D02*
X158091904Y-106704342D01*
X158091904Y-106704342D02*
X158044285Y-106799580D01*
X158044285Y-106799580D02*
X157996666Y-106847200D01*
X157996666Y-106847200D02*
X157901428Y-106894819D01*
X157901428Y-106894819D02*
X157615714Y-106894819D01*
X157615714Y-106894819D02*
X157520476Y-106847200D01*
X157520476Y-106847200D02*
X157472857Y-106799580D01*
X156187142Y-114424819D02*
X155853809Y-113948628D01*
X155615714Y-114424819D02*
X155615714Y-113424819D01*
X155615714Y-113424819D02*
X155996666Y-113424819D01*
X155996666Y-113424819D02*
X156091904Y-113472438D01*
X156091904Y-113472438D02*
X156139523Y-113520057D01*
X156139523Y-113520057D02*
X156187142Y-113615295D01*
X156187142Y-113615295D02*
X156187142Y-113758152D01*
X156187142Y-113758152D02*
X156139523Y-113853390D01*
X156139523Y-113853390D02*
X156091904Y-113901009D01*
X156091904Y-113901009D02*
X155996666Y-113948628D01*
X155996666Y-113948628D02*
X155615714Y-113948628D01*
X157139523Y-114424819D02*
X156568095Y-114424819D01*
X156853809Y-114424819D02*
X156853809Y-113424819D01*
X156853809Y-113424819D02*
X156758571Y-113567676D01*
X156758571Y-113567676D02*
X156663333Y-113662914D01*
X156663333Y-113662914D02*
X156568095Y-113710533D01*
X157472857Y-113424819D02*
X158139523Y-113424819D01*
X158139523Y-113424819D02*
X157710952Y-114424819D01*
X156663333Y-99269580D02*
X156615714Y-99317200D01*
X156615714Y-99317200D02*
X156472857Y-99364819D01*
X156472857Y-99364819D02*
X156377619Y-99364819D01*
X156377619Y-99364819D02*
X156234762Y-99317200D01*
X156234762Y-99317200D02*
X156139524Y-99221961D01*
X156139524Y-99221961D02*
X156091905Y-99126723D01*
X156091905Y-99126723D02*
X156044286Y-98936247D01*
X156044286Y-98936247D02*
X156044286Y-98793390D01*
X156044286Y-98793390D02*
X156091905Y-98602914D01*
X156091905Y-98602914D02*
X156139524Y-98507676D01*
X156139524Y-98507676D02*
X156234762Y-98412438D01*
X156234762Y-98412438D02*
X156377619Y-98364819D01*
X156377619Y-98364819D02*
X156472857Y-98364819D01*
X156472857Y-98364819D02*
X156615714Y-98412438D01*
X156615714Y-98412438D02*
X156663333Y-98460057D01*
X157568095Y-98364819D02*
X157091905Y-98364819D01*
X157091905Y-98364819D02*
X157044286Y-98841009D01*
X157044286Y-98841009D02*
X157091905Y-98793390D01*
X157091905Y-98793390D02*
X157187143Y-98745771D01*
X157187143Y-98745771D02*
X157425238Y-98745771D01*
X157425238Y-98745771D02*
X157520476Y-98793390D01*
X157520476Y-98793390D02*
X157568095Y-98841009D01*
X157568095Y-98841009D02*
X157615714Y-98936247D01*
X157615714Y-98936247D02*
X157615714Y-99174342D01*
X157615714Y-99174342D02*
X157568095Y-99269580D01*
X157568095Y-99269580D02*
X157520476Y-99317200D01*
X157520476Y-99317200D02*
X157425238Y-99364819D01*
X157425238Y-99364819D02*
X157187143Y-99364819D01*
X157187143Y-99364819D02*
X157091905Y-99317200D01*
X157091905Y-99317200D02*
X157044286Y-99269580D01*
X171096666Y-114084819D02*
X171096666Y-114799104D01*
X171096666Y-114799104D02*
X171049047Y-114941961D01*
X171049047Y-114941961D02*
X170953809Y-115037200D01*
X170953809Y-115037200D02*
X170810952Y-115084819D01*
X170810952Y-115084819D02*
X170715714Y-115084819D01*
X171477619Y-114084819D02*
X172096666Y-114084819D01*
X172096666Y-114084819D02*
X171763333Y-114465771D01*
X171763333Y-114465771D02*
X171906190Y-114465771D01*
X171906190Y-114465771D02*
X172001428Y-114513390D01*
X172001428Y-114513390D02*
X172049047Y-114561009D01*
X172049047Y-114561009D02*
X172096666Y-114656247D01*
X172096666Y-114656247D02*
X172096666Y-114894342D01*
X172096666Y-114894342D02*
X172049047Y-114989580D01*
X172049047Y-114989580D02*
X172001428Y-115037200D01*
X172001428Y-115037200D02*
X171906190Y-115084819D01*
X171906190Y-115084819D02*
X171620476Y-115084819D01*
X171620476Y-115084819D02*
X171525238Y-115037200D01*
X171525238Y-115037200D02*
X171477619Y-114989580D01*
X171857142Y-71509580D02*
X171809523Y-71557200D01*
X171809523Y-71557200D02*
X171666666Y-71604819D01*
X171666666Y-71604819D02*
X171571428Y-71604819D01*
X171571428Y-71604819D02*
X171428571Y-71557200D01*
X171428571Y-71557200D02*
X171333333Y-71461961D01*
X171333333Y-71461961D02*
X171285714Y-71366723D01*
X171285714Y-71366723D02*
X171238095Y-71176247D01*
X171238095Y-71176247D02*
X171238095Y-71033390D01*
X171238095Y-71033390D02*
X171285714Y-70842914D01*
X171285714Y-70842914D02*
X171333333Y-70747676D01*
X171333333Y-70747676D02*
X171428571Y-70652438D01*
X171428571Y-70652438D02*
X171571428Y-70604819D01*
X171571428Y-70604819D02*
X171666666Y-70604819D01*
X171666666Y-70604819D02*
X171809523Y-70652438D01*
X171809523Y-70652438D02*
X171857142Y-70700057D01*
X172809523Y-71604819D02*
X172238095Y-71604819D01*
X172523809Y-71604819D02*
X172523809Y-70604819D01*
X172523809Y-70604819D02*
X172428571Y-70747676D01*
X172428571Y-70747676D02*
X172333333Y-70842914D01*
X172333333Y-70842914D02*
X172238095Y-70890533D01*
X173190476Y-70700057D02*
X173238095Y-70652438D01*
X173238095Y-70652438D02*
X173333333Y-70604819D01*
X173333333Y-70604819D02*
X173571428Y-70604819D01*
X173571428Y-70604819D02*
X173666666Y-70652438D01*
X173666666Y-70652438D02*
X173714285Y-70700057D01*
X173714285Y-70700057D02*
X173761904Y-70795295D01*
X173761904Y-70795295D02*
X173761904Y-70890533D01*
X173761904Y-70890533D02*
X173714285Y-71033390D01*
X173714285Y-71033390D02*
X173142857Y-71604819D01*
X173142857Y-71604819D02*
X173761904Y-71604819D01*
X142467261Y-80650057D02*
X142372023Y-80602438D01*
X142372023Y-80602438D02*
X142276785Y-80507200D01*
X142276785Y-80507200D02*
X142133928Y-80364342D01*
X142133928Y-80364342D02*
X142038690Y-80316723D01*
X142038690Y-80316723D02*
X141943452Y-80316723D01*
X141991071Y-80554819D02*
X141895833Y-80507200D01*
X141895833Y-80507200D02*
X141800595Y-80411961D01*
X141800595Y-80411961D02*
X141752976Y-80221485D01*
X141752976Y-80221485D02*
X141752976Y-79888152D01*
X141752976Y-79888152D02*
X141800595Y-79697676D01*
X141800595Y-79697676D02*
X141895833Y-79602438D01*
X141895833Y-79602438D02*
X141991071Y-79554819D01*
X141991071Y-79554819D02*
X142181547Y-79554819D01*
X142181547Y-79554819D02*
X142276785Y-79602438D01*
X142276785Y-79602438D02*
X142372023Y-79697676D01*
X142372023Y-79697676D02*
X142419642Y-79888152D01*
X142419642Y-79888152D02*
X142419642Y-80221485D01*
X142419642Y-80221485D02*
X142372023Y-80411961D01*
X142372023Y-80411961D02*
X142276785Y-80507200D01*
X142276785Y-80507200D02*
X142181547Y-80554819D01*
X142181547Y-80554819D02*
X141991071Y-80554819D01*
X143372023Y-80554819D02*
X142800595Y-80554819D01*
X143086309Y-80554819D02*
X143086309Y-79554819D01*
X143086309Y-79554819D02*
X142991071Y-79697676D01*
X142991071Y-79697676D02*
X142895833Y-79792914D01*
X142895833Y-79792914D02*
X142800595Y-79840533D01*
X203845833Y-109004819D02*
X203512500Y-108528628D01*
X203274405Y-109004819D02*
X203274405Y-108004819D01*
X203274405Y-108004819D02*
X203655357Y-108004819D01*
X203655357Y-108004819D02*
X203750595Y-108052438D01*
X203750595Y-108052438D02*
X203798214Y-108100057D01*
X203798214Y-108100057D02*
X203845833Y-108195295D01*
X203845833Y-108195295D02*
X203845833Y-108338152D01*
X203845833Y-108338152D02*
X203798214Y-108433390D01*
X203798214Y-108433390D02*
X203750595Y-108481009D01*
X203750595Y-108481009D02*
X203655357Y-108528628D01*
X203655357Y-108528628D02*
X203274405Y-108528628D01*
X204750595Y-108004819D02*
X204274405Y-108004819D01*
X204274405Y-108004819D02*
X204226786Y-108481009D01*
X204226786Y-108481009D02*
X204274405Y-108433390D01*
X204274405Y-108433390D02*
X204369643Y-108385771D01*
X204369643Y-108385771D02*
X204607738Y-108385771D01*
X204607738Y-108385771D02*
X204702976Y-108433390D01*
X204702976Y-108433390D02*
X204750595Y-108481009D01*
X204750595Y-108481009D02*
X204798214Y-108576247D01*
X204798214Y-108576247D02*
X204798214Y-108814342D01*
X204798214Y-108814342D02*
X204750595Y-108909580D01*
X204750595Y-108909580D02*
X204702976Y-108957200D01*
X204702976Y-108957200D02*
X204607738Y-109004819D01*
X204607738Y-109004819D02*
X204369643Y-109004819D01*
X204369643Y-109004819D02*
X204274405Y-108957200D01*
X204274405Y-108957200D02*
X204226786Y-108909580D01*
X126438095Y-106254819D02*
X126438095Y-107064342D01*
X126438095Y-107064342D02*
X126485714Y-107159580D01*
X126485714Y-107159580D02*
X126533333Y-107207200D01*
X126533333Y-107207200D02*
X126628571Y-107254819D01*
X126628571Y-107254819D02*
X126819047Y-107254819D01*
X126819047Y-107254819D02*
X126914285Y-107207200D01*
X126914285Y-107207200D02*
X126961904Y-107159580D01*
X126961904Y-107159580D02*
X127009523Y-107064342D01*
X127009523Y-107064342D02*
X127009523Y-106254819D01*
X127961904Y-106254819D02*
X127485714Y-106254819D01*
X127485714Y-106254819D02*
X127438095Y-106731009D01*
X127438095Y-106731009D02*
X127485714Y-106683390D01*
X127485714Y-106683390D02*
X127580952Y-106635771D01*
X127580952Y-106635771D02*
X127819047Y-106635771D01*
X127819047Y-106635771D02*
X127914285Y-106683390D01*
X127914285Y-106683390D02*
X127961904Y-106731009D01*
X127961904Y-106731009D02*
X128009523Y-106826247D01*
X128009523Y-106826247D02*
X128009523Y-107064342D01*
X128009523Y-107064342D02*
X127961904Y-107159580D01*
X127961904Y-107159580D02*
X127914285Y-107207200D01*
X127914285Y-107207200D02*
X127819047Y-107254819D01*
X127819047Y-107254819D02*
X127580952Y-107254819D01*
X127580952Y-107254819D02*
X127485714Y-107207200D01*
X127485714Y-107207200D02*
X127438095Y-107159580D01*
X203369642Y-114024819D02*
X203036309Y-113548628D01*
X202798214Y-114024819D02*
X202798214Y-113024819D01*
X202798214Y-113024819D02*
X203179166Y-113024819D01*
X203179166Y-113024819D02*
X203274404Y-113072438D01*
X203274404Y-113072438D02*
X203322023Y-113120057D01*
X203322023Y-113120057D02*
X203369642Y-113215295D01*
X203369642Y-113215295D02*
X203369642Y-113358152D01*
X203369642Y-113358152D02*
X203322023Y-113453390D01*
X203322023Y-113453390D02*
X203274404Y-113501009D01*
X203274404Y-113501009D02*
X203179166Y-113548628D01*
X203179166Y-113548628D02*
X202798214Y-113548628D01*
X204322023Y-114024819D02*
X203750595Y-114024819D01*
X204036309Y-114024819D02*
X204036309Y-113024819D01*
X204036309Y-113024819D02*
X203941071Y-113167676D01*
X203941071Y-113167676D02*
X203845833Y-113262914D01*
X203845833Y-113262914D02*
X203750595Y-113310533D01*
X204941071Y-113024819D02*
X205036309Y-113024819D01*
X205036309Y-113024819D02*
X205131547Y-113072438D01*
X205131547Y-113072438D02*
X205179166Y-113120057D01*
X205179166Y-113120057D02*
X205226785Y-113215295D01*
X205226785Y-113215295D02*
X205274404Y-113405771D01*
X205274404Y-113405771D02*
X205274404Y-113643866D01*
X205274404Y-113643866D02*
X205226785Y-113834342D01*
X205226785Y-113834342D02*
X205179166Y-113929580D01*
X205179166Y-113929580D02*
X205131547Y-113977200D01*
X205131547Y-113977200D02*
X205036309Y-114024819D01*
X205036309Y-114024819D02*
X204941071Y-114024819D01*
X204941071Y-114024819D02*
X204845833Y-113977200D01*
X204845833Y-113977200D02*
X204798214Y-113929580D01*
X204798214Y-113929580D02*
X204750595Y-113834342D01*
X204750595Y-113834342D02*
X204702976Y-113643866D01*
X204702976Y-113643866D02*
X204702976Y-113405771D01*
X204702976Y-113405771D02*
X204750595Y-113215295D01*
X204750595Y-113215295D02*
X204798214Y-113120057D01*
X204798214Y-113120057D02*
X204845833Y-113072438D01*
X204845833Y-113072438D02*
X204941071Y-113024819D01*
X156187142Y-109404819D02*
X155853809Y-108928628D01*
X155615714Y-109404819D02*
X155615714Y-108404819D01*
X155615714Y-108404819D02*
X155996666Y-108404819D01*
X155996666Y-108404819D02*
X156091904Y-108452438D01*
X156091904Y-108452438D02*
X156139523Y-108500057D01*
X156139523Y-108500057D02*
X156187142Y-108595295D01*
X156187142Y-108595295D02*
X156187142Y-108738152D01*
X156187142Y-108738152D02*
X156139523Y-108833390D01*
X156139523Y-108833390D02*
X156091904Y-108881009D01*
X156091904Y-108881009D02*
X155996666Y-108928628D01*
X155996666Y-108928628D02*
X155615714Y-108928628D01*
X157139523Y-109404819D02*
X156568095Y-109404819D01*
X156853809Y-109404819D02*
X156853809Y-108404819D01*
X156853809Y-108404819D02*
X156758571Y-108547676D01*
X156758571Y-108547676D02*
X156663333Y-108642914D01*
X156663333Y-108642914D02*
X156568095Y-108690533D01*
X157996666Y-108738152D02*
X157996666Y-109404819D01*
X157758571Y-108357200D02*
X157520476Y-109071485D01*
X157520476Y-109071485D02*
X158139523Y-109071485D01*
X172833333Y-101134819D02*
X172500000Y-100658628D01*
X172261905Y-101134819D02*
X172261905Y-100134819D01*
X172261905Y-100134819D02*
X172642857Y-100134819D01*
X172642857Y-100134819D02*
X172738095Y-100182438D01*
X172738095Y-100182438D02*
X172785714Y-100230057D01*
X172785714Y-100230057D02*
X172833333Y-100325295D01*
X172833333Y-100325295D02*
X172833333Y-100468152D01*
X172833333Y-100468152D02*
X172785714Y-100563390D01*
X172785714Y-100563390D02*
X172738095Y-100611009D01*
X172738095Y-100611009D02*
X172642857Y-100658628D01*
X172642857Y-100658628D02*
X172261905Y-100658628D01*
X173309524Y-101134819D02*
X173500000Y-101134819D01*
X173500000Y-101134819D02*
X173595238Y-101087200D01*
X173595238Y-101087200D02*
X173642857Y-101039580D01*
X173642857Y-101039580D02*
X173738095Y-100896723D01*
X173738095Y-100896723D02*
X173785714Y-100706247D01*
X173785714Y-100706247D02*
X173785714Y-100325295D01*
X173785714Y-100325295D02*
X173738095Y-100230057D01*
X173738095Y-100230057D02*
X173690476Y-100182438D01*
X173690476Y-100182438D02*
X173595238Y-100134819D01*
X173595238Y-100134819D02*
X173404762Y-100134819D01*
X173404762Y-100134819D02*
X173309524Y-100182438D01*
X173309524Y-100182438D02*
X173261905Y-100230057D01*
X173261905Y-100230057D02*
X173214286Y-100325295D01*
X173214286Y-100325295D02*
X173214286Y-100563390D01*
X173214286Y-100563390D02*
X173261905Y-100658628D01*
X173261905Y-100658628D02*
X173309524Y-100706247D01*
X173309524Y-100706247D02*
X173404762Y-100753866D01*
X173404762Y-100753866D02*
X173595238Y-100753866D01*
X173595238Y-100753866D02*
X173690476Y-100706247D01*
X173690476Y-100706247D02*
X173738095Y-100658628D01*
X173738095Y-100658628D02*
X173785714Y-100563390D01*
X150654819Y-76361904D02*
X151464342Y-76361904D01*
X151464342Y-76361904D02*
X151559580Y-76314285D01*
X151559580Y-76314285D02*
X151607200Y-76266666D01*
X151607200Y-76266666D02*
X151654819Y-76171428D01*
X151654819Y-76171428D02*
X151654819Y-75980952D01*
X151654819Y-75980952D02*
X151607200Y-75885714D01*
X151607200Y-75885714D02*
X151559580Y-75838095D01*
X151559580Y-75838095D02*
X151464342Y-75790476D01*
X151464342Y-75790476D02*
X150654819Y-75790476D01*
X150750057Y-75361904D02*
X150702438Y-75314285D01*
X150702438Y-75314285D02*
X150654819Y-75219047D01*
X150654819Y-75219047D02*
X150654819Y-74980952D01*
X150654819Y-74980952D02*
X150702438Y-74885714D01*
X150702438Y-74885714D02*
X150750057Y-74838095D01*
X150750057Y-74838095D02*
X150845295Y-74790476D01*
X150845295Y-74790476D02*
X150940533Y-74790476D01*
X150940533Y-74790476D02*
X151083390Y-74838095D01*
X151083390Y-74838095D02*
X151654819Y-75409523D01*
X151654819Y-75409523D02*
X151654819Y-74790476D01*
X147591905Y-106806819D02*
X148163333Y-106806819D01*
X147877619Y-107806819D02*
X147877619Y-106806819D01*
X148496667Y-107806819D02*
X148496667Y-106806819D01*
X148496667Y-106806819D02*
X148877619Y-106806819D01*
X148877619Y-106806819D02*
X148972857Y-106854438D01*
X148972857Y-106854438D02*
X149020476Y-106902057D01*
X149020476Y-106902057D02*
X149068095Y-106997295D01*
X149068095Y-106997295D02*
X149068095Y-107140152D01*
X149068095Y-107140152D02*
X149020476Y-107235390D01*
X149020476Y-107235390D02*
X148972857Y-107283009D01*
X148972857Y-107283009D02*
X148877619Y-107330628D01*
X148877619Y-107330628D02*
X148496667Y-107330628D01*
X150020476Y-107806819D02*
X149449048Y-107806819D01*
X149734762Y-107806819D02*
X149734762Y-106806819D01*
X149734762Y-106806819D02*
X149639524Y-106949676D01*
X149639524Y-106949676D02*
X149544286Y-107044914D01*
X149544286Y-107044914D02*
X149449048Y-107092533D01*
X150639524Y-106806819D02*
X150734762Y-106806819D01*
X150734762Y-106806819D02*
X150830000Y-106854438D01*
X150830000Y-106854438D02*
X150877619Y-106902057D01*
X150877619Y-106902057D02*
X150925238Y-106997295D01*
X150925238Y-106997295D02*
X150972857Y-107187771D01*
X150972857Y-107187771D02*
X150972857Y-107425866D01*
X150972857Y-107425866D02*
X150925238Y-107616342D01*
X150925238Y-107616342D02*
X150877619Y-107711580D01*
X150877619Y-107711580D02*
X150830000Y-107759200D01*
X150830000Y-107759200D02*
X150734762Y-107806819D01*
X150734762Y-107806819D02*
X150639524Y-107806819D01*
X150639524Y-107806819D02*
X150544286Y-107759200D01*
X150544286Y-107759200D02*
X150496667Y-107711580D01*
X150496667Y-107711580D02*
X150449048Y-107616342D01*
X150449048Y-107616342D02*
X150401429Y-107425866D01*
X150401429Y-107425866D02*
X150401429Y-107187771D01*
X150401429Y-107187771D02*
X150449048Y-106997295D01*
X150449048Y-106997295D02*
X150496667Y-106902057D01*
X150496667Y-106902057D02*
X150544286Y-106854438D01*
X150544286Y-106854438D02*
X150639524Y-106806819D01*
X145843333Y-116074819D02*
X145510000Y-115598628D01*
X145271905Y-116074819D02*
X145271905Y-115074819D01*
X145271905Y-115074819D02*
X145652857Y-115074819D01*
X145652857Y-115074819D02*
X145748095Y-115122438D01*
X145748095Y-115122438D02*
X145795714Y-115170057D01*
X145795714Y-115170057D02*
X145843333Y-115265295D01*
X145843333Y-115265295D02*
X145843333Y-115408152D01*
X145843333Y-115408152D02*
X145795714Y-115503390D01*
X145795714Y-115503390D02*
X145748095Y-115551009D01*
X145748095Y-115551009D02*
X145652857Y-115598628D01*
X145652857Y-115598628D02*
X145271905Y-115598628D01*
X146700476Y-115408152D02*
X146700476Y-116074819D01*
X146462381Y-115027200D02*
X146224286Y-115741485D01*
X146224286Y-115741485D02*
X146843333Y-115741485D01*
X151141905Y-103256819D02*
X151713333Y-103256819D01*
X151427619Y-104256819D02*
X151427619Y-103256819D01*
X152046667Y-104256819D02*
X152046667Y-103256819D01*
X152046667Y-103256819D02*
X152427619Y-103256819D01*
X152427619Y-103256819D02*
X152522857Y-103304438D01*
X152522857Y-103304438D02*
X152570476Y-103352057D01*
X152570476Y-103352057D02*
X152618095Y-103447295D01*
X152618095Y-103447295D02*
X152618095Y-103590152D01*
X152618095Y-103590152D02*
X152570476Y-103685390D01*
X152570476Y-103685390D02*
X152522857Y-103733009D01*
X152522857Y-103733009D02*
X152427619Y-103780628D01*
X152427619Y-103780628D02*
X152046667Y-103780628D01*
X153570476Y-104256819D02*
X152999048Y-104256819D01*
X153284762Y-104256819D02*
X153284762Y-103256819D01*
X153284762Y-103256819D02*
X153189524Y-103399676D01*
X153189524Y-103399676D02*
X153094286Y-103494914D01*
X153094286Y-103494914D02*
X152999048Y-103542533D01*
X154427619Y-103590152D02*
X154427619Y-104256819D01*
X154189524Y-103209200D02*
X153951429Y-103923485D01*
X153951429Y-103923485D02*
X154570476Y-103923485D01*
X173476666Y-89824819D02*
X173476666Y-90539104D01*
X173476666Y-90539104D02*
X173429047Y-90681961D01*
X173429047Y-90681961D02*
X173333809Y-90777200D01*
X173333809Y-90777200D02*
X173190952Y-90824819D01*
X173190952Y-90824819D02*
X173095714Y-90824819D01*
X173952857Y-90824819D02*
X173952857Y-89824819D01*
X173952857Y-89824819D02*
X174333809Y-89824819D01*
X174333809Y-89824819D02*
X174429047Y-89872438D01*
X174429047Y-89872438D02*
X174476666Y-89920057D01*
X174476666Y-89920057D02*
X174524285Y-90015295D01*
X174524285Y-90015295D02*
X174524285Y-90158152D01*
X174524285Y-90158152D02*
X174476666Y-90253390D01*
X174476666Y-90253390D02*
X174429047Y-90301009D01*
X174429047Y-90301009D02*
X174333809Y-90348628D01*
X174333809Y-90348628D02*
X173952857Y-90348628D01*
X174905238Y-89920057D02*
X174952857Y-89872438D01*
X174952857Y-89872438D02*
X175048095Y-89824819D01*
X175048095Y-89824819D02*
X175286190Y-89824819D01*
X175286190Y-89824819D02*
X175381428Y-89872438D01*
X175381428Y-89872438D02*
X175429047Y-89920057D01*
X175429047Y-89920057D02*
X175476666Y-90015295D01*
X175476666Y-90015295D02*
X175476666Y-90110533D01*
X175476666Y-90110533D02*
X175429047Y-90253390D01*
X175429047Y-90253390D02*
X174857619Y-90824819D01*
X174857619Y-90824819D02*
X175476666Y-90824819D01*
X119342261Y-113100057D02*
X119247023Y-113052438D01*
X119247023Y-113052438D02*
X119151785Y-112957200D01*
X119151785Y-112957200D02*
X119008928Y-112814342D01*
X119008928Y-112814342D02*
X118913690Y-112766723D01*
X118913690Y-112766723D02*
X118818452Y-112766723D01*
X118866071Y-113004819D02*
X118770833Y-112957200D01*
X118770833Y-112957200D02*
X118675595Y-112861961D01*
X118675595Y-112861961D02*
X118627976Y-112671485D01*
X118627976Y-112671485D02*
X118627976Y-112338152D01*
X118627976Y-112338152D02*
X118675595Y-112147676D01*
X118675595Y-112147676D02*
X118770833Y-112052438D01*
X118770833Y-112052438D02*
X118866071Y-112004819D01*
X118866071Y-112004819D02*
X119056547Y-112004819D01*
X119056547Y-112004819D02*
X119151785Y-112052438D01*
X119151785Y-112052438D02*
X119247023Y-112147676D01*
X119247023Y-112147676D02*
X119294642Y-112338152D01*
X119294642Y-112338152D02*
X119294642Y-112671485D01*
X119294642Y-112671485D02*
X119247023Y-112861961D01*
X119247023Y-112861961D02*
X119151785Y-112957200D01*
X119151785Y-112957200D02*
X119056547Y-113004819D01*
X119056547Y-113004819D02*
X118866071Y-113004819D01*
X119675595Y-112100057D02*
X119723214Y-112052438D01*
X119723214Y-112052438D02*
X119818452Y-112004819D01*
X119818452Y-112004819D02*
X120056547Y-112004819D01*
X120056547Y-112004819D02*
X120151785Y-112052438D01*
X120151785Y-112052438D02*
X120199404Y-112100057D01*
X120199404Y-112100057D02*
X120247023Y-112195295D01*
X120247023Y-112195295D02*
X120247023Y-112290533D01*
X120247023Y-112290533D02*
X120199404Y-112433390D01*
X120199404Y-112433390D02*
X119627976Y-113004819D01*
X119627976Y-113004819D02*
X120247023Y-113004819D01*
D11*
X129090200Y-92666667D02*
X129042580Y-92809524D01*
X129042580Y-92809524D02*
X129042580Y-93047619D01*
X129042580Y-93047619D02*
X129090200Y-93142857D01*
X129090200Y-93142857D02*
X129137819Y-93190476D01*
X129137819Y-93190476D02*
X129233057Y-93238095D01*
X129233057Y-93238095D02*
X129328295Y-93238095D01*
X129328295Y-93238095D02*
X129423533Y-93190476D01*
X129423533Y-93190476D02*
X129471152Y-93142857D01*
X129471152Y-93142857D02*
X129518771Y-93047619D01*
X129518771Y-93047619D02*
X129566390Y-92857143D01*
X129566390Y-92857143D02*
X129614009Y-92761905D01*
X129614009Y-92761905D02*
X129661628Y-92714286D01*
X129661628Y-92714286D02*
X129756866Y-92666667D01*
X129756866Y-92666667D02*
X129852104Y-92666667D01*
X129852104Y-92666667D02*
X129947342Y-92714286D01*
X129947342Y-92714286D02*
X129994961Y-92761905D01*
X129994961Y-92761905D02*
X130042580Y-92857143D01*
X130042580Y-92857143D02*
X130042580Y-93095238D01*
X130042580Y-93095238D02*
X129994961Y-93238095D01*
X130042580Y-93571429D02*
X129042580Y-93809524D01*
X129042580Y-93809524D02*
X129756866Y-94000000D01*
X129756866Y-94000000D02*
X129042580Y-94190476D01*
X129042580Y-94190476D02*
X130042580Y-94428572D01*
X129947342Y-94761905D02*
X129994961Y-94809524D01*
X129994961Y-94809524D02*
X130042580Y-94904762D01*
X130042580Y-94904762D02*
X130042580Y-95142857D01*
X130042580Y-95142857D02*
X129994961Y-95238095D01*
X129994961Y-95238095D02*
X129947342Y-95285714D01*
X129947342Y-95285714D02*
X129852104Y-95333333D01*
X129852104Y-95333333D02*
X129756866Y-95333333D01*
X129756866Y-95333333D02*
X129614009Y-95285714D01*
X129614009Y-95285714D02*
X129042580Y-94714286D01*
X129042580Y-94714286D02*
X129042580Y-95333333D01*
D10*
X151141905Y-96156819D02*
X151713333Y-96156819D01*
X151427619Y-97156819D02*
X151427619Y-96156819D01*
X152046667Y-97156819D02*
X152046667Y-96156819D01*
X152046667Y-96156819D02*
X152427619Y-96156819D01*
X152427619Y-96156819D02*
X152522857Y-96204438D01*
X152522857Y-96204438D02*
X152570476Y-96252057D01*
X152570476Y-96252057D02*
X152618095Y-96347295D01*
X152618095Y-96347295D02*
X152618095Y-96490152D01*
X152618095Y-96490152D02*
X152570476Y-96585390D01*
X152570476Y-96585390D02*
X152522857Y-96633009D01*
X152522857Y-96633009D02*
X152427619Y-96680628D01*
X152427619Y-96680628D02*
X152046667Y-96680628D01*
X153570476Y-97156819D02*
X152999048Y-97156819D01*
X153284762Y-97156819D02*
X153284762Y-96156819D01*
X153284762Y-96156819D02*
X153189524Y-96299676D01*
X153189524Y-96299676D02*
X153094286Y-96394914D01*
X153094286Y-96394914D02*
X152999048Y-96442533D01*
X154522857Y-97156819D02*
X153951429Y-97156819D01*
X154237143Y-97156819D02*
X154237143Y-96156819D01*
X154237143Y-96156819D02*
X154141905Y-96299676D01*
X154141905Y-96299676D02*
X154046667Y-96394914D01*
X154046667Y-96394914D02*
X153951429Y-96442533D01*
X199467261Y-123150057D02*
X199372023Y-123102438D01*
X199372023Y-123102438D02*
X199276785Y-123007200D01*
X199276785Y-123007200D02*
X199133928Y-122864342D01*
X199133928Y-122864342D02*
X199038690Y-122816723D01*
X199038690Y-122816723D02*
X198943452Y-122816723D01*
X198991071Y-123054819D02*
X198895833Y-123007200D01*
X198895833Y-123007200D02*
X198800595Y-122911961D01*
X198800595Y-122911961D02*
X198752976Y-122721485D01*
X198752976Y-122721485D02*
X198752976Y-122388152D01*
X198752976Y-122388152D02*
X198800595Y-122197676D01*
X198800595Y-122197676D02*
X198895833Y-122102438D01*
X198895833Y-122102438D02*
X198991071Y-122054819D01*
X198991071Y-122054819D02*
X199181547Y-122054819D01*
X199181547Y-122054819D02*
X199276785Y-122102438D01*
X199276785Y-122102438D02*
X199372023Y-122197676D01*
X199372023Y-122197676D02*
X199419642Y-122388152D01*
X199419642Y-122388152D02*
X199419642Y-122721485D01*
X199419642Y-122721485D02*
X199372023Y-122911961D01*
X199372023Y-122911961D02*
X199276785Y-123007200D01*
X199276785Y-123007200D02*
X199181547Y-123054819D01*
X199181547Y-123054819D02*
X198991071Y-123054819D01*
X200276785Y-122054819D02*
X200086309Y-122054819D01*
X200086309Y-122054819D02*
X199991071Y-122102438D01*
X199991071Y-122102438D02*
X199943452Y-122150057D01*
X199943452Y-122150057D02*
X199848214Y-122292914D01*
X199848214Y-122292914D02*
X199800595Y-122483390D01*
X199800595Y-122483390D02*
X199800595Y-122864342D01*
X199800595Y-122864342D02*
X199848214Y-122959580D01*
X199848214Y-122959580D02*
X199895833Y-123007200D01*
X199895833Y-123007200D02*
X199991071Y-123054819D01*
X199991071Y-123054819D02*
X200181547Y-123054819D01*
X200181547Y-123054819D02*
X200276785Y-123007200D01*
X200276785Y-123007200D02*
X200324404Y-122959580D01*
X200324404Y-122959580D02*
X200372023Y-122864342D01*
X200372023Y-122864342D02*
X200372023Y-122626247D01*
X200372023Y-122626247D02*
X200324404Y-122531009D01*
X200324404Y-122531009D02*
X200276785Y-122483390D01*
X200276785Y-122483390D02*
X200181547Y-122435771D01*
X200181547Y-122435771D02*
X199991071Y-122435771D01*
X199991071Y-122435771D02*
X199895833Y-122483390D01*
X199895833Y-122483390D02*
X199848214Y-122531009D01*
X199848214Y-122531009D02*
X199800595Y-122626247D01*
X148068095Y-103256819D02*
X148639523Y-103256819D01*
X148353809Y-104256819D02*
X148353809Y-103256819D01*
X148972857Y-104256819D02*
X148972857Y-103256819D01*
X148972857Y-103256819D02*
X149353809Y-103256819D01*
X149353809Y-103256819D02*
X149449047Y-103304438D01*
X149449047Y-103304438D02*
X149496666Y-103352057D01*
X149496666Y-103352057D02*
X149544285Y-103447295D01*
X149544285Y-103447295D02*
X149544285Y-103590152D01*
X149544285Y-103590152D02*
X149496666Y-103685390D01*
X149496666Y-103685390D02*
X149449047Y-103733009D01*
X149449047Y-103733009D02*
X149353809Y-103780628D01*
X149353809Y-103780628D02*
X148972857Y-103780628D01*
X150020476Y-104256819D02*
X150210952Y-104256819D01*
X150210952Y-104256819D02*
X150306190Y-104209200D01*
X150306190Y-104209200D02*
X150353809Y-104161580D01*
X150353809Y-104161580D02*
X150449047Y-104018723D01*
X150449047Y-104018723D02*
X150496666Y-103828247D01*
X150496666Y-103828247D02*
X150496666Y-103447295D01*
X150496666Y-103447295D02*
X150449047Y-103352057D01*
X150449047Y-103352057D02*
X150401428Y-103304438D01*
X150401428Y-103304438D02*
X150306190Y-103256819D01*
X150306190Y-103256819D02*
X150115714Y-103256819D01*
X150115714Y-103256819D02*
X150020476Y-103304438D01*
X150020476Y-103304438D02*
X149972857Y-103352057D01*
X149972857Y-103352057D02*
X149925238Y-103447295D01*
X149925238Y-103447295D02*
X149925238Y-103685390D01*
X149925238Y-103685390D02*
X149972857Y-103780628D01*
X149972857Y-103780628D02*
X150020476Y-103828247D01*
X150020476Y-103828247D02*
X150115714Y-103875866D01*
X150115714Y-103875866D02*
X150306190Y-103875866D01*
X150306190Y-103875866D02*
X150401428Y-103828247D01*
X150401428Y-103828247D02*
X150449047Y-103780628D01*
X150449047Y-103780628D02*
X150496666Y-103685390D01*
X144518095Y-99706819D02*
X145089523Y-99706819D01*
X144803809Y-100706819D02*
X144803809Y-99706819D01*
X145422857Y-100706819D02*
X145422857Y-99706819D01*
X145422857Y-99706819D02*
X145803809Y-99706819D01*
X145803809Y-99706819D02*
X145899047Y-99754438D01*
X145899047Y-99754438D02*
X145946666Y-99802057D01*
X145946666Y-99802057D02*
X145994285Y-99897295D01*
X145994285Y-99897295D02*
X145994285Y-100040152D01*
X145994285Y-100040152D02*
X145946666Y-100135390D01*
X145946666Y-100135390D02*
X145899047Y-100183009D01*
X145899047Y-100183009D02*
X145803809Y-100230628D01*
X145803809Y-100230628D02*
X145422857Y-100230628D01*
X146375238Y-99802057D02*
X146422857Y-99754438D01*
X146422857Y-99754438D02*
X146518095Y-99706819D01*
X146518095Y-99706819D02*
X146756190Y-99706819D01*
X146756190Y-99706819D02*
X146851428Y-99754438D01*
X146851428Y-99754438D02*
X146899047Y-99802057D01*
X146899047Y-99802057D02*
X146946666Y-99897295D01*
X146946666Y-99897295D02*
X146946666Y-99992533D01*
X146946666Y-99992533D02*
X146899047Y-100135390D01*
X146899047Y-100135390D02*
X146327619Y-100706819D01*
X146327619Y-100706819D02*
X146946666Y-100706819D01*
X177137142Y-118034819D02*
X176803809Y-117558628D01*
X176565714Y-118034819D02*
X176565714Y-117034819D01*
X176565714Y-117034819D02*
X176946666Y-117034819D01*
X176946666Y-117034819D02*
X177041904Y-117082438D01*
X177041904Y-117082438D02*
X177089523Y-117130057D01*
X177089523Y-117130057D02*
X177137142Y-117225295D01*
X177137142Y-117225295D02*
X177137142Y-117368152D01*
X177137142Y-117368152D02*
X177089523Y-117463390D01*
X177089523Y-117463390D02*
X177041904Y-117511009D01*
X177041904Y-117511009D02*
X176946666Y-117558628D01*
X176946666Y-117558628D02*
X176565714Y-117558628D01*
X178089523Y-118034819D02*
X177518095Y-118034819D01*
X177803809Y-118034819D02*
X177803809Y-117034819D01*
X177803809Y-117034819D02*
X177708571Y-117177676D01*
X177708571Y-117177676D02*
X177613333Y-117272914D01*
X177613333Y-117272914D02*
X177518095Y-117320533D01*
X178946666Y-117034819D02*
X178756190Y-117034819D01*
X178756190Y-117034819D02*
X178660952Y-117082438D01*
X178660952Y-117082438D02*
X178613333Y-117130057D01*
X178613333Y-117130057D02*
X178518095Y-117272914D01*
X178518095Y-117272914D02*
X178470476Y-117463390D01*
X178470476Y-117463390D02*
X178470476Y-117844342D01*
X178470476Y-117844342D02*
X178518095Y-117939580D01*
X178518095Y-117939580D02*
X178565714Y-117987200D01*
X178565714Y-117987200D02*
X178660952Y-118034819D01*
X178660952Y-118034819D02*
X178851428Y-118034819D01*
X178851428Y-118034819D02*
X178946666Y-117987200D01*
X178946666Y-117987200D02*
X178994285Y-117939580D01*
X178994285Y-117939580D02*
X179041904Y-117844342D01*
X179041904Y-117844342D02*
X179041904Y-117606247D01*
X179041904Y-117606247D02*
X178994285Y-117511009D01*
X178994285Y-117511009D02*
X178946666Y-117463390D01*
X178946666Y-117463390D02*
X178851428Y-117415771D01*
X178851428Y-117415771D02*
X178660952Y-117415771D01*
X178660952Y-117415771D02*
X178565714Y-117463390D01*
X178565714Y-117463390D02*
X178518095Y-117511009D01*
X178518095Y-117511009D02*
X178470476Y-117606247D01*
X164763095Y-97959819D02*
X164763095Y-98769342D01*
X164763095Y-98769342D02*
X164810714Y-98864580D01*
X164810714Y-98864580D02*
X164858333Y-98912200D01*
X164858333Y-98912200D02*
X164953571Y-98959819D01*
X164953571Y-98959819D02*
X165144047Y-98959819D01*
X165144047Y-98959819D02*
X165239285Y-98912200D01*
X165239285Y-98912200D02*
X165286904Y-98864580D01*
X165286904Y-98864580D02*
X165334523Y-98769342D01*
X165334523Y-98769342D02*
X165334523Y-97959819D01*
X165715476Y-97959819D02*
X166334523Y-97959819D01*
X166334523Y-97959819D02*
X166001190Y-98340771D01*
X166001190Y-98340771D02*
X166144047Y-98340771D01*
X166144047Y-98340771D02*
X166239285Y-98388390D01*
X166239285Y-98388390D02*
X166286904Y-98436009D01*
X166286904Y-98436009D02*
X166334523Y-98531247D01*
X166334523Y-98531247D02*
X166334523Y-98769342D01*
X166334523Y-98769342D02*
X166286904Y-98864580D01*
X166286904Y-98864580D02*
X166239285Y-98912200D01*
X166239285Y-98912200D02*
X166144047Y-98959819D01*
X166144047Y-98959819D02*
X165858333Y-98959819D01*
X165858333Y-98959819D02*
X165763095Y-98912200D01*
X165763095Y-98912200D02*
X165715476Y-98864580D01*
X173476666Y-86474819D02*
X173476666Y-87189104D01*
X173476666Y-87189104D02*
X173429047Y-87331961D01*
X173429047Y-87331961D02*
X173333809Y-87427200D01*
X173333809Y-87427200D02*
X173190952Y-87474819D01*
X173190952Y-87474819D02*
X173095714Y-87474819D01*
X173952857Y-87474819D02*
X173952857Y-86474819D01*
X173952857Y-86474819D02*
X174333809Y-86474819D01*
X174333809Y-86474819D02*
X174429047Y-86522438D01*
X174429047Y-86522438D02*
X174476666Y-86570057D01*
X174476666Y-86570057D02*
X174524285Y-86665295D01*
X174524285Y-86665295D02*
X174524285Y-86808152D01*
X174524285Y-86808152D02*
X174476666Y-86903390D01*
X174476666Y-86903390D02*
X174429047Y-86951009D01*
X174429047Y-86951009D02*
X174333809Y-86998628D01*
X174333809Y-86998628D02*
X173952857Y-86998628D01*
X175476666Y-87474819D02*
X174905238Y-87474819D01*
X175190952Y-87474819D02*
X175190952Y-86474819D01*
X175190952Y-86474819D02*
X175095714Y-86617676D01*
X175095714Y-86617676D02*
X175000476Y-86712914D01*
X175000476Y-86712914D02*
X174905238Y-86760533D01*
X156093333Y-116839580D02*
X156045714Y-116887200D01*
X156045714Y-116887200D02*
X155902857Y-116934819D01*
X155902857Y-116934819D02*
X155807619Y-116934819D01*
X155807619Y-116934819D02*
X155664762Y-116887200D01*
X155664762Y-116887200D02*
X155569524Y-116791961D01*
X155569524Y-116791961D02*
X155521905Y-116696723D01*
X155521905Y-116696723D02*
X155474286Y-116506247D01*
X155474286Y-116506247D02*
X155474286Y-116363390D01*
X155474286Y-116363390D02*
X155521905Y-116172914D01*
X155521905Y-116172914D02*
X155569524Y-116077676D01*
X155569524Y-116077676D02*
X155664762Y-115982438D01*
X155664762Y-115982438D02*
X155807619Y-115934819D01*
X155807619Y-115934819D02*
X155902857Y-115934819D01*
X155902857Y-115934819D02*
X156045714Y-115982438D01*
X156045714Y-115982438D02*
X156093333Y-116030057D01*
X157045714Y-116934819D02*
X156474286Y-116934819D01*
X156760000Y-116934819D02*
X156760000Y-115934819D01*
X156760000Y-115934819D02*
X156664762Y-116077676D01*
X156664762Y-116077676D02*
X156569524Y-116172914D01*
X156569524Y-116172914D02*
X156474286Y-116220533D01*
X156093333Y-120779580D02*
X156045714Y-120827200D01*
X156045714Y-120827200D02*
X155902857Y-120874819D01*
X155902857Y-120874819D02*
X155807619Y-120874819D01*
X155807619Y-120874819D02*
X155664762Y-120827200D01*
X155664762Y-120827200D02*
X155569524Y-120731961D01*
X155569524Y-120731961D02*
X155521905Y-120636723D01*
X155521905Y-120636723D02*
X155474286Y-120446247D01*
X155474286Y-120446247D02*
X155474286Y-120303390D01*
X155474286Y-120303390D02*
X155521905Y-120112914D01*
X155521905Y-120112914D02*
X155569524Y-120017676D01*
X155569524Y-120017676D02*
X155664762Y-119922438D01*
X155664762Y-119922438D02*
X155807619Y-119874819D01*
X155807619Y-119874819D02*
X155902857Y-119874819D01*
X155902857Y-119874819D02*
X156045714Y-119922438D01*
X156045714Y-119922438D02*
X156093333Y-119970057D01*
X156569524Y-120874819D02*
X156760000Y-120874819D01*
X156760000Y-120874819D02*
X156855238Y-120827200D01*
X156855238Y-120827200D02*
X156902857Y-120779580D01*
X156902857Y-120779580D02*
X156998095Y-120636723D01*
X156998095Y-120636723D02*
X157045714Y-120446247D01*
X157045714Y-120446247D02*
X157045714Y-120065295D01*
X157045714Y-120065295D02*
X156998095Y-119970057D01*
X156998095Y-119970057D02*
X156950476Y-119922438D01*
X156950476Y-119922438D02*
X156855238Y-119874819D01*
X156855238Y-119874819D02*
X156664762Y-119874819D01*
X156664762Y-119874819D02*
X156569524Y-119922438D01*
X156569524Y-119922438D02*
X156521905Y-119970057D01*
X156521905Y-119970057D02*
X156474286Y-120065295D01*
X156474286Y-120065295D02*
X156474286Y-120303390D01*
X156474286Y-120303390D02*
X156521905Y-120398628D01*
X156521905Y-120398628D02*
X156569524Y-120446247D01*
X156569524Y-120446247D02*
X156664762Y-120493866D01*
X156664762Y-120493866D02*
X156855238Y-120493866D01*
X156855238Y-120493866D02*
X156950476Y-120446247D01*
X156950476Y-120446247D02*
X156998095Y-120398628D01*
X156998095Y-120398628D02*
X157045714Y-120303390D01*
X145843333Y-111054819D02*
X145510000Y-110578628D01*
X145271905Y-111054819D02*
X145271905Y-110054819D01*
X145271905Y-110054819D02*
X145652857Y-110054819D01*
X145652857Y-110054819D02*
X145748095Y-110102438D01*
X145748095Y-110102438D02*
X145795714Y-110150057D01*
X145795714Y-110150057D02*
X145843333Y-110245295D01*
X145843333Y-110245295D02*
X145843333Y-110388152D01*
X145843333Y-110388152D02*
X145795714Y-110483390D01*
X145795714Y-110483390D02*
X145748095Y-110531009D01*
X145748095Y-110531009D02*
X145652857Y-110578628D01*
X145652857Y-110578628D02*
X145271905Y-110578628D01*
X146795714Y-111054819D02*
X146224286Y-111054819D01*
X146510000Y-111054819D02*
X146510000Y-110054819D01*
X146510000Y-110054819D02*
X146414762Y-110197676D01*
X146414762Y-110197676D02*
X146319524Y-110292914D01*
X146319524Y-110292914D02*
X146224286Y-110340533D01*
X177613333Y-115084819D02*
X177280000Y-114608628D01*
X177041905Y-115084819D02*
X177041905Y-114084819D01*
X177041905Y-114084819D02*
X177422857Y-114084819D01*
X177422857Y-114084819D02*
X177518095Y-114132438D01*
X177518095Y-114132438D02*
X177565714Y-114180057D01*
X177565714Y-114180057D02*
X177613333Y-114275295D01*
X177613333Y-114275295D02*
X177613333Y-114418152D01*
X177613333Y-114418152D02*
X177565714Y-114513390D01*
X177565714Y-114513390D02*
X177518095Y-114561009D01*
X177518095Y-114561009D02*
X177422857Y-114608628D01*
X177422857Y-114608628D02*
X177041905Y-114608628D01*
X178184762Y-114513390D02*
X178089524Y-114465771D01*
X178089524Y-114465771D02*
X178041905Y-114418152D01*
X178041905Y-114418152D02*
X177994286Y-114322914D01*
X177994286Y-114322914D02*
X177994286Y-114275295D01*
X177994286Y-114275295D02*
X178041905Y-114180057D01*
X178041905Y-114180057D02*
X178089524Y-114132438D01*
X178089524Y-114132438D02*
X178184762Y-114084819D01*
X178184762Y-114084819D02*
X178375238Y-114084819D01*
X178375238Y-114084819D02*
X178470476Y-114132438D01*
X178470476Y-114132438D02*
X178518095Y-114180057D01*
X178518095Y-114180057D02*
X178565714Y-114275295D01*
X178565714Y-114275295D02*
X178565714Y-114322914D01*
X178565714Y-114322914D02*
X178518095Y-114418152D01*
X178518095Y-114418152D02*
X178470476Y-114465771D01*
X178470476Y-114465771D02*
X178375238Y-114513390D01*
X178375238Y-114513390D02*
X178184762Y-114513390D01*
X178184762Y-114513390D02*
X178089524Y-114561009D01*
X178089524Y-114561009D02*
X178041905Y-114608628D01*
X178041905Y-114608628D02*
X177994286Y-114703866D01*
X177994286Y-114703866D02*
X177994286Y-114894342D01*
X177994286Y-114894342D02*
X178041905Y-114989580D01*
X178041905Y-114989580D02*
X178089524Y-115037200D01*
X178089524Y-115037200D02*
X178184762Y-115084819D01*
X178184762Y-115084819D02*
X178375238Y-115084819D01*
X178375238Y-115084819D02*
X178470476Y-115037200D01*
X178470476Y-115037200D02*
X178518095Y-114989580D01*
X178518095Y-114989580D02*
X178565714Y-114894342D01*
X178565714Y-114894342D02*
X178565714Y-114703866D01*
X178565714Y-114703866D02*
X178518095Y-114608628D01*
X178518095Y-114608628D02*
X178470476Y-114561009D01*
X178470476Y-114561009D02*
X178375238Y-114513390D01*
X151954819Y-86238094D02*
X150954819Y-86238094D01*
X150954819Y-86238094D02*
X150954819Y-85999999D01*
X150954819Y-85999999D02*
X151002438Y-85857142D01*
X151002438Y-85857142D02*
X151097676Y-85761904D01*
X151097676Y-85761904D02*
X151192914Y-85714285D01*
X151192914Y-85714285D02*
X151383390Y-85666666D01*
X151383390Y-85666666D02*
X151526247Y-85666666D01*
X151526247Y-85666666D02*
X151716723Y-85714285D01*
X151716723Y-85714285D02*
X151811961Y-85761904D01*
X151811961Y-85761904D02*
X151907200Y-85857142D01*
X151907200Y-85857142D02*
X151954819Y-85999999D01*
X151954819Y-85999999D02*
X151954819Y-86238094D01*
X150954819Y-84761904D02*
X150954819Y-85238094D01*
X150954819Y-85238094D02*
X151431009Y-85285713D01*
X151431009Y-85285713D02*
X151383390Y-85238094D01*
X151383390Y-85238094D02*
X151335771Y-85142856D01*
X151335771Y-85142856D02*
X151335771Y-84904761D01*
X151335771Y-84904761D02*
X151383390Y-84809523D01*
X151383390Y-84809523D02*
X151431009Y-84761904D01*
X151431009Y-84761904D02*
X151526247Y-84714285D01*
X151526247Y-84714285D02*
X151764342Y-84714285D01*
X151764342Y-84714285D02*
X151859580Y-84761904D01*
X151859580Y-84761904D02*
X151907200Y-84809523D01*
X151907200Y-84809523D02*
X151954819Y-84904761D01*
X151954819Y-84904761D02*
X151954819Y-85142856D01*
X151954819Y-85142856D02*
X151907200Y-85238094D01*
X151907200Y-85238094D02*
X151859580Y-85285713D01*
X144518095Y-103256819D02*
X145089523Y-103256819D01*
X144803809Y-104256819D02*
X144803809Y-103256819D01*
X145422857Y-104256819D02*
X145422857Y-103256819D01*
X145422857Y-103256819D02*
X145803809Y-103256819D01*
X145803809Y-103256819D02*
X145899047Y-103304438D01*
X145899047Y-103304438D02*
X145946666Y-103352057D01*
X145946666Y-103352057D02*
X145994285Y-103447295D01*
X145994285Y-103447295D02*
X145994285Y-103590152D01*
X145994285Y-103590152D02*
X145946666Y-103685390D01*
X145946666Y-103685390D02*
X145899047Y-103733009D01*
X145899047Y-103733009D02*
X145803809Y-103780628D01*
X145803809Y-103780628D02*
X145422857Y-103780628D01*
X146851428Y-103590152D02*
X146851428Y-104256819D01*
X146613333Y-103209200D02*
X146375238Y-103923485D01*
X146375238Y-103923485D02*
X146994285Y-103923485D01*
X176886905Y-121024819D02*
X176886905Y-120024819D01*
X176886905Y-120024819D02*
X177125000Y-120024819D01*
X177125000Y-120024819D02*
X177267857Y-120072438D01*
X177267857Y-120072438D02*
X177363095Y-120167676D01*
X177363095Y-120167676D02*
X177410714Y-120262914D01*
X177410714Y-120262914D02*
X177458333Y-120453390D01*
X177458333Y-120453390D02*
X177458333Y-120596247D01*
X177458333Y-120596247D02*
X177410714Y-120786723D01*
X177410714Y-120786723D02*
X177363095Y-120881961D01*
X177363095Y-120881961D02*
X177267857Y-120977200D01*
X177267857Y-120977200D02*
X177125000Y-121024819D01*
X177125000Y-121024819D02*
X176886905Y-121024819D01*
X178410714Y-121024819D02*
X177839286Y-121024819D01*
X178125000Y-121024819D02*
X178125000Y-120024819D01*
X178125000Y-120024819D02*
X178029762Y-120167676D01*
X178029762Y-120167676D02*
X177934524Y-120262914D01*
X177934524Y-120262914D02*
X177839286Y-120310533D01*
X148068095Y-99706819D02*
X148639523Y-99706819D01*
X148353809Y-100706819D02*
X148353809Y-99706819D01*
X148972857Y-100706819D02*
X148972857Y-99706819D01*
X148972857Y-99706819D02*
X149353809Y-99706819D01*
X149353809Y-99706819D02*
X149449047Y-99754438D01*
X149449047Y-99754438D02*
X149496666Y-99802057D01*
X149496666Y-99802057D02*
X149544285Y-99897295D01*
X149544285Y-99897295D02*
X149544285Y-100040152D01*
X149544285Y-100040152D02*
X149496666Y-100135390D01*
X149496666Y-100135390D02*
X149449047Y-100183009D01*
X149449047Y-100183009D02*
X149353809Y-100230628D01*
X149353809Y-100230628D02*
X148972857Y-100230628D01*
X150115714Y-100135390D02*
X150020476Y-100087771D01*
X150020476Y-100087771D02*
X149972857Y-100040152D01*
X149972857Y-100040152D02*
X149925238Y-99944914D01*
X149925238Y-99944914D02*
X149925238Y-99897295D01*
X149925238Y-99897295D02*
X149972857Y-99802057D01*
X149972857Y-99802057D02*
X150020476Y-99754438D01*
X150020476Y-99754438D02*
X150115714Y-99706819D01*
X150115714Y-99706819D02*
X150306190Y-99706819D01*
X150306190Y-99706819D02*
X150401428Y-99754438D01*
X150401428Y-99754438D02*
X150449047Y-99802057D01*
X150449047Y-99802057D02*
X150496666Y-99897295D01*
X150496666Y-99897295D02*
X150496666Y-99944914D01*
X150496666Y-99944914D02*
X150449047Y-100040152D01*
X150449047Y-100040152D02*
X150401428Y-100087771D01*
X150401428Y-100087771D02*
X150306190Y-100135390D01*
X150306190Y-100135390D02*
X150115714Y-100135390D01*
X150115714Y-100135390D02*
X150020476Y-100183009D01*
X150020476Y-100183009D02*
X149972857Y-100230628D01*
X149972857Y-100230628D02*
X149925238Y-100325866D01*
X149925238Y-100325866D02*
X149925238Y-100516342D01*
X149925238Y-100516342D02*
X149972857Y-100611580D01*
X149972857Y-100611580D02*
X150020476Y-100659200D01*
X150020476Y-100659200D02*
X150115714Y-100706819D01*
X150115714Y-100706819D02*
X150306190Y-100706819D01*
X150306190Y-100706819D02*
X150401428Y-100659200D01*
X150401428Y-100659200D02*
X150449047Y-100611580D01*
X150449047Y-100611580D02*
X150496666Y-100516342D01*
X150496666Y-100516342D02*
X150496666Y-100325866D01*
X150496666Y-100325866D02*
X150449047Y-100230628D01*
X150449047Y-100230628D02*
X150401428Y-100183009D01*
X150401428Y-100183009D02*
X150306190Y-100135390D01*
X151141905Y-99706819D02*
X151713333Y-99706819D01*
X151427619Y-100706819D02*
X151427619Y-99706819D01*
X152046667Y-100706819D02*
X152046667Y-99706819D01*
X152046667Y-99706819D02*
X152427619Y-99706819D01*
X152427619Y-99706819D02*
X152522857Y-99754438D01*
X152522857Y-99754438D02*
X152570476Y-99802057D01*
X152570476Y-99802057D02*
X152618095Y-99897295D01*
X152618095Y-99897295D02*
X152618095Y-100040152D01*
X152618095Y-100040152D02*
X152570476Y-100135390D01*
X152570476Y-100135390D02*
X152522857Y-100183009D01*
X152522857Y-100183009D02*
X152427619Y-100230628D01*
X152427619Y-100230628D02*
X152046667Y-100230628D01*
X153570476Y-100706819D02*
X152999048Y-100706819D01*
X153284762Y-100706819D02*
X153284762Y-99706819D01*
X153284762Y-99706819D02*
X153189524Y-99849676D01*
X153189524Y-99849676D02*
X153094286Y-99944914D01*
X153094286Y-99944914D02*
X152999048Y-99992533D01*
X153903810Y-99706819D02*
X154522857Y-99706819D01*
X154522857Y-99706819D02*
X154189524Y-100087771D01*
X154189524Y-100087771D02*
X154332381Y-100087771D01*
X154332381Y-100087771D02*
X154427619Y-100135390D01*
X154427619Y-100135390D02*
X154475238Y-100183009D01*
X154475238Y-100183009D02*
X154522857Y-100278247D01*
X154522857Y-100278247D02*
X154522857Y-100516342D01*
X154522857Y-100516342D02*
X154475238Y-100611580D01*
X154475238Y-100611580D02*
X154427619Y-100659200D01*
X154427619Y-100659200D02*
X154332381Y-100706819D01*
X154332381Y-100706819D02*
X154046667Y-100706819D01*
X154046667Y-100706819D02*
X153951429Y-100659200D01*
X153951429Y-100659200D02*
X153903810Y-100611580D01*
X145843333Y-113564819D02*
X145510000Y-113088628D01*
X145271905Y-113564819D02*
X145271905Y-112564819D01*
X145271905Y-112564819D02*
X145652857Y-112564819D01*
X145652857Y-112564819D02*
X145748095Y-112612438D01*
X145748095Y-112612438D02*
X145795714Y-112660057D01*
X145795714Y-112660057D02*
X145843333Y-112755295D01*
X145843333Y-112755295D02*
X145843333Y-112898152D01*
X145843333Y-112898152D02*
X145795714Y-112993390D01*
X145795714Y-112993390D02*
X145748095Y-113041009D01*
X145748095Y-113041009D02*
X145652857Y-113088628D01*
X145652857Y-113088628D02*
X145271905Y-113088628D01*
X146176667Y-112564819D02*
X146795714Y-112564819D01*
X146795714Y-112564819D02*
X146462381Y-112945771D01*
X146462381Y-112945771D02*
X146605238Y-112945771D01*
X146605238Y-112945771D02*
X146700476Y-112993390D01*
X146700476Y-112993390D02*
X146748095Y-113041009D01*
X146748095Y-113041009D02*
X146795714Y-113136247D01*
X146795714Y-113136247D02*
X146795714Y-113374342D01*
X146795714Y-113374342D02*
X146748095Y-113469580D01*
X146748095Y-113469580D02*
X146700476Y-113517200D01*
X146700476Y-113517200D02*
X146605238Y-113564819D01*
X146605238Y-113564819D02*
X146319524Y-113564819D01*
X146319524Y-113564819D02*
X146224286Y-113517200D01*
X146224286Y-113517200D02*
X146176667Y-113469580D01*
X138567142Y-89179580D02*
X138519523Y-89227200D01*
X138519523Y-89227200D02*
X138376666Y-89274819D01*
X138376666Y-89274819D02*
X138281428Y-89274819D01*
X138281428Y-89274819D02*
X138138571Y-89227200D01*
X138138571Y-89227200D02*
X138043333Y-89131961D01*
X138043333Y-89131961D02*
X137995714Y-89036723D01*
X137995714Y-89036723D02*
X137948095Y-88846247D01*
X137948095Y-88846247D02*
X137948095Y-88703390D01*
X137948095Y-88703390D02*
X137995714Y-88512914D01*
X137995714Y-88512914D02*
X138043333Y-88417676D01*
X138043333Y-88417676D02*
X138138571Y-88322438D01*
X138138571Y-88322438D02*
X138281428Y-88274819D01*
X138281428Y-88274819D02*
X138376666Y-88274819D01*
X138376666Y-88274819D02*
X138519523Y-88322438D01*
X138519523Y-88322438D02*
X138567142Y-88370057D01*
X139519523Y-89274819D02*
X138948095Y-89274819D01*
X139233809Y-89274819D02*
X139233809Y-88274819D01*
X139233809Y-88274819D02*
X139138571Y-88417676D01*
X139138571Y-88417676D02*
X139043333Y-88512914D01*
X139043333Y-88512914D02*
X138948095Y-88560533D01*
X140471904Y-89274819D02*
X139900476Y-89274819D01*
X140186190Y-89274819D02*
X140186190Y-88274819D01*
X140186190Y-88274819D02*
X140090952Y-88417676D01*
X140090952Y-88417676D02*
X139995714Y-88512914D01*
X139995714Y-88512914D02*
X139900476Y-88560533D01*
X149696905Y-123389819D02*
X149696905Y-122389819D01*
X149696905Y-122389819D02*
X149935000Y-122389819D01*
X149935000Y-122389819D02*
X150077857Y-122437438D01*
X150077857Y-122437438D02*
X150173095Y-122532676D01*
X150173095Y-122532676D02*
X150220714Y-122627914D01*
X150220714Y-122627914D02*
X150268333Y-122818390D01*
X150268333Y-122818390D02*
X150268333Y-122961247D01*
X150268333Y-122961247D02*
X150220714Y-123151723D01*
X150220714Y-123151723D02*
X150173095Y-123246961D01*
X150173095Y-123246961D02*
X150077857Y-123342200D01*
X150077857Y-123342200D02*
X149935000Y-123389819D01*
X149935000Y-123389819D02*
X149696905Y-123389819D01*
X151125476Y-122723152D02*
X151125476Y-123389819D01*
X150887381Y-122342200D02*
X150649286Y-123056485D01*
X150649286Y-123056485D02*
X151268333Y-123056485D01*
X148068095Y-96156819D02*
X148639523Y-96156819D01*
X148353809Y-97156819D02*
X148353809Y-96156819D01*
X148972857Y-97156819D02*
X148972857Y-96156819D01*
X148972857Y-96156819D02*
X149353809Y-96156819D01*
X149353809Y-96156819D02*
X149449047Y-96204438D01*
X149449047Y-96204438D02*
X149496666Y-96252057D01*
X149496666Y-96252057D02*
X149544285Y-96347295D01*
X149544285Y-96347295D02*
X149544285Y-96490152D01*
X149544285Y-96490152D02*
X149496666Y-96585390D01*
X149496666Y-96585390D02*
X149449047Y-96633009D01*
X149449047Y-96633009D02*
X149353809Y-96680628D01*
X149353809Y-96680628D02*
X148972857Y-96680628D01*
X149877619Y-96156819D02*
X150544285Y-96156819D01*
X150544285Y-96156819D02*
X150115714Y-97156819D01*
X203845833Y-111514819D02*
X203512500Y-111038628D01*
X203274405Y-111514819D02*
X203274405Y-110514819D01*
X203274405Y-110514819D02*
X203655357Y-110514819D01*
X203655357Y-110514819D02*
X203750595Y-110562438D01*
X203750595Y-110562438D02*
X203798214Y-110610057D01*
X203798214Y-110610057D02*
X203845833Y-110705295D01*
X203845833Y-110705295D02*
X203845833Y-110848152D01*
X203845833Y-110848152D02*
X203798214Y-110943390D01*
X203798214Y-110943390D02*
X203750595Y-110991009D01*
X203750595Y-110991009D02*
X203655357Y-111038628D01*
X203655357Y-111038628D02*
X203274405Y-111038628D01*
X204702976Y-110514819D02*
X204512500Y-110514819D01*
X204512500Y-110514819D02*
X204417262Y-110562438D01*
X204417262Y-110562438D02*
X204369643Y-110610057D01*
X204369643Y-110610057D02*
X204274405Y-110752914D01*
X204274405Y-110752914D02*
X204226786Y-110943390D01*
X204226786Y-110943390D02*
X204226786Y-111324342D01*
X204226786Y-111324342D02*
X204274405Y-111419580D01*
X204274405Y-111419580D02*
X204322024Y-111467200D01*
X204322024Y-111467200D02*
X204417262Y-111514819D01*
X204417262Y-111514819D02*
X204607738Y-111514819D01*
X204607738Y-111514819D02*
X204702976Y-111467200D01*
X204702976Y-111467200D02*
X204750595Y-111419580D01*
X204750595Y-111419580D02*
X204798214Y-111324342D01*
X204798214Y-111324342D02*
X204798214Y-111086247D01*
X204798214Y-111086247D02*
X204750595Y-110991009D01*
X204750595Y-110991009D02*
X204702976Y-110943390D01*
X204702976Y-110943390D02*
X204607738Y-110895771D01*
X204607738Y-110895771D02*
X204417262Y-110895771D01*
X204417262Y-110895771D02*
X204322024Y-110943390D01*
X204322024Y-110943390D02*
X204274405Y-110991009D01*
X204274405Y-110991009D02*
X204226786Y-111086247D01*
X156663333Y-96759580D02*
X156615714Y-96807200D01*
X156615714Y-96807200D02*
X156472857Y-96854819D01*
X156472857Y-96854819D02*
X156377619Y-96854819D01*
X156377619Y-96854819D02*
X156234762Y-96807200D01*
X156234762Y-96807200D02*
X156139524Y-96711961D01*
X156139524Y-96711961D02*
X156091905Y-96616723D01*
X156091905Y-96616723D02*
X156044286Y-96426247D01*
X156044286Y-96426247D02*
X156044286Y-96283390D01*
X156044286Y-96283390D02*
X156091905Y-96092914D01*
X156091905Y-96092914D02*
X156139524Y-95997676D01*
X156139524Y-95997676D02*
X156234762Y-95902438D01*
X156234762Y-95902438D02*
X156377619Y-95854819D01*
X156377619Y-95854819D02*
X156472857Y-95854819D01*
X156472857Y-95854819D02*
X156615714Y-95902438D01*
X156615714Y-95902438D02*
X156663333Y-95950057D01*
X156996667Y-95854819D02*
X157615714Y-95854819D01*
X157615714Y-95854819D02*
X157282381Y-96235771D01*
X157282381Y-96235771D02*
X157425238Y-96235771D01*
X157425238Y-96235771D02*
X157520476Y-96283390D01*
X157520476Y-96283390D02*
X157568095Y-96331009D01*
X157568095Y-96331009D02*
X157615714Y-96426247D01*
X157615714Y-96426247D02*
X157615714Y-96664342D01*
X157615714Y-96664342D02*
X157568095Y-96759580D01*
X157568095Y-96759580D02*
X157520476Y-96807200D01*
X157520476Y-96807200D02*
X157425238Y-96854819D01*
X157425238Y-96854819D02*
X157139524Y-96854819D01*
X157139524Y-96854819D02*
X157044286Y-96807200D01*
X157044286Y-96807200D02*
X156996667Y-96759580D01*
X144518095Y-106806819D02*
X145089523Y-106806819D01*
X144803809Y-107806819D02*
X144803809Y-106806819D01*
X145422857Y-107806819D02*
X145422857Y-106806819D01*
X145422857Y-106806819D02*
X145803809Y-106806819D01*
X145803809Y-106806819D02*
X145899047Y-106854438D01*
X145899047Y-106854438D02*
X145946666Y-106902057D01*
X145946666Y-106902057D02*
X145994285Y-106997295D01*
X145994285Y-106997295D02*
X145994285Y-107140152D01*
X145994285Y-107140152D02*
X145946666Y-107235390D01*
X145946666Y-107235390D02*
X145899047Y-107283009D01*
X145899047Y-107283009D02*
X145803809Y-107330628D01*
X145803809Y-107330628D02*
X145422857Y-107330628D01*
X146899047Y-106806819D02*
X146422857Y-106806819D01*
X146422857Y-106806819D02*
X146375238Y-107283009D01*
X146375238Y-107283009D02*
X146422857Y-107235390D01*
X146422857Y-107235390D02*
X146518095Y-107187771D01*
X146518095Y-107187771D02*
X146756190Y-107187771D01*
X146756190Y-107187771D02*
X146851428Y-107235390D01*
X146851428Y-107235390D02*
X146899047Y-107283009D01*
X146899047Y-107283009D02*
X146946666Y-107378247D01*
X146946666Y-107378247D02*
X146946666Y-107616342D01*
X146946666Y-107616342D02*
X146899047Y-107711580D01*
X146899047Y-107711580D02*
X146851428Y-107759200D01*
X146851428Y-107759200D02*
X146756190Y-107806819D01*
X146756190Y-107806819D02*
X146518095Y-107806819D01*
X146518095Y-107806819D02*
X146422857Y-107759200D01*
X146422857Y-107759200D02*
X146375238Y-107711580D01*
X140854819Y-76399404D02*
X141664342Y-76399404D01*
X141664342Y-76399404D02*
X141759580Y-76351785D01*
X141759580Y-76351785D02*
X141807200Y-76304166D01*
X141807200Y-76304166D02*
X141854819Y-76208928D01*
X141854819Y-76208928D02*
X141854819Y-76018452D01*
X141854819Y-76018452D02*
X141807200Y-75923214D01*
X141807200Y-75923214D02*
X141759580Y-75875595D01*
X141759580Y-75875595D02*
X141664342Y-75827976D01*
X141664342Y-75827976D02*
X140854819Y-75827976D01*
X141854819Y-74827976D02*
X141854819Y-75399404D01*
X141854819Y-75113690D02*
X140854819Y-75113690D01*
X140854819Y-75113690D02*
X140997676Y-75208928D01*
X140997676Y-75208928D02*
X141092914Y-75304166D01*
X141092914Y-75304166D02*
X141140533Y-75399404D01*
X156187142Y-101779580D02*
X156139523Y-101827200D01*
X156139523Y-101827200D02*
X155996666Y-101874819D01*
X155996666Y-101874819D02*
X155901428Y-101874819D01*
X155901428Y-101874819D02*
X155758571Y-101827200D01*
X155758571Y-101827200D02*
X155663333Y-101731961D01*
X155663333Y-101731961D02*
X155615714Y-101636723D01*
X155615714Y-101636723D02*
X155568095Y-101446247D01*
X155568095Y-101446247D02*
X155568095Y-101303390D01*
X155568095Y-101303390D02*
X155615714Y-101112914D01*
X155615714Y-101112914D02*
X155663333Y-101017676D01*
X155663333Y-101017676D02*
X155758571Y-100922438D01*
X155758571Y-100922438D02*
X155901428Y-100874819D01*
X155901428Y-100874819D02*
X155996666Y-100874819D01*
X155996666Y-100874819D02*
X156139523Y-100922438D01*
X156139523Y-100922438D02*
X156187142Y-100970057D01*
X157139523Y-101874819D02*
X156568095Y-101874819D01*
X156853809Y-101874819D02*
X156853809Y-100874819D01*
X156853809Y-100874819D02*
X156758571Y-101017676D01*
X156758571Y-101017676D02*
X156663333Y-101112914D01*
X156663333Y-101112914D02*
X156568095Y-101160533D01*
X157758571Y-100874819D02*
X157853809Y-100874819D01*
X157853809Y-100874819D02*
X157949047Y-100922438D01*
X157949047Y-100922438D02*
X157996666Y-100970057D01*
X157996666Y-100970057D02*
X158044285Y-101065295D01*
X158044285Y-101065295D02*
X158091904Y-101255771D01*
X158091904Y-101255771D02*
X158091904Y-101493866D01*
X158091904Y-101493866D02*
X158044285Y-101684342D01*
X158044285Y-101684342D02*
X157996666Y-101779580D01*
X157996666Y-101779580D02*
X157949047Y-101827200D01*
X157949047Y-101827200D02*
X157853809Y-101874819D01*
X157853809Y-101874819D02*
X157758571Y-101874819D01*
X157758571Y-101874819D02*
X157663333Y-101827200D01*
X157663333Y-101827200D02*
X157615714Y-101779580D01*
X157615714Y-101779580D02*
X157568095Y-101684342D01*
X157568095Y-101684342D02*
X157520476Y-101493866D01*
X157520476Y-101493866D02*
X157520476Y-101255771D01*
X157520476Y-101255771D02*
X157568095Y-101065295D01*
X157568095Y-101065295D02*
X157615714Y-100970057D01*
X157615714Y-100970057D02*
X157663333Y-100922438D01*
X157663333Y-100922438D02*
X157758571Y-100874819D01*
X203369642Y-116534819D02*
X203036309Y-116058628D01*
X202798214Y-116534819D02*
X202798214Y-115534819D01*
X202798214Y-115534819D02*
X203179166Y-115534819D01*
X203179166Y-115534819D02*
X203274404Y-115582438D01*
X203274404Y-115582438D02*
X203322023Y-115630057D01*
X203322023Y-115630057D02*
X203369642Y-115725295D01*
X203369642Y-115725295D02*
X203369642Y-115868152D01*
X203369642Y-115868152D02*
X203322023Y-115963390D01*
X203322023Y-115963390D02*
X203274404Y-116011009D01*
X203274404Y-116011009D02*
X203179166Y-116058628D01*
X203179166Y-116058628D02*
X202798214Y-116058628D01*
X204322023Y-116534819D02*
X203750595Y-116534819D01*
X204036309Y-116534819D02*
X204036309Y-115534819D01*
X204036309Y-115534819D02*
X203941071Y-115677676D01*
X203941071Y-115677676D02*
X203845833Y-115772914D01*
X203845833Y-115772914D02*
X203750595Y-115820533D01*
X204893452Y-115963390D02*
X204798214Y-115915771D01*
X204798214Y-115915771D02*
X204750595Y-115868152D01*
X204750595Y-115868152D02*
X204702976Y-115772914D01*
X204702976Y-115772914D02*
X204702976Y-115725295D01*
X204702976Y-115725295D02*
X204750595Y-115630057D01*
X204750595Y-115630057D02*
X204798214Y-115582438D01*
X204798214Y-115582438D02*
X204893452Y-115534819D01*
X204893452Y-115534819D02*
X205083928Y-115534819D01*
X205083928Y-115534819D02*
X205179166Y-115582438D01*
X205179166Y-115582438D02*
X205226785Y-115630057D01*
X205226785Y-115630057D02*
X205274404Y-115725295D01*
X205274404Y-115725295D02*
X205274404Y-115772914D01*
X205274404Y-115772914D02*
X205226785Y-115868152D01*
X205226785Y-115868152D02*
X205179166Y-115915771D01*
X205179166Y-115915771D02*
X205083928Y-115963390D01*
X205083928Y-115963390D02*
X204893452Y-115963390D01*
X204893452Y-115963390D02*
X204798214Y-116011009D01*
X204798214Y-116011009D02*
X204750595Y-116058628D01*
X204750595Y-116058628D02*
X204702976Y-116153866D01*
X204702976Y-116153866D02*
X204702976Y-116344342D01*
X204702976Y-116344342D02*
X204750595Y-116439580D01*
X204750595Y-116439580D02*
X204798214Y-116487200D01*
X204798214Y-116487200D02*
X204893452Y-116534819D01*
X204893452Y-116534819D02*
X205083928Y-116534819D01*
X205083928Y-116534819D02*
X205179166Y-116487200D01*
X205179166Y-116487200D02*
X205226785Y-116439580D01*
X205226785Y-116439580D02*
X205274404Y-116344342D01*
X205274404Y-116344342D02*
X205274404Y-116153866D01*
X205274404Y-116153866D02*
X205226785Y-116058628D01*
X205226785Y-116058628D02*
X205179166Y-116011009D01*
X205179166Y-116011009D02*
X205083928Y-115963390D01*
X199467261Y-113900057D02*
X199372023Y-113852438D01*
X199372023Y-113852438D02*
X199276785Y-113757200D01*
X199276785Y-113757200D02*
X199133928Y-113614342D01*
X199133928Y-113614342D02*
X199038690Y-113566723D01*
X199038690Y-113566723D02*
X198943452Y-113566723D01*
X198991071Y-113804819D02*
X198895833Y-113757200D01*
X198895833Y-113757200D02*
X198800595Y-113661961D01*
X198800595Y-113661961D02*
X198752976Y-113471485D01*
X198752976Y-113471485D02*
X198752976Y-113138152D01*
X198752976Y-113138152D02*
X198800595Y-112947676D01*
X198800595Y-112947676D02*
X198895833Y-112852438D01*
X198895833Y-112852438D02*
X198991071Y-112804819D01*
X198991071Y-112804819D02*
X199181547Y-112804819D01*
X199181547Y-112804819D02*
X199276785Y-112852438D01*
X199276785Y-112852438D02*
X199372023Y-112947676D01*
X199372023Y-112947676D02*
X199419642Y-113138152D01*
X199419642Y-113138152D02*
X199419642Y-113471485D01*
X199419642Y-113471485D02*
X199372023Y-113661961D01*
X199372023Y-113661961D02*
X199276785Y-113757200D01*
X199276785Y-113757200D02*
X199181547Y-113804819D01*
X199181547Y-113804819D02*
X198991071Y-113804819D01*
X200276785Y-113138152D02*
X200276785Y-113804819D01*
X200038690Y-112757200D02*
X199800595Y-113471485D01*
X199800595Y-113471485D02*
X200419642Y-113471485D01*
X133786905Y-113104819D02*
X133786905Y-112104819D01*
X133786905Y-112104819D02*
X134025000Y-112104819D01*
X134025000Y-112104819D02*
X134167857Y-112152438D01*
X134167857Y-112152438D02*
X134263095Y-112247676D01*
X134263095Y-112247676D02*
X134310714Y-112342914D01*
X134310714Y-112342914D02*
X134358333Y-112533390D01*
X134358333Y-112533390D02*
X134358333Y-112676247D01*
X134358333Y-112676247D02*
X134310714Y-112866723D01*
X134310714Y-112866723D02*
X134263095Y-112961961D01*
X134263095Y-112961961D02*
X134167857Y-113057200D01*
X134167857Y-113057200D02*
X134025000Y-113104819D01*
X134025000Y-113104819D02*
X133786905Y-113104819D01*
X134739286Y-112200057D02*
X134786905Y-112152438D01*
X134786905Y-112152438D02*
X134882143Y-112104819D01*
X134882143Y-112104819D02*
X135120238Y-112104819D01*
X135120238Y-112104819D02*
X135215476Y-112152438D01*
X135215476Y-112152438D02*
X135263095Y-112200057D01*
X135263095Y-112200057D02*
X135310714Y-112295295D01*
X135310714Y-112295295D02*
X135310714Y-112390533D01*
X135310714Y-112390533D02*
X135263095Y-112533390D01*
X135263095Y-112533390D02*
X134691667Y-113104819D01*
X134691667Y-113104819D02*
X135310714Y-113104819D01*
D12*
%TO.C,C7*%
X156113733Y-119100000D02*
X156406267Y-119100000D01*
X156113733Y-120120000D02*
X156406267Y-120120000D01*
%TO.C,R12*%
X145755276Y-121547500D02*
X146264724Y-121547500D01*
X145755276Y-122592500D02*
X146264724Y-122592500D01*
%TO.C,R15*%
X156575276Y-112367500D02*
X157084724Y-112367500D01*
X156575276Y-113412500D02*
X157084724Y-113412500D01*
%TO.C,J2*%
X183170000Y-72430000D02*
X184500000Y-72430000D01*
X183170000Y-73760000D02*
X183170000Y-72430000D01*
X183170000Y-75030000D02*
X183170000Y-113190000D01*
X183170000Y-75030000D02*
X185770000Y-75030000D01*
X183170000Y-113190000D02*
X188370000Y-113190000D01*
X185770000Y-72430000D02*
X188370000Y-72430000D01*
X185770000Y-75030000D02*
X185770000Y-72430000D01*
X188370000Y-72430000D02*
X188370000Y-113190000D01*
%TO.C,TP1*%
X146730000Y-98350000D02*
G75*
G02*
X144830000Y-98350000I-950000J0D01*
G01*
X144830000Y-98350000D02*
G75*
G02*
X146730000Y-98350000I950000J0D01*
G01*
%TO.C,Q5*%
X199562500Y-118815000D02*
X198912500Y-118815000D01*
X199562500Y-118815000D02*
X200212500Y-118815000D01*
X199562500Y-121935000D02*
X198912500Y-121935000D01*
X199562500Y-121935000D02*
X200212500Y-121935000D01*
X198400000Y-118865000D02*
X198160000Y-118535000D01*
X198640000Y-118535000D01*
X198400000Y-118865000D01*
G36*
X198400000Y-118865000D02*
G01*
X198160000Y-118535000D01*
X198640000Y-118535000D01*
X198400000Y-118865000D01*
G37*
%TO.C,L3*%
X153090000Y-73590000D02*
X153090000Y-77040000D01*
X153090000Y-73590000D02*
X165910000Y-73590000D01*
X153090000Y-86410000D02*
X153090000Y-82960000D01*
X153090000Y-86410000D02*
X165910000Y-86410000D01*
X165910000Y-73590000D02*
X165910000Y-77040000D01*
X165910000Y-86410000D02*
X165910000Y-82960000D01*
%TO.C,Q3*%
X199562500Y-109565000D02*
X198912500Y-109565000D01*
X199562500Y-109565000D02*
X200212500Y-109565000D01*
X199562500Y-112685000D02*
X198912500Y-112685000D01*
X199562500Y-112685000D02*
X200212500Y-112685000D01*
X198400000Y-109615000D02*
X198160000Y-109285000D01*
X198640000Y-109285000D01*
X198400000Y-109615000D01*
G36*
X198400000Y-109615000D02*
G01*
X198160000Y-109285000D01*
X198640000Y-109285000D01*
X198400000Y-109615000D01*
G37*
%TO.C,J1*%
X121215000Y-72420000D02*
X122920000Y-72420000D01*
X121215000Y-81580000D02*
X121215000Y-72420000D01*
X122920000Y-81580000D02*
X121215000Y-81580000D01*
X124930000Y-81580000D02*
X126850000Y-81580000D01*
X126850000Y-72420000D02*
X124930000Y-72420000D01*
%TO.C,R7*%
X123587742Y-114477500D02*
X124062258Y-114477500D01*
X123587742Y-115522500D02*
X124062258Y-115522500D01*
%TO.C,R11*%
X156575276Y-104837500D02*
X157084724Y-104837500D01*
X156575276Y-105882500D02*
X157084724Y-105882500D01*
%TO.C,R13*%
X156575276Y-107347500D02*
X157084724Y-107347500D01*
X156575276Y-108392500D02*
X157084724Y-108392500D01*
%TO.C,R17*%
X156575276Y-114877500D02*
X157084724Y-114877500D01*
X156575276Y-115922500D02*
X157084724Y-115922500D01*
%TO.C,C5*%
X156683733Y-99830000D02*
X156976267Y-99830000D01*
X156683733Y-100850000D02*
X156976267Y-100850000D01*
%TO.C,J3*%
X168370000Y-115720000D02*
X168370000Y-123540000D01*
X168370000Y-117320000D02*
X169290000Y-117320000D01*
X168370000Y-123540000D02*
X174490000Y-123540000D01*
X169130000Y-119680000D02*
X169130000Y-121280000D01*
X169130000Y-121280000D02*
X170130000Y-121280000D01*
X169290000Y-115720000D02*
X168370000Y-115720000D01*
X169290000Y-117320000D02*
X169290000Y-115720000D01*
X169570000Y-117320000D02*
X169290000Y-117320000D01*
X169570000Y-117320000D02*
X169570000Y-116105000D01*
X169630000Y-121280000D02*
X169630000Y-123540000D01*
X170130000Y-119680000D02*
X169130000Y-119680000D01*
X170130000Y-121280000D02*
X170130000Y-119680000D01*
X170130000Y-121280000D02*
X170130000Y-123540000D01*
X170930000Y-119180000D02*
X171930000Y-119180000D01*
X170930000Y-123540000D02*
X170930000Y-119180000D01*
X171930000Y-119180000D02*
X171930000Y-123540000D01*
X172730000Y-119680000D02*
X173730000Y-119680000D01*
X172730000Y-121280000D02*
X172730000Y-119680000D01*
X173570000Y-115720000D02*
X173570000Y-117320000D01*
X173570000Y-117320000D02*
X173290000Y-117320000D01*
X173730000Y-119680000D02*
X173730000Y-121280000D01*
X173730000Y-121280000D02*
X172730000Y-121280000D01*
X174490000Y-115720000D02*
X173570000Y-115720000D01*
X174490000Y-117320000D02*
X173570000Y-117320000D01*
X174490000Y-123540000D02*
X174490000Y-115720000D01*
%TO.C,C12*%
X168062500Y-73652500D02*
X168850000Y-73652500D01*
X168456250Y-73258750D02*
X168456250Y-74046250D01*
X169090000Y-73154437D02*
X169090000Y-74440000D01*
X169090000Y-73154437D02*
X170154437Y-72090000D01*
X169090000Y-77845563D02*
X169090000Y-76560000D01*
X169090000Y-77845563D02*
X170154437Y-78910000D01*
X170154437Y-72090000D02*
X175910000Y-72090000D01*
X170154437Y-78910000D02*
X175910000Y-78910000D01*
X175910000Y-72090000D02*
X175910000Y-74440000D01*
X175910000Y-78910000D02*
X175910000Y-76560000D01*
%TO.C,Q1*%
X142562500Y-80940000D02*
X141912500Y-80940000D01*
X142562500Y-80940000D02*
X143212500Y-80940000D01*
X142562500Y-84060000D02*
X141912500Y-84060000D01*
X142562500Y-84060000D02*
X143212500Y-84060000D01*
X141400000Y-80990000D02*
X141160000Y-80660000D01*
X141640000Y-80660000D01*
X141400000Y-80990000D01*
G36*
X141400000Y-80990000D02*
G01*
X141160000Y-80660000D01*
X141640000Y-80660000D01*
X141400000Y-80990000D01*
G37*
%TO.C,R5*%
X203775242Y-109457500D02*
X204249758Y-109457500D01*
X203775242Y-110502500D02*
X204249758Y-110502500D01*
%TO.C,U5*%
X127200000Y-107640000D02*
X125250000Y-107640000D01*
X127200000Y-107640000D02*
X129150000Y-107640000D01*
X127200000Y-112760000D02*
X125250000Y-112760000D01*
X127200000Y-112760000D02*
X129150000Y-112760000D01*
X124500000Y-107735000D02*
X124260000Y-107405000D01*
X124740000Y-107405000D01*
X124500000Y-107735000D01*
G36*
X124500000Y-107735000D02*
G01*
X124260000Y-107405000D01*
X124740000Y-107405000D01*
X124500000Y-107735000D01*
G37*
%TO.C,R10*%
X203775242Y-114477500D02*
X204249758Y-114477500D01*
X203775242Y-115522500D02*
X204249758Y-115522500D01*
%TO.C,R14*%
X156575276Y-109857500D02*
X157084724Y-109857500D01*
X156575276Y-110902500D02*
X157084724Y-110902500D01*
%TO.C,R9*%
X172272936Y-101590000D02*
X173727064Y-101590000D01*
X172272936Y-103410000D02*
X173727064Y-103410000D01*
D10*
%TO.C,U2*%
X145125000Y-73525000D02*
X145125000Y-77675000D01*
X150275000Y-73525000D02*
X150275000Y-77675000D01*
D12*
X150530000Y-73340000D02*
X150200000Y-73100000D01*
X150530000Y-72860000D01*
X150530000Y-73340000D01*
G36*
X150530000Y-73340000D02*
G01*
X150200000Y-73100000D01*
X150530000Y-72860000D01*
X150530000Y-73340000D01*
G37*
%TO.C,TP10*%
X150280000Y-109000000D02*
G75*
G02*
X148380000Y-109000000I-950000J0D01*
G01*
X148380000Y-109000000D02*
G75*
G02*
X150280000Y-109000000I950000J0D01*
G01*
%TO.C,R4*%
X145772742Y-116527500D02*
X146247258Y-116527500D01*
X145772742Y-117572500D02*
X146247258Y-117572500D01*
%TO.C,TP14*%
X153830000Y-105450000D02*
G75*
G02*
X151930000Y-105450000I-950000J0D01*
G01*
X151930000Y-105450000D02*
G75*
G02*
X153830000Y-105450000I950000J0D01*
G01*
D10*
%TO.C,JP2*%
X171980000Y-91970000D02*
X172480000Y-91470000D01*
X171980000Y-92770000D02*
X171980000Y-91970000D01*
X172480000Y-91470000D02*
X176080000Y-91470000D01*
X172480000Y-93270000D02*
X171980000Y-92770000D01*
X176080000Y-91470000D02*
X176580000Y-91970000D01*
X176080000Y-93270000D02*
X172480000Y-93270000D01*
X176580000Y-91970000D02*
X176580000Y-92770000D01*
X176580000Y-92770000D02*
X176080000Y-93270000D01*
D12*
%TO.C,Q2*%
X119437500Y-113390000D02*
X118787500Y-113390000D01*
X119437500Y-113390000D02*
X120087500Y-113390000D01*
X119437500Y-116510000D02*
X118787500Y-116510000D01*
X119437500Y-116510000D02*
X120087500Y-116510000D01*
X118275000Y-113440000D02*
X118035000Y-113110000D01*
X118515000Y-113110000D01*
X118275000Y-113440000D01*
G36*
X118275000Y-113440000D02*
G01*
X118035000Y-113110000D01*
X118515000Y-113110000D01*
X118275000Y-113440000D01*
G37*
%TO.C,SW2*%
D11*
X127300000Y-100650000D02*
X121000000Y-100650000D01*
X121000000Y-87350000D01*
X127300000Y-87350000D01*
X127300000Y-100650000D01*
D12*
%TO.C,TP11*%
X153830000Y-98350000D02*
G75*
G02*
X151930000Y-98350000I-950000J0D01*
G01*
X151930000Y-98350000D02*
G75*
G02*
X153830000Y-98350000I950000J0D01*
G01*
%TO.C,Q6*%
X199562500Y-123440000D02*
X198912500Y-123440000D01*
X199562500Y-123440000D02*
X200212500Y-123440000D01*
X199562500Y-126560000D02*
X198912500Y-126560000D01*
X199562500Y-126560000D02*
X200212500Y-126560000D01*
X198400000Y-123490000D02*
X198160000Y-123160000D01*
X198640000Y-123160000D01*
X198400000Y-123490000D01*
G36*
X198400000Y-123490000D02*
G01*
X198160000Y-123160000D01*
X198640000Y-123160000D01*
X198400000Y-123490000D01*
G37*
%TO.C,TP9*%
X150280000Y-105450000D02*
G75*
G02*
X148380000Y-105450000I-950000J0D01*
G01*
X148380000Y-105450000D02*
G75*
G02*
X150280000Y-105450000I950000J0D01*
G01*
%TO.C,TP2*%
X146730000Y-101900000D02*
G75*
G02*
X144830000Y-101900000I-950000J0D01*
G01*
X144830000Y-101900000D02*
G75*
G02*
X146730000Y-101900000I950000J0D01*
G01*
%TO.C,R16*%
X177552936Y-118495000D02*
X178007064Y-118495000D01*
X177552936Y-119965000D02*
X178007064Y-119965000D01*
%TO.C,U3*%
X165525000Y-99345000D02*
X163575000Y-99345000D01*
X165525000Y-99345000D02*
X167475000Y-99345000D01*
X165525000Y-104465000D02*
X163575000Y-104465000D01*
X165525000Y-104465000D02*
X167475000Y-104465000D01*
X162825000Y-99440000D02*
X162585000Y-99110000D01*
X163065000Y-99110000D01*
X162825000Y-99440000D01*
G36*
X162825000Y-99440000D02*
G01*
X162585000Y-99110000D01*
X163065000Y-99110000D01*
X162825000Y-99440000D01*
G37*
D10*
%TO.C,JP1*%
X171980000Y-88620000D02*
X172480000Y-88120000D01*
X171980000Y-89420000D02*
X171980000Y-88620000D01*
X172480000Y-88120000D02*
X176080000Y-88120000D01*
X172480000Y-89920000D02*
X171980000Y-89420000D01*
X176080000Y-88120000D02*
X176580000Y-88620000D01*
X176080000Y-89920000D02*
X172480000Y-89920000D01*
X176580000Y-88620000D02*
X176580000Y-89420000D01*
X176580000Y-89420000D02*
X176080000Y-89920000D01*
D12*
%TO.C,C1*%
X156144165Y-117280000D02*
X156375835Y-117280000D01*
X156144165Y-118000000D02*
X156375835Y-118000000D01*
%TO.C,C9*%
X156144165Y-121220000D02*
X156375835Y-121220000D01*
X156144165Y-121940000D02*
X156375835Y-121940000D01*
%TO.C,R1*%
X145772742Y-111507500D02*
X146247258Y-111507500D01*
X145772742Y-112552500D02*
X146247258Y-112552500D01*
%TO.C,R8*%
X177552936Y-115545000D02*
X178007064Y-115545000D01*
X177552936Y-117015000D02*
X178007064Y-117015000D01*
%TO.C,D5*%
X147350000Y-81990000D02*
X147350000Y-87500000D01*
X150650000Y-81990000D02*
X147350000Y-81990000D01*
X150650000Y-81990000D02*
X150650000Y-87500000D01*
%TO.C,TP4*%
X146730000Y-105450000D02*
G75*
G02*
X144830000Y-105450000I-950000J0D01*
G01*
X144830000Y-105450000D02*
G75*
G02*
X146730000Y-105450000I950000J0D01*
G01*
%TO.C,D1*%
X175965000Y-121265000D02*
X175965000Y-122735000D01*
X175965000Y-122735000D02*
X178425000Y-122735000D01*
X178425000Y-121265000D02*
X175965000Y-121265000D01*
%TO.C,TP8*%
X150280000Y-101900000D02*
G75*
G02*
X148380000Y-101900000I-950000J0D01*
G01*
X148380000Y-101900000D02*
G75*
G02*
X150280000Y-101900000I950000J0D01*
G01*
%TO.C,TP13*%
X153830000Y-101900000D02*
G75*
G02*
X151930000Y-101900000I-950000J0D01*
G01*
X151930000Y-101900000D02*
G75*
G02*
X153830000Y-101900000I950000J0D01*
G01*
%TO.C,R3*%
X145772742Y-114017500D02*
X146247258Y-114017500D01*
X145772742Y-115062500D02*
X146247258Y-115062500D01*
%TO.C,C11*%
X138948748Y-89765000D02*
X139471252Y-89765000D01*
X138948748Y-91235000D02*
X139471252Y-91235000D01*
%TO.C,D4*%
X148575000Y-123625000D02*
X148575000Y-125545000D01*
X148575000Y-125545000D02*
X151435000Y-125545000D01*
X151435000Y-123625000D02*
X148575000Y-123625000D01*
%TO.C,TP7*%
X150280000Y-98350000D02*
G75*
G02*
X148380000Y-98350000I-950000J0D01*
G01*
X148380000Y-98350000D02*
G75*
G02*
X150280000Y-98350000I950000J0D01*
G01*
%TO.C,R6*%
X203775242Y-111967500D02*
X204249758Y-111967500D01*
X203775242Y-113012500D02*
X204249758Y-113012500D01*
%TO.C,C3*%
X156683733Y-97320000D02*
X156976267Y-97320000D01*
X156683733Y-98340000D02*
X156976267Y-98340000D01*
%TO.C,TP5*%
X146730000Y-109000000D02*
G75*
G02*
X144830000Y-109000000I-950000J0D01*
G01*
X144830000Y-109000000D02*
G75*
G02*
X146730000Y-109000000I950000J0D01*
G01*
%TO.C,U1*%
X135440000Y-75637500D02*
X135440000Y-73687500D01*
X135440000Y-75637500D02*
X135440000Y-77587500D01*
X140560000Y-75637500D02*
X140560000Y-73687500D01*
X140560000Y-75637500D02*
X140560000Y-77587500D01*
X140890000Y-73165000D02*
X140560000Y-72925000D01*
X140890000Y-72685000D01*
X140890000Y-73165000D01*
G36*
X140890000Y-73165000D02*
G01*
X140560000Y-72925000D01*
X140890000Y-72685000D01*
X140890000Y-73165000D01*
G37*
%TO.C,C10*%
X156683733Y-102340000D02*
X156976267Y-102340000D01*
X156683733Y-103360000D02*
X156976267Y-103360000D01*
%TO.C,R18*%
X203775242Y-116987500D02*
X204249758Y-116987500D01*
X203775242Y-118032500D02*
X204249758Y-118032500D01*
%TO.C,Q4*%
X199562500Y-114190000D02*
X198912500Y-114190000D01*
X199562500Y-114190000D02*
X200212500Y-114190000D01*
X199562500Y-117310000D02*
X198912500Y-117310000D01*
X199562500Y-117310000D02*
X200212500Y-117310000D01*
X198400000Y-114240000D02*
X198160000Y-113910000D01*
X198640000Y-113910000D01*
X198400000Y-114240000D01*
G36*
X198400000Y-114240000D02*
G01*
X198160000Y-113910000D01*
X198640000Y-113910000D01*
X198400000Y-114240000D01*
G37*
%TO.C,D2*%
X133525000Y-111960000D02*
X136385000Y-111960000D01*
X136385000Y-110040000D02*
X133525000Y-110040000D01*
X136385000Y-111960000D02*
X136385000Y-110040000D01*
%TD*%
%LPC*%
D13*
%TO.C,C7*%
X155397500Y-119610000D03*
X157122500Y-119610000D03*
%TD*%
D14*
%TO.C,R12*%
X145097500Y-122070000D03*
X146922500Y-122070000D03*
%TD*%
%TO.C,R15*%
X155917500Y-112890000D03*
X157742500Y-112890000D03*
%TD*%
D15*
%TO.C,J2*%
X184500000Y-73760000D03*
D16*
X187040000Y-73760000D03*
X184500000Y-76300000D03*
X187040000Y-76300000D03*
X184500000Y-78840000D03*
X187040000Y-78840000D03*
X184500000Y-81380000D03*
X187040000Y-81380000D03*
X184500000Y-83920000D03*
X187040000Y-83920000D03*
X184500000Y-86460000D03*
X187040000Y-86460000D03*
X184500000Y-89000000D03*
X187040000Y-89000000D03*
X184500000Y-91540000D03*
X187040000Y-91540000D03*
X184500000Y-94080000D03*
X187040000Y-94080000D03*
X184500000Y-96620000D03*
X187040000Y-96620000D03*
X184500000Y-99160000D03*
X187040000Y-99160000D03*
X184500000Y-101700000D03*
X187040000Y-101700000D03*
X184500000Y-104240000D03*
X187040000Y-104240000D03*
X184500000Y-106780000D03*
X187040000Y-106780000D03*
X184500000Y-109320000D03*
X187040000Y-109320000D03*
X184500000Y-111860000D03*
X187040000Y-111860000D03*
%TD*%
D17*
%TO.C,TP1*%
X145780000Y-98350000D03*
%TD*%
D18*
%TO.C,Q5*%
X198625000Y-119425000D03*
X198625000Y-121325000D03*
X200500000Y-120375000D03*
%TD*%
D19*
%TO.C,L3*%
X154550000Y-80000000D03*
X164450000Y-80000000D03*
%TD*%
D18*
%TO.C,Q3*%
X198625000Y-110175000D03*
X198625000Y-112075000D03*
X200500000Y-111125000D03*
%TD*%
D20*
%TO.C,J1*%
X127605000Y-74110000D03*
X127605000Y-79890000D03*
D21*
X128725000Y-73800000D03*
X128725000Y-74600000D03*
D22*
X128725000Y-75750000D03*
X128725000Y-76750000D03*
X128725000Y-77250000D03*
X128725000Y-78250000D03*
D21*
X128725000Y-79400000D03*
X128725000Y-80200000D03*
X128725000Y-80200000D03*
X128725000Y-79400000D03*
D22*
X128725000Y-78750000D03*
X128725000Y-77750000D03*
X128725000Y-76250000D03*
X128725000Y-75250000D03*
D21*
X128725000Y-74600000D03*
X128725000Y-73800000D03*
D23*
X128125000Y-72680000D03*
D24*
X123925000Y-72680000D03*
D23*
X128125000Y-81320000D03*
D24*
X123925000Y-81320000D03*
%TD*%
D25*
%TO.C,R7*%
X123000000Y-115000000D03*
X124650000Y-115000000D03*
%TD*%
D14*
%TO.C,R11*%
X155917500Y-105360000D03*
X157742500Y-105360000D03*
%TD*%
%TO.C,R13*%
X155917500Y-107870000D03*
X157742500Y-107870000D03*
%TD*%
%TO.C,R17*%
X155917500Y-115400000D03*
X157742500Y-115400000D03*
%TD*%
D13*
%TO.C,C5*%
X155967500Y-100340000D03*
X157692500Y-100340000D03*
%TD*%
D26*
%TO.C,J3*%
X170430000Y-117180000D03*
D27*
X172430000Y-117180000D03*
%TD*%
D28*
%TO.C,C12*%
X169800000Y-75500000D03*
X175200000Y-75500000D03*
%TD*%
D18*
%TO.C,Q1*%
X141625000Y-81550000D03*
X141625000Y-83450000D03*
X143500000Y-82500000D03*
%TD*%
D25*
%TO.C,R5*%
X203187500Y-109980000D03*
X204837500Y-109980000D03*
%TD*%
D29*
%TO.C,U5*%
X124725000Y-108295000D03*
X124725000Y-109565000D03*
X124725000Y-110835000D03*
X124725000Y-112105000D03*
X129675000Y-112105000D03*
X129675000Y-110835000D03*
X129675000Y-109565000D03*
X129675000Y-108295000D03*
D30*
X127200000Y-110200000D03*
%TD*%
D25*
%TO.C,R10*%
X203187500Y-115000000D03*
X204837500Y-115000000D03*
%TD*%
D14*
%TO.C,R14*%
X155917500Y-110380000D03*
X157742500Y-110380000D03*
%TD*%
D31*
%TO.C,R9*%
X171537500Y-102500000D03*
X174462500Y-102500000D03*
%TD*%
D32*
%TO.C,U2*%
X149605000Y-72900000D03*
X148335000Y-72900000D03*
X147065000Y-72900000D03*
X145795000Y-72900000D03*
X145795000Y-78300000D03*
X147065000Y-78300000D03*
X148335000Y-78300000D03*
X149605000Y-78300000D03*
D33*
X147700000Y-75600000D03*
%TD*%
D17*
%TO.C,TP10*%
X149330000Y-109000000D03*
%TD*%
D25*
%TO.C,R4*%
X145185000Y-117050000D03*
X146835000Y-117050000D03*
%TD*%
D17*
%TO.C,TP14*%
X152880000Y-105450000D03*
%TD*%
D34*
%TO.C,JP2*%
X173010000Y-92370000D03*
X175550000Y-92370000D03*
%TD*%
D18*
%TO.C,Q2*%
X118500000Y-114000000D03*
X118500000Y-115900000D03*
X120375000Y-114950000D03*
%TD*%
D35*
%TO.C,SW2*%
X122580000Y-100650000D03*
X122580000Y-87350000D03*
D36*
X131780000Y-98800000D03*
D35*
X131780000Y-94000000D03*
X131780000Y-89200000D03*
%TD*%
D17*
%TO.C,TP11*%
X152880000Y-98350000D03*
%TD*%
D18*
%TO.C,Q6*%
X198625000Y-124050000D03*
X198625000Y-125950000D03*
X200500000Y-125000000D03*
%TD*%
D17*
%TO.C,TP9*%
X149330000Y-105450000D03*
%TD*%
%TO.C,TP2*%
X145780000Y-101900000D03*
%TD*%
D37*
%TO.C,R16*%
X176780000Y-119230000D03*
X178780000Y-119230000D03*
%TD*%
D29*
%TO.C,U3*%
X163050000Y-100000000D03*
X163050000Y-101270000D03*
X163050000Y-102540000D03*
X163050000Y-103810000D03*
X168000000Y-103810000D03*
X168000000Y-102540000D03*
X168000000Y-101270000D03*
X168000000Y-100000000D03*
%TD*%
D34*
%TO.C,JP1*%
X173010000Y-89020000D03*
X175550000Y-89020000D03*
%TD*%
D38*
%TO.C,C1*%
X155692500Y-117640000D03*
X156827500Y-117640000D03*
%TD*%
%TO.C,C9*%
X155692500Y-121580000D03*
X156827500Y-121580000D03*
%TD*%
D25*
%TO.C,R1*%
X145185000Y-112030000D03*
X146835000Y-112030000D03*
%TD*%
D37*
%TO.C,R8*%
X176780000Y-116280000D03*
X178780000Y-116280000D03*
%TD*%
D39*
%TO.C,D5*%
X149000000Y-83500000D03*
X149000000Y-87500000D03*
%TD*%
D17*
%TO.C,TP4*%
X145780000Y-105450000D03*
%TD*%
D40*
%TO.C,D1*%
X176750000Y-122000000D03*
X178500000Y-122000000D03*
%TD*%
D17*
%TO.C,TP8*%
X149330000Y-101900000D03*
%TD*%
%TO.C,TP13*%
X152880000Y-101900000D03*
%TD*%
D25*
%TO.C,R3*%
X145185000Y-114540000D03*
X146835000Y-114540000D03*
%TD*%
D41*
%TO.C,C11*%
X138172500Y-90500000D03*
X140247500Y-90500000D03*
%TD*%
D42*
%TO.C,D4*%
X149410000Y-124585000D03*
X151460000Y-124585000D03*
%TD*%
D17*
%TO.C,TP7*%
X149330000Y-98350000D03*
%TD*%
D25*
%TO.C,R6*%
X203187500Y-112490000D03*
X204837500Y-112490000D03*
%TD*%
D13*
%TO.C,C3*%
X155967500Y-97830000D03*
X157692500Y-97830000D03*
%TD*%
D17*
%TO.C,TP5*%
X145780000Y-109000000D03*
%TD*%
D43*
%TO.C,U1*%
X140000000Y-73000000D03*
X139000000Y-73000000D03*
X138000000Y-73000000D03*
X137000000Y-73000000D03*
X136000000Y-73000000D03*
X136000000Y-78275000D03*
X137000000Y-78275000D03*
X138000000Y-78275000D03*
X139000000Y-78275000D03*
X140000000Y-78275000D03*
D44*
X138000000Y-75637500D03*
%TD*%
D13*
%TO.C,C10*%
X155967500Y-102850000D03*
X157692500Y-102850000D03*
%TD*%
D25*
%TO.C,R18*%
X203187500Y-117510000D03*
X204837500Y-117510000D03*
%TD*%
D18*
%TO.C,Q4*%
X198625000Y-114800000D03*
X198625000Y-116700000D03*
X200500000Y-115750000D03*
%TD*%
D45*
%TO.C,D2*%
X135550000Y-111000000D03*
X133500000Y-111000000D03*
%TD*%
%LPD*%
M02*
