%TF.GenerationSoftware,KiCad,Pcbnew,9.0.0*%
%TF.CreationDate,2025-03-25T01:37:38+02:00*%
%TF.ProjectId,shaun-proj,73686175-6e2d-4707-926f-6a2e6b696361,rev?*%
%TF.SameCoordinates,Original*%
%TF.FileFunction,Copper,L2,Bot*%
%TF.FilePolarity,Positive*%
%FSLAX46Y46*%
G04 Gerber Fmt 4.6, Leading zero omitted, Abs format (unit mm)*
G04 Created by KiCad (PCBNEW 9.0.0) date 2025-03-25 01:37:38*
%MOMM*%
%LPD*%
G01*
G04 APERTURE LIST*
G04 Aperture macros list*
%AMRoundRect*
0 Rectangle with rounded corners*
0 $1 Rounding radius*
0 $2 $3 $4 $5 $6 $7 $8 $9 X,Y pos of 4 corners*
0 Add a 4 corners polygon primitive as box body*
4,1,4,$2,$3,$4,$5,$6,$7,$8,$9,$2,$3,0*
0 Add four circle primitives for the rounded corners*
1,1,$1+$1,$2,$3*
1,1,$1+$1,$4,$5*
1,1,$1+$1,$6,$7*
1,1,$1+$1,$8,$9*
0 Add four rect primitives between the rounded corners*
20,1,$1+$1,$2,$3,$4,$5,0*
20,1,$1+$1,$4,$5,$6,$7,0*
20,1,$1+$1,$6,$7,$8,$9,0*
20,1,$1+$1,$8,$9,$2,$3,0*%
G04 Aperture macros list end*
%TA.AperFunction,ComponentPad*%
%ADD10R,1.700000X1.700000*%
%TD*%
%TA.AperFunction,ComponentPad*%
%ADD11O,1.700000X1.700000*%
%TD*%
%TA.AperFunction,HeatsinkPad*%
%ADD12O,2.100000X1.000000*%
%TD*%
%TA.AperFunction,HeatsinkPad*%
%ADD13O,1.800000X1.000000*%
%TD*%
%TA.AperFunction,ComponentPad*%
%ADD14RoundRect,0.250000X-0.350000X-0.625000X0.350000X-0.625000X0.350000X0.625000X-0.350000X0.625000X0*%
%TD*%
%TA.AperFunction,ComponentPad*%
%ADD15O,1.200000X1.750000*%
%TD*%
%TA.AperFunction,HeatsinkPad*%
%ADD16C,0.500000*%
%TD*%
%TA.AperFunction,HeatsinkPad*%
%ADD17R,1.900000X2.900000*%
%TD*%
%TA.AperFunction,ComponentPad*%
%ADD18C,0.600000*%
%TD*%
%TA.AperFunction,SMDPad,CuDef*%
%ADD19R,4.500000X2.950000*%
%TD*%
%TA.AperFunction,ComponentPad*%
%ADD20C,1.400000*%
%TD*%
%TA.AperFunction,ComponentPad*%
%ADD21C,1.600000*%
%TD*%
%TA.AperFunction,ComponentPad*%
%ADD22RoundRect,0.400000X-0.400000X-0.400000X0.400000X-0.400000X0.400000X0.400000X-0.400000X0.400000X0*%
%TD*%
G04 APERTURE END LIST*
D10*
%TO.P,J2,1,Pin_1*%
%TO.N,MOTOR2_B_OUT*%
X184500000Y-73760000D03*
D11*
%TO.P,J2,2,Pin_2*%
%TO.N,MOTOR2_A_OUT*%
X187040000Y-73760000D03*
%TO.P,J2,3,Pin_3*%
%TO.N,MOTOR4_A_OUT*%
X184500000Y-76300000D03*
%TO.P,J2,4,Pin_4*%
%TO.N,MOTOR2_CTRL1*%
X187040000Y-76300000D03*
%TO.P,J2,5,Pin_5*%
%TO.N,MOTOR3_B_OUT*%
X184500000Y-78840000D03*
%TO.P,J2,6,Pin_6*%
%TO.N,MOTOR2_CTRL2*%
X187040000Y-78840000D03*
%TO.P,J2,7,Pin_7*%
%TO.N,CTRL_EXT_LOAD2*%
X184500000Y-81380000D03*
%TO.P,J2,8,Pin_8*%
%TO.N,MOTOR4_CTRL1*%
X187040000Y-81380000D03*
%TO.P,J2,9,Pin_9*%
%TO.N,unconnected-(J2-Pin_9-Pad9)*%
X184500000Y-83920000D03*
%TO.P,J2,10,Pin_10*%
%TO.N,MOTOR4_CTRL2*%
X187040000Y-83920000D03*
%TO.P,J2,11,Pin_11*%
%TO.N,EXT_LOAD2_OUT*%
X184500000Y-86460000D03*
%TO.P,J2,12,Pin_12*%
%TO.N,unconnected-(J2-Pin_12-Pad12)*%
X187040000Y-86460000D03*
%TO.P,J2,13,Pin_13*%
%TO.N,FAST_CHARGE_CTRL*%
X184500000Y-89000000D03*
%TO.P,J2,14,Pin_14*%
%TO.N,BATTERY*%
X187040000Y-89000000D03*
%TO.P,J2,15,Pin_15*%
%TO.N,unconnected-(J2-Pin_15-Pad15)*%
X184500000Y-91540000D03*
%TO.P,J2,16,Pin_16*%
%TO.N,I2C1_SCL*%
X187040000Y-91540000D03*
%TO.P,J2,17,Pin_17*%
%TO.N,I2C1_SDA*%
X184500000Y-94080000D03*
%TO.P,J2,18,Pin_18*%
%TO.N,3V3_OUT*%
X187040000Y-94080000D03*
%TO.P,J2,19,Pin_19*%
%TO.N,GND*%
X184500000Y-96620000D03*
%TO.P,J2,20,Pin_20*%
%TO.N,5V_OUT*%
X187040000Y-96620000D03*
%TO.P,J2,21,Pin_21*%
%TO.N,EXT_LOAD1_OUT*%
X184500000Y-99160000D03*
%TO.P,J2,22,Pin_22*%
%TO.N,HV*%
X187040000Y-99160000D03*
%TO.P,J2,23,Pin_23*%
%TO.N,GND*%
X184500000Y-101700000D03*
%TO.P,J2,24,Pin_24*%
%TO.N,MOTOR3_CTRL1*%
X187040000Y-101700000D03*
%TO.P,J2,25,Pin_25*%
%TO.N,CTRL_EXT_LOAD1*%
X184500000Y-104240000D03*
%TO.P,J2,26,Pin_26*%
%TO.N,MOTOR3_CTRL2*%
X187040000Y-104240000D03*
%TO.P,J2,27,Pin_27*%
%TO.N,MOTOR3_A_OUT*%
X184500000Y-106780000D03*
%TO.P,J2,28,Pin_28*%
%TO.N,MOTOR1_CTRL1*%
X187040000Y-106780000D03*
%TO.P,J2,29,Pin_29*%
%TO.N,MOTOR3_B_OUT*%
X184500000Y-109320000D03*
%TO.P,J2,30,Pin_30*%
%TO.N,MOTOR1_CTRL2*%
X187040000Y-109320000D03*
%TO.P,J2,31,Pin_31*%
%TO.N,MOTOR1_B_OUT*%
X184500000Y-111860000D03*
%TO.P,J2,32,Pin_32*%
%TO.N,MOTOR1_A_OUT*%
X187040000Y-111860000D03*
%TD*%
D12*
%TO.P,J1,S1,SHIELD*%
%TO.N,GND*%
X128125000Y-72680000D03*
D13*
X123925000Y-72680000D03*
D12*
X128125000Y-81320000D03*
D13*
X123925000Y-81320000D03*
%TD*%
D14*
%TO.P,J3,1,Pin_1*%
%TO.N,GND*%
X170430000Y-117180000D03*
D15*
%TO.P,J3,2,Pin_2*%
%TO.N,BATTERY*%
X172430000Y-117180000D03*
%TD*%
D16*
%TO.P,U5,9,EPAD*%
%TO.N,GND*%
X126500000Y-109000000D03*
X126500000Y-110200000D03*
X126500000Y-111400000D03*
D17*
X127200000Y-110200000D03*
D16*
X127900000Y-109000000D03*
X127900000Y-110200000D03*
X127900000Y-111400000D03*
%TD*%
D18*
%TO.P,U2,9,GNDPAD*%
%TO.N,GND*%
X149500000Y-75000000D03*
X148300000Y-75000000D03*
X147000000Y-75000000D03*
X145900000Y-75000000D03*
D19*
X147700000Y-75600000D03*
D18*
X149500000Y-76200000D03*
X148300000Y-76200000D03*
X147000000Y-76200000D03*
X145900000Y-76200000D03*
%TD*%
D20*
%TO.P,JP2,1,A*%
%TO.N,BATTERY_POWER*%
X173010000Y-92370000D03*
%TO.P,JP2,2,B*%
%TO.N,3V3_OUT*%
X175550000Y-92370000D03*
%TD*%
D21*
%TO.P,SW2,*%
%TO.N,*%
X122580000Y-100650000D03*
X122580000Y-87350000D03*
D22*
%TO.P,SW2,1,A*%
%TO.N,BATTERY*%
X131780000Y-98800000D03*
D21*
%TO.P,SW2,2,B*%
%TO.N,BATTERY_POWER*%
X131780000Y-94000000D03*
%TO.P,SW2,3,C*%
%TO.N,GND*%
X131780000Y-89200000D03*
%TD*%
D20*
%TO.P,JP1,1,A*%
%TO.N,VBUS*%
X173010000Y-89020000D03*
%TO.P,JP1,2,B*%
%TO.N,HV*%
X175550000Y-89020000D03*
%TD*%
M02*
