M48
; DRILL file {KiCad 9.0.0} date 2025-03-25T01:37:38+0200
; FORMAT={-:-/ absolute / inch / decimal}
; #@! TF.CreationDate,2025-03-25T01:37:38+02:00
; #@! TF.GenerationSoftware,Kicad,Pcbnew,9.0.0
; #@! TF.FileFunction,Plated,1,2,PTH
FMAT,2
INCH
; #@! TA.AperFunction,Plated,PTH,ComponentDrill
T1C0.0079
; #@! TA.AperFunction,Plated,PTH,ComponentDrill
T2C0.0118
; #@! TA.AperFunction,Plated,PTH,ComponentDrill
T3C0.0236
; #@! TA.AperFunction,Plated,PTH,ComponentDrill
T4C0.0295
; #@! TA.AperFunction,Plated,PTH,ComponentDrill
T5C0.0315
; #@! TA.AperFunction,Plated,PTH,ComponentDrill
T6C0.0350
; #@! TA.AperFunction,Plated,PTH,ComponentDrill
T7C0.0394
%
G90
G05
T1
X4.9803Y-4.2913
X4.9803Y-4.3386
X4.9803Y-4.3858
X5.0354Y-4.2913
X5.0354Y-4.3386
X5.0354Y-4.3858
T2
X5.7441Y-2.9528
X5.7441Y-3.0
X5.7874Y-2.9528
X5.7874Y-3.0
X5.8386Y-2.9528
X5.8386Y-3.0
X5.8858Y-2.9528
X5.8858Y-3.0
T4
X6.7098Y-4.6134
X6.7886Y-4.6134
T5
X6.8114Y-3.5047
X6.8114Y-3.6366
X6.9114Y-3.5047
X6.9114Y-3.6366
T6
X4.826Y-3.439
X4.826Y-3.9626
X5.1882Y-3.5118
X5.1882Y-3.7008
X5.1882Y-3.8898
T7
X7.2638Y-2.9039
X7.2638Y-3.0039
X7.2638Y-3.1039
X7.2638Y-3.2039
X7.2638Y-3.3039
X7.2638Y-3.4039
X7.2638Y-3.5039
X7.2638Y-3.6039
X7.2638Y-3.7039
X7.2638Y-3.8039
X7.2638Y-3.9039
X7.2638Y-4.0039
X7.2638Y-4.1039
X7.2638Y-4.2039
X7.2638Y-4.3039
X7.2638Y-4.4039
X7.3638Y-2.9039
X7.3638Y-3.0039
X7.3638Y-3.1039
X7.3638Y-3.2039
X7.3638Y-3.3039
X7.3638Y-3.4039
X7.3638Y-3.5039
X7.3638Y-3.6039
X7.3638Y-3.7039
X7.3638Y-3.8039
X7.3638Y-3.9039
X7.3638Y-4.0039
X7.3638Y-4.1039
X7.3638Y-4.2039
X7.3638Y-4.3039
X7.3638Y-4.4039
T3
G00X4.8947Y-2.8614
M15
G01X4.8632Y-2.8614
M16
G05
G00X4.8947Y-3.2016
M15
G01X4.8632Y-3.2016
M16
G05
G00X5.0659Y-2.8614
M15
G01X5.0226Y-2.8614
M16
G05
G00X5.0659Y-3.2016
M15
G01X5.0226Y-3.2016
M16
G05
M30
