%TF.GenerationSoftware,KiCad,Pcbnew,9.0.0*%
%TF.CreationDate,2025-03-25T19:31:46+02:00*%
%TF.ProjectId,shaun-proj,73686175-6e2d-4707-926f-6a2e6b696361,rev?*%
%TF.SameCoordinates,Original*%
%TF.FileFunction,Legend,Top*%
%TF.FilePolarity,Positive*%
%FSLAX46Y46*%
G04 Gerber Fmt 4.6, Leading zero omitted, Abs format (unit mm)*
G04 Created by KiCad (PCBNEW 9.0.0) date 2025-03-25 19:31:46*
%MOMM*%
%LPD*%
G01*
G04 APERTURE LIST*
G04 Aperture macros list*
%AMRoundRect*
0 Rectangle with rounded corners*
0 $1 Rounding radius*
0 $2 $3 $4 $5 $6 $7 $8 $9 X,Y pos of 4 corners*
0 Add a 4 corners polygon primitive as box body*
4,1,4,$2,$3,$4,$5,$6,$7,$8,$9,$2,$3,0*
0 Add four circle primitives for the rounded corners*
1,1,$1+$1,$2,$3*
1,1,$1+$1,$4,$5*
1,1,$1+$1,$6,$7*
1,1,$1+$1,$8,$9*
0 Add four rect primitives between the rounded corners*
20,1,$1+$1,$2,$3,$4,$5,0*
20,1,$1+$1,$4,$5,$6,$7,0*
20,1,$1+$1,$6,$7,$8,$9,0*
20,1,$1+$1,$8,$9,$2,$3,0*%
%AMFreePoly0*
4,1,6,1.000000,0.000000,0.500000,-0.750000,-0.500000,-0.750000,-0.500000,0.750000,0.500000,0.750000,1.000000,0.000000,1.000000,0.000000,$1*%
%AMFreePoly1*
4,1,6,0.500000,-0.750000,-0.650000,-0.750000,-0.150000,0.000000,-0.650000,0.750000,0.500000,0.750000,0.500000,-0.750000,0.500000,-0.750000,$1*%
G04 Aperture macros list end*
%ADD10C,0.150000*%
%ADD11C,0.100000*%
%ADD12C,0.120000*%
%ADD13FreePoly0,270.000000*%
%ADD14FreePoly1,270.000000*%
%ADD15RoundRect,0.237500X-0.250000X-0.237500X0.250000X-0.237500X0.250000X0.237500X-0.250000X0.237500X0*%
%ADD16RoundRect,0.237500X0.250000X0.237500X-0.250000X0.237500X-0.250000X-0.237500X0.250000X-0.237500X0*%
%ADD17RoundRect,0.250000X-0.400000X-0.625000X0.400000X-0.625000X0.400000X0.625000X-0.400000X0.625000X0*%
%ADD18RoundRect,0.150000X0.150000X-0.662500X0.150000X0.662500X-0.150000X0.662500X-0.150000X-0.662500X0*%
%ADD19R,3.200000X2.514000*%
%ADD20RoundRect,0.150000X-0.150000X0.687500X-0.150000X-0.687500X0.150000X-0.687500X0.150000X0.687500X0*%
%ADD21R,3.300000X2.100000*%
%ADD22RoundRect,0.200000X-0.275000X0.200000X-0.275000X-0.200000X0.275000X-0.200000X0.275000X0.200000X0*%
%ADD23RoundRect,0.237500X-0.300000X-0.237500X0.300000X-0.237500X0.300000X0.237500X-0.300000X0.237500X0*%
%ADD24RoundRect,0.150000X-0.150000X0.587500X-0.150000X-0.587500X0.150000X-0.587500X0.150000X0.587500X0*%
%ADD25RoundRect,0.150000X0.150000X-0.825000X0.150000X0.825000X-0.150000X0.825000X-0.150000X-0.825000X0*%
%ADD26C,1.500000*%
%ADD27FreePoly0,90.000000*%
%ADD28FreePoly1,90.000000*%
%ADD29RoundRect,0.237500X0.300000X0.237500X-0.300000X0.237500X-0.300000X-0.237500X0.300000X-0.237500X0*%
%ADD30RoundRect,0.250000X-0.337500X-0.475000X0.337500X-0.475000X0.337500X0.475000X-0.337500X0.475000X0*%
%ADD31RoundRect,0.200000X-0.200000X-0.275000X0.200000X-0.275000X0.200000X0.275000X-0.200000X0.275000X0*%
%ADD32RoundRect,0.200000X0.200000X0.275000X-0.200000X0.275000X-0.200000X-0.275000X0.200000X-0.275000X0*%
%ADD33RoundRect,0.237500X0.287500X0.237500X-0.287500X0.237500X-0.287500X-0.237500X0.287500X-0.237500X0*%
%ADD34RoundRect,0.150000X0.825000X0.150000X-0.825000X0.150000X-0.825000X-0.150000X0.825000X-0.150000X0*%
%ADD35R,2.410000X3.300000*%
%ADD36RoundRect,0.200000X0.275000X-0.200000X0.275000X0.200000X-0.275000X0.200000X-0.275000X-0.200000X0*%
%ADD37RoundRect,0.250000X0.325000X0.450000X-0.325000X0.450000X-0.325000X-0.450000X0.325000X-0.450000X0*%
%ADD38RoundRect,0.237500X-0.237500X0.250000X-0.237500X-0.250000X0.237500X-0.250000X0.237500X0.250000X0*%
%ADD39RoundRect,0.155000X-0.155000X0.212500X-0.155000X-0.212500X0.155000X-0.212500X0.155000X0.212500X0*%
%ADD40RoundRect,0.150000X0.587500X0.150000X-0.587500X0.150000X-0.587500X-0.150000X0.587500X-0.150000X0*%
%ADD41RoundRect,0.250000X-0.625000X0.350000X-0.625000X-0.350000X0.625000X-0.350000X0.625000X0.350000X0*%
%ADD42O,1.750000X1.200000*%
%ADD43RoundRect,0.250000X0.350000X0.450000X-0.350000X0.450000X-0.350000X-0.450000X0.350000X-0.450000X0*%
%ADD44RoundRect,0.250000X-0.325000X-0.450000X0.325000X-0.450000X0.325000X0.450000X-0.325000X0.450000X0*%
%ADD45RoundRect,0.250000X-1.500000X-0.550000X1.500000X-0.550000X1.500000X0.550000X-1.500000X0.550000X0*%
%ADD46RoundRect,0.150000X-0.587500X-0.150000X0.587500X-0.150000X0.587500X0.150000X-0.587500X0.150000X0*%
%ADD47RoundRect,0.250000X-1.000000X-0.650000X1.000000X-0.650000X1.000000X0.650000X-1.000000X0.650000X0*%
%ADD48C,1.600000*%
%ADD49RoundRect,0.400000X-0.400000X-0.400000X0.400000X-0.400000X0.400000X0.400000X-0.400000X0.400000X0*%
%ADD50RoundRect,0.155000X0.155000X-0.212500X0.155000X0.212500X-0.155000X0.212500X-0.155000X-0.212500X0*%
%ADD51RoundRect,0.250000X-1.200000X-2.450000X1.200000X-2.450000X1.200000X2.450000X-1.200000X2.450000X0*%
%ADD52RoundRect,0.237500X0.237500X-0.250000X0.237500X0.250000X-0.237500X0.250000X-0.237500X-0.250000X0*%
%ADD53R,1.700000X1.700000*%
%ADD54O,1.700000X1.700000*%
%ADD55C,0.600000*%
%ADD56C,0.650000*%
%ADD57R,1.240000X0.600000*%
%ADD58R,1.240000X0.300000*%
%ADD59O,2.100000X1.000000*%
%ADD60O,1.800000X1.000000*%
G04 APERTURE END LIST*
D10*
X146122493Y-94869819D02*
X146122493Y-95584104D01*
X146122493Y-95584104D02*
X146074874Y-95726961D01*
X146074874Y-95726961D02*
X145979636Y-95822200D01*
X145979636Y-95822200D02*
X145836779Y-95869819D01*
X145836779Y-95869819D02*
X145741541Y-95869819D01*
X147074874Y-95869819D02*
X146598684Y-95869819D01*
X146598684Y-95869819D02*
X146598684Y-94869819D01*
X147979636Y-95774580D02*
X147932017Y-95822200D01*
X147932017Y-95822200D02*
X147789160Y-95869819D01*
X147789160Y-95869819D02*
X147693922Y-95869819D01*
X147693922Y-95869819D02*
X147551065Y-95822200D01*
X147551065Y-95822200D02*
X147455827Y-95726961D01*
X147455827Y-95726961D02*
X147408208Y-95631723D01*
X147408208Y-95631723D02*
X147360589Y-95441247D01*
X147360589Y-95441247D02*
X147360589Y-95298390D01*
X147360589Y-95298390D02*
X147408208Y-95107914D01*
X147408208Y-95107914D02*
X147455827Y-95012676D01*
X147455827Y-95012676D02*
X147551065Y-94917438D01*
X147551065Y-94917438D02*
X147693922Y-94869819D01*
X147693922Y-94869819D02*
X147789160Y-94869819D01*
X147789160Y-94869819D02*
X147932017Y-94917438D01*
X147932017Y-94917438D02*
X147979636Y-94965057D01*
X148693922Y-94869819D02*
X148693922Y-95584104D01*
X148693922Y-95584104D02*
X148646303Y-95726961D01*
X148646303Y-95726961D02*
X148551065Y-95822200D01*
X148551065Y-95822200D02*
X148408208Y-95869819D01*
X148408208Y-95869819D02*
X148312970Y-95869819D01*
X149646303Y-95869819D02*
X149170113Y-95869819D01*
X149170113Y-95869819D02*
X149170113Y-94869819D01*
X150551065Y-95774580D02*
X150503446Y-95822200D01*
X150503446Y-95822200D02*
X150360589Y-95869819D01*
X150360589Y-95869819D02*
X150265351Y-95869819D01*
X150265351Y-95869819D02*
X150122494Y-95822200D01*
X150122494Y-95822200D02*
X150027256Y-95726961D01*
X150027256Y-95726961D02*
X149979637Y-95631723D01*
X149979637Y-95631723D02*
X149932018Y-95441247D01*
X149932018Y-95441247D02*
X149932018Y-95298390D01*
X149932018Y-95298390D02*
X149979637Y-95107914D01*
X149979637Y-95107914D02*
X150027256Y-95012676D01*
X150027256Y-95012676D02*
X150122494Y-94917438D01*
X150122494Y-94917438D02*
X150265351Y-94869819D01*
X150265351Y-94869819D02*
X150360589Y-94869819D01*
X150360589Y-94869819D02*
X150503446Y-94917438D01*
X150503446Y-94917438D02*
X150551065Y-94965057D01*
X151265351Y-94869819D02*
X151265351Y-95584104D01*
X151265351Y-95584104D02*
X151217732Y-95726961D01*
X151217732Y-95726961D02*
X151122494Y-95822200D01*
X151122494Y-95822200D02*
X150979637Y-95869819D01*
X150979637Y-95869819D02*
X150884399Y-95869819D01*
X152217732Y-95869819D02*
X151741542Y-95869819D01*
X151741542Y-95869819D02*
X151741542Y-94869819D01*
X153122494Y-95774580D02*
X153074875Y-95822200D01*
X153074875Y-95822200D02*
X152932018Y-95869819D01*
X152932018Y-95869819D02*
X152836780Y-95869819D01*
X152836780Y-95869819D02*
X152693923Y-95822200D01*
X152693923Y-95822200D02*
X152598685Y-95726961D01*
X152598685Y-95726961D02*
X152551066Y-95631723D01*
X152551066Y-95631723D02*
X152503447Y-95441247D01*
X152503447Y-95441247D02*
X152503447Y-95298390D01*
X152503447Y-95298390D02*
X152551066Y-95107914D01*
X152551066Y-95107914D02*
X152598685Y-95012676D01*
X152598685Y-95012676D02*
X152693923Y-94917438D01*
X152693923Y-94917438D02*
X152836780Y-94869819D01*
X152836780Y-94869819D02*
X152932018Y-94869819D01*
X152932018Y-94869819D02*
X153074875Y-94917438D01*
X153074875Y-94917438D02*
X153122494Y-94965057D01*
X153836780Y-94869819D02*
X153836780Y-95584104D01*
X153836780Y-95584104D02*
X153789161Y-95726961D01*
X153789161Y-95726961D02*
X153693923Y-95822200D01*
X153693923Y-95822200D02*
X153551066Y-95869819D01*
X153551066Y-95869819D02*
X153455828Y-95869819D01*
X154789161Y-95869819D02*
X154312971Y-95869819D01*
X154312971Y-95869819D02*
X154312971Y-94869819D01*
X155693923Y-95774580D02*
X155646304Y-95822200D01*
X155646304Y-95822200D02*
X155503447Y-95869819D01*
X155503447Y-95869819D02*
X155408209Y-95869819D01*
X155408209Y-95869819D02*
X155265352Y-95822200D01*
X155265352Y-95822200D02*
X155170114Y-95726961D01*
X155170114Y-95726961D02*
X155122495Y-95631723D01*
X155122495Y-95631723D02*
X155074876Y-95441247D01*
X155074876Y-95441247D02*
X155074876Y-95298390D01*
X155074876Y-95298390D02*
X155122495Y-95107914D01*
X155122495Y-95107914D02*
X155170114Y-95012676D01*
X155170114Y-95012676D02*
X155265352Y-94917438D01*
X155265352Y-94917438D02*
X155408209Y-94869819D01*
X155408209Y-94869819D02*
X155503447Y-94869819D01*
X155503447Y-94869819D02*
X155646304Y-94917438D01*
X155646304Y-94917438D02*
X155693923Y-94965057D01*
X133254819Y-88333333D02*
X133969104Y-88333333D01*
X133969104Y-88333333D02*
X134111961Y-88380952D01*
X134111961Y-88380952D02*
X134207200Y-88476190D01*
X134207200Y-88476190D02*
X134254819Y-88619047D01*
X134254819Y-88619047D02*
X134254819Y-88714285D01*
X134254819Y-87857142D02*
X133254819Y-87857142D01*
X133254819Y-87857142D02*
X133254819Y-87476190D01*
X133254819Y-87476190D02*
X133302438Y-87380952D01*
X133302438Y-87380952D02*
X133350057Y-87333333D01*
X133350057Y-87333333D02*
X133445295Y-87285714D01*
X133445295Y-87285714D02*
X133588152Y-87285714D01*
X133588152Y-87285714D02*
X133683390Y-87333333D01*
X133683390Y-87333333D02*
X133731009Y-87380952D01*
X133731009Y-87380952D02*
X133778628Y-87476190D01*
X133778628Y-87476190D02*
X133778628Y-87857142D01*
X133350057Y-86904761D02*
X133302438Y-86857142D01*
X133302438Y-86857142D02*
X133254819Y-86761904D01*
X133254819Y-86761904D02*
X133254819Y-86523809D01*
X133254819Y-86523809D02*
X133302438Y-86428571D01*
X133302438Y-86428571D02*
X133350057Y-86380952D01*
X133350057Y-86380952D02*
X133445295Y-86333333D01*
X133445295Y-86333333D02*
X133540533Y-86333333D01*
X133540533Y-86333333D02*
X133683390Y-86380952D01*
X133683390Y-86380952D02*
X134254819Y-86952380D01*
X134254819Y-86952380D02*
X134254819Y-86333333D01*
X127254819Y-88333333D02*
X127969104Y-88333333D01*
X127969104Y-88333333D02*
X128111961Y-88380952D01*
X128111961Y-88380952D02*
X128207200Y-88476190D01*
X128207200Y-88476190D02*
X128254819Y-88619047D01*
X128254819Y-88619047D02*
X128254819Y-88714285D01*
X128254819Y-87857142D02*
X127254819Y-87857142D01*
X127254819Y-87857142D02*
X127254819Y-87476190D01*
X127254819Y-87476190D02*
X127302438Y-87380952D01*
X127302438Y-87380952D02*
X127350057Y-87333333D01*
X127350057Y-87333333D02*
X127445295Y-87285714D01*
X127445295Y-87285714D02*
X127588152Y-87285714D01*
X127588152Y-87285714D02*
X127683390Y-87333333D01*
X127683390Y-87333333D02*
X127731009Y-87380952D01*
X127731009Y-87380952D02*
X127778628Y-87476190D01*
X127778628Y-87476190D02*
X127778628Y-87857142D01*
X128254819Y-86333333D02*
X128254819Y-86904761D01*
X128254819Y-86619047D02*
X127254819Y-86619047D01*
X127254819Y-86619047D02*
X127397676Y-86714285D01*
X127397676Y-86714285D02*
X127492914Y-86809523D01*
X127492914Y-86809523D02*
X127540533Y-86904761D01*
X130357142Y-89524819D02*
X130023809Y-89048628D01*
X129785714Y-89524819D02*
X129785714Y-88524819D01*
X129785714Y-88524819D02*
X130166666Y-88524819D01*
X130166666Y-88524819D02*
X130261904Y-88572438D01*
X130261904Y-88572438D02*
X130309523Y-88620057D01*
X130309523Y-88620057D02*
X130357142Y-88715295D01*
X130357142Y-88715295D02*
X130357142Y-88858152D01*
X130357142Y-88858152D02*
X130309523Y-88953390D01*
X130309523Y-88953390D02*
X130261904Y-89001009D01*
X130261904Y-89001009D02*
X130166666Y-89048628D01*
X130166666Y-89048628D02*
X129785714Y-89048628D01*
X130738095Y-88620057D02*
X130785714Y-88572438D01*
X130785714Y-88572438D02*
X130880952Y-88524819D01*
X130880952Y-88524819D02*
X131119047Y-88524819D01*
X131119047Y-88524819D02*
X131214285Y-88572438D01*
X131214285Y-88572438D02*
X131261904Y-88620057D01*
X131261904Y-88620057D02*
X131309523Y-88715295D01*
X131309523Y-88715295D02*
X131309523Y-88810533D01*
X131309523Y-88810533D02*
X131261904Y-88953390D01*
X131261904Y-88953390D02*
X130690476Y-89524819D01*
X130690476Y-89524819D02*
X131309523Y-89524819D01*
X132261904Y-89524819D02*
X131690476Y-89524819D01*
X131976190Y-89524819D02*
X131976190Y-88524819D01*
X131976190Y-88524819D02*
X131880952Y-88667676D01*
X131880952Y-88667676D02*
X131785714Y-88762914D01*
X131785714Y-88762914D02*
X131690476Y-88810533D01*
X128269642Y-90384819D02*
X127936309Y-89908628D01*
X127698214Y-90384819D02*
X127698214Y-89384819D01*
X127698214Y-89384819D02*
X128079166Y-89384819D01*
X128079166Y-89384819D02*
X128174404Y-89432438D01*
X128174404Y-89432438D02*
X128222023Y-89480057D01*
X128222023Y-89480057D02*
X128269642Y-89575295D01*
X128269642Y-89575295D02*
X128269642Y-89718152D01*
X128269642Y-89718152D02*
X128222023Y-89813390D01*
X128222023Y-89813390D02*
X128174404Y-89861009D01*
X128174404Y-89861009D02*
X128079166Y-89908628D01*
X128079166Y-89908628D02*
X127698214Y-89908628D01*
X128650595Y-89480057D02*
X128698214Y-89432438D01*
X128698214Y-89432438D02*
X128793452Y-89384819D01*
X128793452Y-89384819D02*
X129031547Y-89384819D01*
X129031547Y-89384819D02*
X129126785Y-89432438D01*
X129126785Y-89432438D02*
X129174404Y-89480057D01*
X129174404Y-89480057D02*
X129222023Y-89575295D01*
X129222023Y-89575295D02*
X129222023Y-89670533D01*
X129222023Y-89670533D02*
X129174404Y-89813390D01*
X129174404Y-89813390D02*
X128602976Y-90384819D01*
X128602976Y-90384819D02*
X129222023Y-90384819D01*
X129841071Y-89384819D02*
X129936309Y-89384819D01*
X129936309Y-89384819D02*
X130031547Y-89432438D01*
X130031547Y-89432438D02*
X130079166Y-89480057D01*
X130079166Y-89480057D02*
X130126785Y-89575295D01*
X130126785Y-89575295D02*
X130174404Y-89765771D01*
X130174404Y-89765771D02*
X130174404Y-90003866D01*
X130174404Y-90003866D02*
X130126785Y-90194342D01*
X130126785Y-90194342D02*
X130079166Y-90289580D01*
X130079166Y-90289580D02*
X130031547Y-90337200D01*
X130031547Y-90337200D02*
X129936309Y-90384819D01*
X129936309Y-90384819D02*
X129841071Y-90384819D01*
X129841071Y-90384819D02*
X129745833Y-90337200D01*
X129745833Y-90337200D02*
X129698214Y-90289580D01*
X129698214Y-90289580D02*
X129650595Y-90194342D01*
X129650595Y-90194342D02*
X129602976Y-90003866D01*
X129602976Y-90003866D02*
X129602976Y-89765771D01*
X129602976Y-89765771D02*
X129650595Y-89575295D01*
X129650595Y-89575295D02*
X129698214Y-89480057D01*
X129698214Y-89480057D02*
X129745833Y-89432438D01*
X129745833Y-89432438D02*
X129841071Y-89384819D01*
X123454819Y-77142857D02*
X122978628Y-77476190D01*
X123454819Y-77714285D02*
X122454819Y-77714285D01*
X122454819Y-77714285D02*
X122454819Y-77333333D01*
X122454819Y-77333333D02*
X122502438Y-77238095D01*
X122502438Y-77238095D02*
X122550057Y-77190476D01*
X122550057Y-77190476D02*
X122645295Y-77142857D01*
X122645295Y-77142857D02*
X122788152Y-77142857D01*
X122788152Y-77142857D02*
X122883390Y-77190476D01*
X122883390Y-77190476D02*
X122931009Y-77238095D01*
X122931009Y-77238095D02*
X122978628Y-77333333D01*
X122978628Y-77333333D02*
X122978628Y-77714285D01*
X123454819Y-76190476D02*
X123454819Y-76761904D01*
X123454819Y-76476190D02*
X122454819Y-76476190D01*
X122454819Y-76476190D02*
X122597676Y-76571428D01*
X122597676Y-76571428D02*
X122692914Y-76666666D01*
X122692914Y-76666666D02*
X122740533Y-76761904D01*
X123454819Y-75714285D02*
X123454819Y-75523809D01*
X123454819Y-75523809D02*
X123407200Y-75428571D01*
X123407200Y-75428571D02*
X123359580Y-75380952D01*
X123359580Y-75380952D02*
X123216723Y-75285714D01*
X123216723Y-75285714D02*
X123026247Y-75238095D01*
X123026247Y-75238095D02*
X122645295Y-75238095D01*
X122645295Y-75238095D02*
X122550057Y-75285714D01*
X122550057Y-75285714D02*
X122502438Y-75333333D01*
X122502438Y-75333333D02*
X122454819Y-75428571D01*
X122454819Y-75428571D02*
X122454819Y-75619047D01*
X122454819Y-75619047D02*
X122502438Y-75714285D01*
X122502438Y-75714285D02*
X122550057Y-75761904D01*
X122550057Y-75761904D02*
X122645295Y-75809523D01*
X122645295Y-75809523D02*
X122883390Y-75809523D01*
X122883390Y-75809523D02*
X122978628Y-75761904D01*
X122978628Y-75761904D02*
X123026247Y-75714285D01*
X123026247Y-75714285D02*
X123073866Y-75619047D01*
X123073866Y-75619047D02*
X123073866Y-75428571D01*
X123073866Y-75428571D02*
X123026247Y-75333333D01*
X123026247Y-75333333D02*
X122978628Y-75285714D01*
X122978628Y-75285714D02*
X122883390Y-75238095D01*
X123454819Y-74166666D02*
X122978628Y-74499999D01*
X123454819Y-74738094D02*
X122454819Y-74738094D01*
X122454819Y-74738094D02*
X122454819Y-74357142D01*
X122454819Y-74357142D02*
X122502438Y-74261904D01*
X122502438Y-74261904D02*
X122550057Y-74214285D01*
X122550057Y-74214285D02*
X122645295Y-74166666D01*
X122645295Y-74166666D02*
X122788152Y-74166666D01*
X122788152Y-74166666D02*
X122883390Y-74214285D01*
X122883390Y-74214285D02*
X122931009Y-74261904D01*
X122931009Y-74261904D02*
X122978628Y-74357142D01*
X122978628Y-74357142D02*
X122978628Y-74738094D01*
X123454819Y-73690475D02*
X123454819Y-73499999D01*
X123454819Y-73499999D02*
X123407200Y-73404761D01*
X123407200Y-73404761D02*
X123359580Y-73357142D01*
X123359580Y-73357142D02*
X123216723Y-73261904D01*
X123216723Y-73261904D02*
X123026247Y-73214285D01*
X123026247Y-73214285D02*
X122645295Y-73214285D01*
X122645295Y-73214285D02*
X122550057Y-73261904D01*
X122550057Y-73261904D02*
X122502438Y-73309523D01*
X122502438Y-73309523D02*
X122454819Y-73404761D01*
X122454819Y-73404761D02*
X122454819Y-73595237D01*
X122454819Y-73595237D02*
X122502438Y-73690475D01*
X122502438Y-73690475D02*
X122550057Y-73738094D01*
X122550057Y-73738094D02*
X122645295Y-73785713D01*
X122645295Y-73785713D02*
X122883390Y-73785713D01*
X122883390Y-73785713D02*
X122978628Y-73738094D01*
X122978628Y-73738094D02*
X123026247Y-73690475D01*
X123026247Y-73690475D02*
X123073866Y-73595237D01*
X123073866Y-73595237D02*
X123073866Y-73404761D01*
X123073866Y-73404761D02*
X123026247Y-73309523D01*
X123026247Y-73309523D02*
X122978628Y-73261904D01*
X122978628Y-73261904D02*
X122883390Y-73214285D01*
X130769819Y-70391904D02*
X131579342Y-70391904D01*
X131579342Y-70391904D02*
X131674580Y-70344285D01*
X131674580Y-70344285D02*
X131722200Y-70296666D01*
X131722200Y-70296666D02*
X131769819Y-70201428D01*
X131769819Y-70201428D02*
X131769819Y-70010952D01*
X131769819Y-70010952D02*
X131722200Y-69915714D01*
X131722200Y-69915714D02*
X131674580Y-69868095D01*
X131674580Y-69868095D02*
X131579342Y-69820476D01*
X131579342Y-69820476D02*
X130769819Y-69820476D01*
X130865057Y-69391904D02*
X130817438Y-69344285D01*
X130817438Y-69344285D02*
X130769819Y-69249047D01*
X130769819Y-69249047D02*
X130769819Y-69010952D01*
X130769819Y-69010952D02*
X130817438Y-68915714D01*
X130817438Y-68915714D02*
X130865057Y-68868095D01*
X130865057Y-68868095D02*
X130960295Y-68820476D01*
X130960295Y-68820476D02*
X131055533Y-68820476D01*
X131055533Y-68820476D02*
X131198390Y-68868095D01*
X131198390Y-68868095D02*
X131769819Y-69439523D01*
X131769819Y-69439523D02*
X131769819Y-68820476D01*
X122869819Y-55261904D02*
X123679342Y-55261904D01*
X123679342Y-55261904D02*
X123774580Y-55214285D01*
X123774580Y-55214285D02*
X123822200Y-55166666D01*
X123822200Y-55166666D02*
X123869819Y-55071428D01*
X123869819Y-55071428D02*
X123869819Y-54880952D01*
X123869819Y-54880952D02*
X123822200Y-54785714D01*
X123822200Y-54785714D02*
X123774580Y-54738095D01*
X123774580Y-54738095D02*
X123679342Y-54690476D01*
X123679342Y-54690476D02*
X122869819Y-54690476D01*
X123869819Y-53690476D02*
X123869819Y-54261904D01*
X123869819Y-53976190D02*
X122869819Y-53976190D01*
X122869819Y-53976190D02*
X123012676Y-54071428D01*
X123012676Y-54071428D02*
X123107914Y-54166666D01*
X123107914Y-54166666D02*
X123155533Y-54261904D01*
X159272142Y-64024819D02*
X158938809Y-63548628D01*
X158700714Y-64024819D02*
X158700714Y-63024819D01*
X158700714Y-63024819D02*
X159081666Y-63024819D01*
X159081666Y-63024819D02*
X159176904Y-63072438D01*
X159176904Y-63072438D02*
X159224523Y-63120057D01*
X159224523Y-63120057D02*
X159272142Y-63215295D01*
X159272142Y-63215295D02*
X159272142Y-63358152D01*
X159272142Y-63358152D02*
X159224523Y-63453390D01*
X159224523Y-63453390D02*
X159176904Y-63501009D01*
X159176904Y-63501009D02*
X159081666Y-63548628D01*
X159081666Y-63548628D02*
X158700714Y-63548628D01*
X160224523Y-64024819D02*
X159653095Y-64024819D01*
X159938809Y-64024819D02*
X159938809Y-63024819D01*
X159938809Y-63024819D02*
X159843571Y-63167676D01*
X159843571Y-63167676D02*
X159748333Y-63262914D01*
X159748333Y-63262914D02*
X159653095Y-63310533D01*
X160557857Y-63024819D02*
X161176904Y-63024819D01*
X161176904Y-63024819D02*
X160843571Y-63405771D01*
X160843571Y-63405771D02*
X160986428Y-63405771D01*
X160986428Y-63405771D02*
X161081666Y-63453390D01*
X161081666Y-63453390D02*
X161129285Y-63501009D01*
X161129285Y-63501009D02*
X161176904Y-63596247D01*
X161176904Y-63596247D02*
X161176904Y-63834342D01*
X161176904Y-63834342D02*
X161129285Y-63929580D01*
X161129285Y-63929580D02*
X161081666Y-63977200D01*
X161081666Y-63977200D02*
X160986428Y-64024819D01*
X160986428Y-64024819D02*
X160700714Y-64024819D01*
X160700714Y-64024819D02*
X160605476Y-63977200D01*
X160605476Y-63977200D02*
X160557857Y-63929580D01*
X180509819Y-80822857D02*
X180033628Y-81156190D01*
X180509819Y-81394285D02*
X179509819Y-81394285D01*
X179509819Y-81394285D02*
X179509819Y-81013333D01*
X179509819Y-81013333D02*
X179557438Y-80918095D01*
X179557438Y-80918095D02*
X179605057Y-80870476D01*
X179605057Y-80870476D02*
X179700295Y-80822857D01*
X179700295Y-80822857D02*
X179843152Y-80822857D01*
X179843152Y-80822857D02*
X179938390Y-80870476D01*
X179938390Y-80870476D02*
X179986009Y-80918095D01*
X179986009Y-80918095D02*
X180033628Y-81013333D01*
X180033628Y-81013333D02*
X180033628Y-81394285D01*
X180509819Y-79870476D02*
X180509819Y-80441904D01*
X180509819Y-80156190D02*
X179509819Y-80156190D01*
X179509819Y-80156190D02*
X179652676Y-80251428D01*
X179652676Y-80251428D02*
X179747914Y-80346666D01*
X179747914Y-80346666D02*
X179795533Y-80441904D01*
X179509819Y-79251428D02*
X179509819Y-79156190D01*
X179509819Y-79156190D02*
X179557438Y-79060952D01*
X179557438Y-79060952D02*
X179605057Y-79013333D01*
X179605057Y-79013333D02*
X179700295Y-78965714D01*
X179700295Y-78965714D02*
X179890771Y-78918095D01*
X179890771Y-78918095D02*
X180128866Y-78918095D01*
X180128866Y-78918095D02*
X180319342Y-78965714D01*
X180319342Y-78965714D02*
X180414580Y-79013333D01*
X180414580Y-79013333D02*
X180462200Y-79060952D01*
X180462200Y-79060952D02*
X180509819Y-79156190D01*
X180509819Y-79156190D02*
X180509819Y-79251428D01*
X180509819Y-79251428D02*
X180462200Y-79346666D01*
X180462200Y-79346666D02*
X180414580Y-79394285D01*
X180414580Y-79394285D02*
X180319342Y-79441904D01*
X180319342Y-79441904D02*
X180128866Y-79489523D01*
X180128866Y-79489523D02*
X179890771Y-79489523D01*
X179890771Y-79489523D02*
X179700295Y-79441904D01*
X179700295Y-79441904D02*
X179605057Y-79394285D01*
X179605057Y-79394285D02*
X179557438Y-79346666D01*
X179557438Y-79346666D02*
X179509819Y-79251428D01*
X111748333Y-94929580D02*
X111700714Y-94977200D01*
X111700714Y-94977200D02*
X111557857Y-95024819D01*
X111557857Y-95024819D02*
X111462619Y-95024819D01*
X111462619Y-95024819D02*
X111319762Y-94977200D01*
X111319762Y-94977200D02*
X111224524Y-94881961D01*
X111224524Y-94881961D02*
X111176905Y-94786723D01*
X111176905Y-94786723D02*
X111129286Y-94596247D01*
X111129286Y-94596247D02*
X111129286Y-94453390D01*
X111129286Y-94453390D02*
X111176905Y-94262914D01*
X111176905Y-94262914D02*
X111224524Y-94167676D01*
X111224524Y-94167676D02*
X111319762Y-94072438D01*
X111319762Y-94072438D02*
X111462619Y-94024819D01*
X111462619Y-94024819D02*
X111557857Y-94024819D01*
X111557857Y-94024819D02*
X111700714Y-94072438D01*
X111700714Y-94072438D02*
X111748333Y-94120057D01*
X112653095Y-94024819D02*
X112176905Y-94024819D01*
X112176905Y-94024819D02*
X112129286Y-94501009D01*
X112129286Y-94501009D02*
X112176905Y-94453390D01*
X112176905Y-94453390D02*
X112272143Y-94405771D01*
X112272143Y-94405771D02*
X112510238Y-94405771D01*
X112510238Y-94405771D02*
X112605476Y-94453390D01*
X112605476Y-94453390D02*
X112653095Y-94501009D01*
X112653095Y-94501009D02*
X112700714Y-94596247D01*
X112700714Y-94596247D02*
X112700714Y-94834342D01*
X112700714Y-94834342D02*
X112653095Y-94929580D01*
X112653095Y-94929580D02*
X112605476Y-94977200D01*
X112605476Y-94977200D02*
X112510238Y-95024819D01*
X112510238Y-95024819D02*
X112272143Y-95024819D01*
X112272143Y-95024819D02*
X112176905Y-94977200D01*
X112176905Y-94977200D02*
X112129286Y-94929580D01*
X178625057Y-77712738D02*
X178577438Y-77807976D01*
X178577438Y-77807976D02*
X178482200Y-77903214D01*
X178482200Y-77903214D02*
X178339342Y-78046071D01*
X178339342Y-78046071D02*
X178291723Y-78141309D01*
X178291723Y-78141309D02*
X178291723Y-78236547D01*
X178529819Y-78188928D02*
X178482200Y-78284166D01*
X178482200Y-78284166D02*
X178386961Y-78379404D01*
X178386961Y-78379404D02*
X178196485Y-78427023D01*
X178196485Y-78427023D02*
X177863152Y-78427023D01*
X177863152Y-78427023D02*
X177672676Y-78379404D01*
X177672676Y-78379404D02*
X177577438Y-78284166D01*
X177577438Y-78284166D02*
X177529819Y-78188928D01*
X177529819Y-78188928D02*
X177529819Y-77998452D01*
X177529819Y-77998452D02*
X177577438Y-77903214D01*
X177577438Y-77903214D02*
X177672676Y-77807976D01*
X177672676Y-77807976D02*
X177863152Y-77760357D01*
X177863152Y-77760357D02*
X178196485Y-77760357D01*
X178196485Y-77760357D02*
X178386961Y-77807976D01*
X178386961Y-77807976D02*
X178482200Y-77903214D01*
X178482200Y-77903214D02*
X178529819Y-77998452D01*
X178529819Y-77998452D02*
X178529819Y-78188928D01*
X177529819Y-76903214D02*
X177529819Y-77093690D01*
X177529819Y-77093690D02*
X177577438Y-77188928D01*
X177577438Y-77188928D02*
X177625057Y-77236547D01*
X177625057Y-77236547D02*
X177767914Y-77331785D01*
X177767914Y-77331785D02*
X177958390Y-77379404D01*
X177958390Y-77379404D02*
X178339342Y-77379404D01*
X178339342Y-77379404D02*
X178434580Y-77331785D01*
X178434580Y-77331785D02*
X178482200Y-77284166D01*
X178482200Y-77284166D02*
X178529819Y-77188928D01*
X178529819Y-77188928D02*
X178529819Y-76998452D01*
X178529819Y-76998452D02*
X178482200Y-76903214D01*
X178482200Y-76903214D02*
X178434580Y-76855595D01*
X178434580Y-76855595D02*
X178339342Y-76807976D01*
X178339342Y-76807976D02*
X178101247Y-76807976D01*
X178101247Y-76807976D02*
X178006009Y-76855595D01*
X178006009Y-76855595D02*
X177958390Y-76903214D01*
X177958390Y-76903214D02*
X177910771Y-76998452D01*
X177910771Y-76998452D02*
X177910771Y-77188928D01*
X177910771Y-77188928D02*
X177958390Y-77284166D01*
X177958390Y-77284166D02*
X178006009Y-77331785D01*
X178006009Y-77331785D02*
X178101247Y-77379404D01*
X125238095Y-85454819D02*
X125238095Y-86264342D01*
X125238095Y-86264342D02*
X125285714Y-86359580D01*
X125285714Y-86359580D02*
X125333333Y-86407200D01*
X125333333Y-86407200D02*
X125428571Y-86454819D01*
X125428571Y-86454819D02*
X125619047Y-86454819D01*
X125619047Y-86454819D02*
X125714285Y-86407200D01*
X125714285Y-86407200D02*
X125761904Y-86359580D01*
X125761904Y-86359580D02*
X125809523Y-86264342D01*
X125809523Y-86264342D02*
X125809523Y-85454819D01*
X126190476Y-85454819D02*
X126809523Y-85454819D01*
X126809523Y-85454819D02*
X126476190Y-85835771D01*
X126476190Y-85835771D02*
X126619047Y-85835771D01*
X126619047Y-85835771D02*
X126714285Y-85883390D01*
X126714285Y-85883390D02*
X126761904Y-85931009D01*
X126761904Y-85931009D02*
X126809523Y-86026247D01*
X126809523Y-86026247D02*
X126809523Y-86264342D01*
X126809523Y-86264342D02*
X126761904Y-86359580D01*
X126761904Y-86359580D02*
X126714285Y-86407200D01*
X126714285Y-86407200D02*
X126619047Y-86454819D01*
X126619047Y-86454819D02*
X126333333Y-86454819D01*
X126333333Y-86454819D02*
X126238095Y-86407200D01*
X126238095Y-86407200D02*
X126190476Y-86359580D01*
X132238095Y-52806819D02*
X132809523Y-52806819D01*
X132523809Y-53806819D02*
X132523809Y-52806819D01*
X133142857Y-53806819D02*
X133142857Y-52806819D01*
X133142857Y-52806819D02*
X133523809Y-52806819D01*
X133523809Y-52806819D02*
X133619047Y-52854438D01*
X133619047Y-52854438D02*
X133666666Y-52902057D01*
X133666666Y-52902057D02*
X133714285Y-52997295D01*
X133714285Y-52997295D02*
X133714285Y-53140152D01*
X133714285Y-53140152D02*
X133666666Y-53235390D01*
X133666666Y-53235390D02*
X133619047Y-53283009D01*
X133619047Y-53283009D02*
X133523809Y-53330628D01*
X133523809Y-53330628D02*
X133142857Y-53330628D01*
X134047619Y-52806819D02*
X134714285Y-52806819D01*
X134714285Y-52806819D02*
X134285714Y-53806819D01*
X180509819Y-75822857D02*
X180033628Y-76156190D01*
X180509819Y-76394285D02*
X179509819Y-76394285D01*
X179509819Y-76394285D02*
X179509819Y-76013333D01*
X179509819Y-76013333D02*
X179557438Y-75918095D01*
X179557438Y-75918095D02*
X179605057Y-75870476D01*
X179605057Y-75870476D02*
X179700295Y-75822857D01*
X179700295Y-75822857D02*
X179843152Y-75822857D01*
X179843152Y-75822857D02*
X179938390Y-75870476D01*
X179938390Y-75870476D02*
X179986009Y-75918095D01*
X179986009Y-75918095D02*
X180033628Y-76013333D01*
X180033628Y-76013333D02*
X180033628Y-76394285D01*
X180509819Y-74870476D02*
X180509819Y-75441904D01*
X180509819Y-75156190D02*
X179509819Y-75156190D01*
X179509819Y-75156190D02*
X179652676Y-75251428D01*
X179652676Y-75251428D02*
X179747914Y-75346666D01*
X179747914Y-75346666D02*
X179795533Y-75441904D01*
X179938390Y-74299047D02*
X179890771Y-74394285D01*
X179890771Y-74394285D02*
X179843152Y-74441904D01*
X179843152Y-74441904D02*
X179747914Y-74489523D01*
X179747914Y-74489523D02*
X179700295Y-74489523D01*
X179700295Y-74489523D02*
X179605057Y-74441904D01*
X179605057Y-74441904D02*
X179557438Y-74394285D01*
X179557438Y-74394285D02*
X179509819Y-74299047D01*
X179509819Y-74299047D02*
X179509819Y-74108571D01*
X179509819Y-74108571D02*
X179557438Y-74013333D01*
X179557438Y-74013333D02*
X179605057Y-73965714D01*
X179605057Y-73965714D02*
X179700295Y-73918095D01*
X179700295Y-73918095D02*
X179747914Y-73918095D01*
X179747914Y-73918095D02*
X179843152Y-73965714D01*
X179843152Y-73965714D02*
X179890771Y-74013333D01*
X179890771Y-74013333D02*
X179938390Y-74108571D01*
X179938390Y-74108571D02*
X179938390Y-74299047D01*
X179938390Y-74299047D02*
X179986009Y-74394285D01*
X179986009Y-74394285D02*
X180033628Y-74441904D01*
X180033628Y-74441904D02*
X180128866Y-74489523D01*
X180128866Y-74489523D02*
X180319342Y-74489523D01*
X180319342Y-74489523D02*
X180414580Y-74441904D01*
X180414580Y-74441904D02*
X180462200Y-74394285D01*
X180462200Y-74394285D02*
X180509819Y-74299047D01*
X180509819Y-74299047D02*
X180509819Y-74108571D01*
X180509819Y-74108571D02*
X180462200Y-74013333D01*
X180462200Y-74013333D02*
X180414580Y-73965714D01*
X180414580Y-73965714D02*
X180319342Y-73918095D01*
X180319342Y-73918095D02*
X180128866Y-73918095D01*
X180128866Y-73918095D02*
X180033628Y-73965714D01*
X180033628Y-73965714D02*
X179986009Y-74013333D01*
X179986009Y-74013333D02*
X179938390Y-74108571D01*
X122154819Y-66333333D02*
X122869104Y-66333333D01*
X122869104Y-66333333D02*
X123011961Y-66380952D01*
X123011961Y-66380952D02*
X123107200Y-66476190D01*
X123107200Y-66476190D02*
X123154819Y-66619047D01*
X123154819Y-66619047D02*
X123154819Y-66714285D01*
X123154819Y-65857142D02*
X122154819Y-65857142D01*
X122154819Y-65857142D02*
X122154819Y-65476190D01*
X122154819Y-65476190D02*
X122202438Y-65380952D01*
X122202438Y-65380952D02*
X122250057Y-65333333D01*
X122250057Y-65333333D02*
X122345295Y-65285714D01*
X122345295Y-65285714D02*
X122488152Y-65285714D01*
X122488152Y-65285714D02*
X122583390Y-65333333D01*
X122583390Y-65333333D02*
X122631009Y-65380952D01*
X122631009Y-65380952D02*
X122678628Y-65476190D01*
X122678628Y-65476190D02*
X122678628Y-65857142D01*
X122154819Y-64952380D02*
X122154819Y-64333333D01*
X122154819Y-64333333D02*
X122535771Y-64666666D01*
X122535771Y-64666666D02*
X122535771Y-64523809D01*
X122535771Y-64523809D02*
X122583390Y-64428571D01*
X122583390Y-64428571D02*
X122631009Y-64380952D01*
X122631009Y-64380952D02*
X122726247Y-64333333D01*
X122726247Y-64333333D02*
X122964342Y-64333333D01*
X122964342Y-64333333D02*
X123059580Y-64380952D01*
X123059580Y-64380952D02*
X123107200Y-64428571D01*
X123107200Y-64428571D02*
X123154819Y-64523809D01*
X123154819Y-64523809D02*
X123154819Y-64809523D01*
X123154819Y-64809523D02*
X123107200Y-64904761D01*
X123107200Y-64904761D02*
X123059580Y-64952380D01*
X145385833Y-74789580D02*
X145338214Y-74837200D01*
X145338214Y-74837200D02*
X145195357Y-74884819D01*
X145195357Y-74884819D02*
X145100119Y-74884819D01*
X145100119Y-74884819D02*
X144957262Y-74837200D01*
X144957262Y-74837200D02*
X144862024Y-74741961D01*
X144862024Y-74741961D02*
X144814405Y-74646723D01*
X144814405Y-74646723D02*
X144766786Y-74456247D01*
X144766786Y-74456247D02*
X144766786Y-74313390D01*
X144766786Y-74313390D02*
X144814405Y-74122914D01*
X144814405Y-74122914D02*
X144862024Y-74027676D01*
X144862024Y-74027676D02*
X144957262Y-73932438D01*
X144957262Y-73932438D02*
X145100119Y-73884819D01*
X145100119Y-73884819D02*
X145195357Y-73884819D01*
X145195357Y-73884819D02*
X145338214Y-73932438D01*
X145338214Y-73932438D02*
X145385833Y-73980057D01*
X145719167Y-73884819D02*
X146338214Y-73884819D01*
X146338214Y-73884819D02*
X146004881Y-74265771D01*
X146004881Y-74265771D02*
X146147738Y-74265771D01*
X146147738Y-74265771D02*
X146242976Y-74313390D01*
X146242976Y-74313390D02*
X146290595Y-74361009D01*
X146290595Y-74361009D02*
X146338214Y-74456247D01*
X146338214Y-74456247D02*
X146338214Y-74694342D01*
X146338214Y-74694342D02*
X146290595Y-74789580D01*
X146290595Y-74789580D02*
X146242976Y-74837200D01*
X146242976Y-74837200D02*
X146147738Y-74884819D01*
X146147738Y-74884819D02*
X145862024Y-74884819D01*
X145862024Y-74884819D02*
X145766786Y-74837200D01*
X145766786Y-74837200D02*
X145719167Y-74789580D01*
X131369819Y-61166666D02*
X130893628Y-61499999D01*
X131369819Y-61738094D02*
X130369819Y-61738094D01*
X130369819Y-61738094D02*
X130369819Y-61357142D01*
X130369819Y-61357142D02*
X130417438Y-61261904D01*
X130417438Y-61261904D02*
X130465057Y-61214285D01*
X130465057Y-61214285D02*
X130560295Y-61166666D01*
X130560295Y-61166666D02*
X130703152Y-61166666D01*
X130703152Y-61166666D02*
X130798390Y-61214285D01*
X130798390Y-61214285D02*
X130846009Y-61261904D01*
X130846009Y-61261904D02*
X130893628Y-61357142D01*
X130893628Y-61357142D02*
X130893628Y-61738094D01*
X131369819Y-60214285D02*
X131369819Y-60785713D01*
X131369819Y-60499999D02*
X130369819Y-60499999D01*
X130369819Y-60499999D02*
X130512676Y-60595237D01*
X130512676Y-60595237D02*
X130607914Y-60690475D01*
X130607914Y-60690475D02*
X130655533Y-60785713D01*
X135857142Y-63179580D02*
X135809523Y-63227200D01*
X135809523Y-63227200D02*
X135666666Y-63274819D01*
X135666666Y-63274819D02*
X135571428Y-63274819D01*
X135571428Y-63274819D02*
X135428571Y-63227200D01*
X135428571Y-63227200D02*
X135333333Y-63131961D01*
X135333333Y-63131961D02*
X135285714Y-63036723D01*
X135285714Y-63036723D02*
X135238095Y-62846247D01*
X135238095Y-62846247D02*
X135238095Y-62703390D01*
X135238095Y-62703390D02*
X135285714Y-62512914D01*
X135285714Y-62512914D02*
X135333333Y-62417676D01*
X135333333Y-62417676D02*
X135428571Y-62322438D01*
X135428571Y-62322438D02*
X135571428Y-62274819D01*
X135571428Y-62274819D02*
X135666666Y-62274819D01*
X135666666Y-62274819D02*
X135809523Y-62322438D01*
X135809523Y-62322438D02*
X135857142Y-62370057D01*
X136809523Y-63274819D02*
X136238095Y-63274819D01*
X136523809Y-63274819D02*
X136523809Y-62274819D01*
X136523809Y-62274819D02*
X136428571Y-62417676D01*
X136428571Y-62417676D02*
X136333333Y-62512914D01*
X136333333Y-62512914D02*
X136238095Y-62560533D01*
X137761904Y-63274819D02*
X137190476Y-63274819D01*
X137476190Y-63274819D02*
X137476190Y-62274819D01*
X137476190Y-62274819D02*
X137380952Y-62417676D01*
X137380952Y-62417676D02*
X137285714Y-62512914D01*
X137285714Y-62512914D02*
X137190476Y-62560533D01*
X125248333Y-62954819D02*
X124915000Y-62478628D01*
X124676905Y-62954819D02*
X124676905Y-61954819D01*
X124676905Y-61954819D02*
X125057857Y-61954819D01*
X125057857Y-61954819D02*
X125153095Y-62002438D01*
X125153095Y-62002438D02*
X125200714Y-62050057D01*
X125200714Y-62050057D02*
X125248333Y-62145295D01*
X125248333Y-62145295D02*
X125248333Y-62288152D01*
X125248333Y-62288152D02*
X125200714Y-62383390D01*
X125200714Y-62383390D02*
X125153095Y-62431009D01*
X125153095Y-62431009D02*
X125057857Y-62478628D01*
X125057857Y-62478628D02*
X124676905Y-62478628D01*
X125581667Y-61954819D02*
X126200714Y-61954819D01*
X126200714Y-61954819D02*
X125867381Y-62335771D01*
X125867381Y-62335771D02*
X126010238Y-62335771D01*
X126010238Y-62335771D02*
X126105476Y-62383390D01*
X126105476Y-62383390D02*
X126153095Y-62431009D01*
X126153095Y-62431009D02*
X126200714Y-62526247D01*
X126200714Y-62526247D02*
X126200714Y-62764342D01*
X126200714Y-62764342D02*
X126153095Y-62859580D01*
X126153095Y-62859580D02*
X126105476Y-62907200D01*
X126105476Y-62907200D02*
X126010238Y-62954819D01*
X126010238Y-62954819D02*
X125724524Y-62954819D01*
X125724524Y-62954819D02*
X125629286Y-62907200D01*
X125629286Y-62907200D02*
X125581667Y-62859580D01*
X131357142Y-86954819D02*
X131023809Y-86478628D01*
X130785714Y-86954819D02*
X130785714Y-85954819D01*
X130785714Y-85954819D02*
X131166666Y-85954819D01*
X131166666Y-85954819D02*
X131261904Y-86002438D01*
X131261904Y-86002438D02*
X131309523Y-86050057D01*
X131309523Y-86050057D02*
X131357142Y-86145295D01*
X131357142Y-86145295D02*
X131357142Y-86288152D01*
X131357142Y-86288152D02*
X131309523Y-86383390D01*
X131309523Y-86383390D02*
X131261904Y-86431009D01*
X131261904Y-86431009D02*
X131166666Y-86478628D01*
X131166666Y-86478628D02*
X130785714Y-86478628D01*
X132309523Y-86954819D02*
X131738095Y-86954819D01*
X132023809Y-86954819D02*
X132023809Y-85954819D01*
X132023809Y-85954819D02*
X131928571Y-86097676D01*
X131928571Y-86097676D02*
X131833333Y-86192914D01*
X131833333Y-86192914D02*
X131738095Y-86240533D01*
X132690476Y-86050057D02*
X132738095Y-86002438D01*
X132738095Y-86002438D02*
X132833333Y-85954819D01*
X132833333Y-85954819D02*
X133071428Y-85954819D01*
X133071428Y-85954819D02*
X133166666Y-86002438D01*
X133166666Y-86002438D02*
X133214285Y-86050057D01*
X133214285Y-86050057D02*
X133261904Y-86145295D01*
X133261904Y-86145295D02*
X133261904Y-86240533D01*
X133261904Y-86240533D02*
X133214285Y-86383390D01*
X133214285Y-86383390D02*
X132642857Y-86954819D01*
X132642857Y-86954819D02*
X133261904Y-86954819D01*
X160648333Y-76384819D02*
X160315000Y-75908628D01*
X160076905Y-76384819D02*
X160076905Y-75384819D01*
X160076905Y-75384819D02*
X160457857Y-75384819D01*
X160457857Y-75384819D02*
X160553095Y-75432438D01*
X160553095Y-75432438D02*
X160600714Y-75480057D01*
X160600714Y-75480057D02*
X160648333Y-75575295D01*
X160648333Y-75575295D02*
X160648333Y-75718152D01*
X160648333Y-75718152D02*
X160600714Y-75813390D01*
X160600714Y-75813390D02*
X160553095Y-75861009D01*
X160553095Y-75861009D02*
X160457857Y-75908628D01*
X160457857Y-75908628D02*
X160076905Y-75908628D01*
X161505476Y-75384819D02*
X161315000Y-75384819D01*
X161315000Y-75384819D02*
X161219762Y-75432438D01*
X161219762Y-75432438D02*
X161172143Y-75480057D01*
X161172143Y-75480057D02*
X161076905Y-75622914D01*
X161076905Y-75622914D02*
X161029286Y-75813390D01*
X161029286Y-75813390D02*
X161029286Y-76194342D01*
X161029286Y-76194342D02*
X161076905Y-76289580D01*
X161076905Y-76289580D02*
X161124524Y-76337200D01*
X161124524Y-76337200D02*
X161219762Y-76384819D01*
X161219762Y-76384819D02*
X161410238Y-76384819D01*
X161410238Y-76384819D02*
X161505476Y-76337200D01*
X161505476Y-76337200D02*
X161553095Y-76289580D01*
X161553095Y-76289580D02*
X161600714Y-76194342D01*
X161600714Y-76194342D02*
X161600714Y-75956247D01*
X161600714Y-75956247D02*
X161553095Y-75861009D01*
X161553095Y-75861009D02*
X161505476Y-75813390D01*
X161505476Y-75813390D02*
X161410238Y-75765771D01*
X161410238Y-75765771D02*
X161219762Y-75765771D01*
X161219762Y-75765771D02*
X161124524Y-75813390D01*
X161124524Y-75813390D02*
X161076905Y-75861009D01*
X161076905Y-75861009D02*
X161029286Y-75956247D01*
X137176905Y-80884819D02*
X137176905Y-79884819D01*
X137176905Y-79884819D02*
X137415000Y-79884819D01*
X137415000Y-79884819D02*
X137557857Y-79932438D01*
X137557857Y-79932438D02*
X137653095Y-80027676D01*
X137653095Y-80027676D02*
X137700714Y-80122914D01*
X137700714Y-80122914D02*
X137748333Y-80313390D01*
X137748333Y-80313390D02*
X137748333Y-80456247D01*
X137748333Y-80456247D02*
X137700714Y-80646723D01*
X137700714Y-80646723D02*
X137653095Y-80741961D01*
X137653095Y-80741961D02*
X137557857Y-80837200D01*
X137557857Y-80837200D02*
X137415000Y-80884819D01*
X137415000Y-80884819D02*
X137176905Y-80884819D01*
X138700714Y-80884819D02*
X138129286Y-80884819D01*
X138415000Y-80884819D02*
X138415000Y-79884819D01*
X138415000Y-79884819D02*
X138319762Y-80027676D01*
X138319762Y-80027676D02*
X138224524Y-80122914D01*
X138224524Y-80122914D02*
X138129286Y-80170533D01*
X125761905Y-67806819D02*
X126333333Y-67806819D01*
X126047619Y-68806819D02*
X126047619Y-67806819D01*
X126666667Y-68806819D02*
X126666667Y-67806819D01*
X126666667Y-67806819D02*
X127047619Y-67806819D01*
X127047619Y-67806819D02*
X127142857Y-67854438D01*
X127142857Y-67854438D02*
X127190476Y-67902057D01*
X127190476Y-67902057D02*
X127238095Y-67997295D01*
X127238095Y-67997295D02*
X127238095Y-68140152D01*
X127238095Y-68140152D02*
X127190476Y-68235390D01*
X127190476Y-68235390D02*
X127142857Y-68283009D01*
X127142857Y-68283009D02*
X127047619Y-68330628D01*
X127047619Y-68330628D02*
X126666667Y-68330628D01*
X128190476Y-68806819D02*
X127619048Y-68806819D01*
X127904762Y-68806819D02*
X127904762Y-67806819D01*
X127904762Y-67806819D02*
X127809524Y-67949676D01*
X127809524Y-67949676D02*
X127714286Y-68044914D01*
X127714286Y-68044914D02*
X127619048Y-68092533D01*
X128523810Y-67806819D02*
X129142857Y-67806819D01*
X129142857Y-67806819D02*
X128809524Y-68187771D01*
X128809524Y-68187771D02*
X128952381Y-68187771D01*
X128952381Y-68187771D02*
X129047619Y-68235390D01*
X129047619Y-68235390D02*
X129095238Y-68283009D01*
X129095238Y-68283009D02*
X129142857Y-68378247D01*
X129142857Y-68378247D02*
X129142857Y-68616342D01*
X129142857Y-68616342D02*
X129095238Y-68711580D01*
X129095238Y-68711580D02*
X129047619Y-68759200D01*
X129047619Y-68759200D02*
X128952381Y-68806819D01*
X128952381Y-68806819D02*
X128666667Y-68806819D01*
X128666667Y-68806819D02*
X128571429Y-68759200D01*
X128571429Y-68759200D02*
X128523810Y-68711580D01*
X143253095Y-79679819D02*
X143253095Y-80489342D01*
X143253095Y-80489342D02*
X143300714Y-80584580D01*
X143300714Y-80584580D02*
X143348333Y-80632200D01*
X143348333Y-80632200D02*
X143443571Y-80679819D01*
X143443571Y-80679819D02*
X143634047Y-80679819D01*
X143634047Y-80679819D02*
X143729285Y-80632200D01*
X143729285Y-80632200D02*
X143776904Y-80584580D01*
X143776904Y-80584580D02*
X143824523Y-80489342D01*
X143824523Y-80489342D02*
X143824523Y-79679819D01*
X144776904Y-79679819D02*
X144300714Y-79679819D01*
X144300714Y-79679819D02*
X144253095Y-80156009D01*
X144253095Y-80156009D02*
X144300714Y-80108390D01*
X144300714Y-80108390D02*
X144395952Y-80060771D01*
X144395952Y-80060771D02*
X144634047Y-80060771D01*
X144634047Y-80060771D02*
X144729285Y-80108390D01*
X144729285Y-80108390D02*
X144776904Y-80156009D01*
X144776904Y-80156009D02*
X144824523Y-80251247D01*
X144824523Y-80251247D02*
X144824523Y-80489342D01*
X144824523Y-80489342D02*
X144776904Y-80584580D01*
X144776904Y-80584580D02*
X144729285Y-80632200D01*
X144729285Y-80632200D02*
X144634047Y-80679819D01*
X144634047Y-80679819D02*
X144395952Y-80679819D01*
X144395952Y-80679819D02*
X144300714Y-80632200D01*
X144300714Y-80632200D02*
X144253095Y-80584580D01*
X118738095Y-61806819D02*
X119309523Y-61806819D01*
X119023809Y-62806819D02*
X119023809Y-61806819D01*
X119642857Y-62806819D02*
X119642857Y-61806819D01*
X119642857Y-61806819D02*
X120023809Y-61806819D01*
X120023809Y-61806819D02*
X120119047Y-61854438D01*
X120119047Y-61854438D02*
X120166666Y-61902057D01*
X120166666Y-61902057D02*
X120214285Y-61997295D01*
X120214285Y-61997295D02*
X120214285Y-62140152D01*
X120214285Y-62140152D02*
X120166666Y-62235390D01*
X120166666Y-62235390D02*
X120119047Y-62283009D01*
X120119047Y-62283009D02*
X120023809Y-62330628D01*
X120023809Y-62330628D02*
X119642857Y-62330628D01*
X121166666Y-62806819D02*
X120595238Y-62806819D01*
X120880952Y-62806819D02*
X120880952Y-61806819D01*
X120880952Y-61806819D02*
X120785714Y-61949676D01*
X120785714Y-61949676D02*
X120690476Y-62044914D01*
X120690476Y-62044914D02*
X120595238Y-62092533D01*
X154339819Y-80166666D02*
X153863628Y-80499999D01*
X154339819Y-80738094D02*
X153339819Y-80738094D01*
X153339819Y-80738094D02*
X153339819Y-80357142D01*
X153339819Y-80357142D02*
X153387438Y-80261904D01*
X153387438Y-80261904D02*
X153435057Y-80214285D01*
X153435057Y-80214285D02*
X153530295Y-80166666D01*
X153530295Y-80166666D02*
X153673152Y-80166666D01*
X153673152Y-80166666D02*
X153768390Y-80214285D01*
X153768390Y-80214285D02*
X153816009Y-80261904D01*
X153816009Y-80261904D02*
X153863628Y-80357142D01*
X153863628Y-80357142D02*
X153863628Y-80738094D01*
X153339819Y-79261904D02*
X153339819Y-79738094D01*
X153339819Y-79738094D02*
X153816009Y-79785713D01*
X153816009Y-79785713D02*
X153768390Y-79738094D01*
X153768390Y-79738094D02*
X153720771Y-79642856D01*
X153720771Y-79642856D02*
X153720771Y-79404761D01*
X153720771Y-79404761D02*
X153768390Y-79309523D01*
X153768390Y-79309523D02*
X153816009Y-79261904D01*
X153816009Y-79261904D02*
X153911247Y-79214285D01*
X153911247Y-79214285D02*
X154149342Y-79214285D01*
X154149342Y-79214285D02*
X154244580Y-79261904D01*
X154244580Y-79261904D02*
X154292200Y-79309523D01*
X154292200Y-79309523D02*
X154339819Y-79404761D01*
X154339819Y-79404761D02*
X154339819Y-79642856D01*
X154339819Y-79642856D02*
X154292200Y-79738094D01*
X154292200Y-79738094D02*
X154244580Y-79785713D01*
X155272142Y-63359580D02*
X155224523Y-63407200D01*
X155224523Y-63407200D02*
X155081666Y-63454819D01*
X155081666Y-63454819D02*
X154986428Y-63454819D01*
X154986428Y-63454819D02*
X154843571Y-63407200D01*
X154843571Y-63407200D02*
X154748333Y-63311961D01*
X154748333Y-63311961D02*
X154700714Y-63216723D01*
X154700714Y-63216723D02*
X154653095Y-63026247D01*
X154653095Y-63026247D02*
X154653095Y-62883390D01*
X154653095Y-62883390D02*
X154700714Y-62692914D01*
X154700714Y-62692914D02*
X154748333Y-62597676D01*
X154748333Y-62597676D02*
X154843571Y-62502438D01*
X154843571Y-62502438D02*
X154986428Y-62454819D01*
X154986428Y-62454819D02*
X155081666Y-62454819D01*
X155081666Y-62454819D02*
X155224523Y-62502438D01*
X155224523Y-62502438D02*
X155272142Y-62550057D01*
X156224523Y-63454819D02*
X155653095Y-63454819D01*
X155938809Y-63454819D02*
X155938809Y-62454819D01*
X155938809Y-62454819D02*
X155843571Y-62597676D01*
X155843571Y-62597676D02*
X155748333Y-62692914D01*
X155748333Y-62692914D02*
X155653095Y-62740533D01*
X156843571Y-62454819D02*
X156938809Y-62454819D01*
X156938809Y-62454819D02*
X157034047Y-62502438D01*
X157034047Y-62502438D02*
X157081666Y-62550057D01*
X157081666Y-62550057D02*
X157129285Y-62645295D01*
X157129285Y-62645295D02*
X157176904Y-62835771D01*
X157176904Y-62835771D02*
X157176904Y-63073866D01*
X157176904Y-63073866D02*
X157129285Y-63264342D01*
X157129285Y-63264342D02*
X157081666Y-63359580D01*
X157081666Y-63359580D02*
X157034047Y-63407200D01*
X157034047Y-63407200D02*
X156938809Y-63454819D01*
X156938809Y-63454819D02*
X156843571Y-63454819D01*
X156843571Y-63454819D02*
X156748333Y-63407200D01*
X156748333Y-63407200D02*
X156700714Y-63359580D01*
X156700714Y-63359580D02*
X156653095Y-63264342D01*
X156653095Y-63264342D02*
X156605476Y-63073866D01*
X156605476Y-63073866D02*
X156605476Y-62835771D01*
X156605476Y-62835771D02*
X156653095Y-62645295D01*
X156653095Y-62645295D02*
X156700714Y-62550057D01*
X156700714Y-62550057D02*
X156748333Y-62502438D01*
X156748333Y-62502438D02*
X156843571Y-62454819D01*
X149748333Y-76524819D02*
X149415000Y-76048628D01*
X149176905Y-76524819D02*
X149176905Y-75524819D01*
X149176905Y-75524819D02*
X149557857Y-75524819D01*
X149557857Y-75524819D02*
X149653095Y-75572438D01*
X149653095Y-75572438D02*
X149700714Y-75620057D01*
X149700714Y-75620057D02*
X149748333Y-75715295D01*
X149748333Y-75715295D02*
X149748333Y-75858152D01*
X149748333Y-75858152D02*
X149700714Y-75953390D01*
X149700714Y-75953390D02*
X149653095Y-76001009D01*
X149653095Y-76001009D02*
X149557857Y-76048628D01*
X149557857Y-76048628D02*
X149176905Y-76048628D01*
X150605476Y-75858152D02*
X150605476Y-76524819D01*
X150367381Y-75477200D02*
X150129286Y-76191485D01*
X150129286Y-76191485D02*
X150748333Y-76191485D01*
X136676905Y-74954819D02*
X136676905Y-73954819D01*
X136676905Y-73954819D02*
X136915000Y-73954819D01*
X136915000Y-73954819D02*
X137057857Y-74002438D01*
X137057857Y-74002438D02*
X137153095Y-74097676D01*
X137153095Y-74097676D02*
X137200714Y-74192914D01*
X137200714Y-74192914D02*
X137248333Y-74383390D01*
X137248333Y-74383390D02*
X137248333Y-74526247D01*
X137248333Y-74526247D02*
X137200714Y-74716723D01*
X137200714Y-74716723D02*
X137153095Y-74811961D01*
X137153095Y-74811961D02*
X137057857Y-74907200D01*
X137057857Y-74907200D02*
X136915000Y-74954819D01*
X136915000Y-74954819D02*
X136676905Y-74954819D01*
X137629286Y-74050057D02*
X137676905Y-74002438D01*
X137676905Y-74002438D02*
X137772143Y-73954819D01*
X137772143Y-73954819D02*
X138010238Y-73954819D01*
X138010238Y-73954819D02*
X138105476Y-74002438D01*
X138105476Y-74002438D02*
X138153095Y-74050057D01*
X138153095Y-74050057D02*
X138200714Y-74145295D01*
X138200714Y-74145295D02*
X138200714Y-74240533D01*
X138200714Y-74240533D02*
X138153095Y-74383390D01*
X138153095Y-74383390D02*
X137581667Y-74954819D01*
X137581667Y-74954819D02*
X138200714Y-74954819D01*
X123454819Y-60166666D02*
X122978628Y-60499999D01*
X123454819Y-60738094D02*
X122454819Y-60738094D01*
X122454819Y-60738094D02*
X122454819Y-60357142D01*
X122454819Y-60357142D02*
X122502438Y-60261904D01*
X122502438Y-60261904D02*
X122550057Y-60214285D01*
X122550057Y-60214285D02*
X122645295Y-60166666D01*
X122645295Y-60166666D02*
X122788152Y-60166666D01*
X122788152Y-60166666D02*
X122883390Y-60214285D01*
X122883390Y-60214285D02*
X122931009Y-60261904D01*
X122931009Y-60261904D02*
X122978628Y-60357142D01*
X122978628Y-60357142D02*
X122978628Y-60738094D01*
X122550057Y-59785713D02*
X122502438Y-59738094D01*
X122502438Y-59738094D02*
X122454819Y-59642856D01*
X122454819Y-59642856D02*
X122454819Y-59404761D01*
X122454819Y-59404761D02*
X122502438Y-59309523D01*
X122502438Y-59309523D02*
X122550057Y-59261904D01*
X122550057Y-59261904D02*
X122645295Y-59214285D01*
X122645295Y-59214285D02*
X122740533Y-59214285D01*
X122740533Y-59214285D02*
X122883390Y-59261904D01*
X122883390Y-59261904D02*
X123454819Y-59833332D01*
X123454819Y-59833332D02*
X123454819Y-59214285D01*
X131154819Y-79608333D02*
X131869104Y-79608333D01*
X131869104Y-79608333D02*
X132011961Y-79655952D01*
X132011961Y-79655952D02*
X132107200Y-79751190D01*
X132107200Y-79751190D02*
X132154819Y-79894047D01*
X132154819Y-79894047D02*
X132154819Y-79989285D01*
X132154819Y-79132142D02*
X131154819Y-79132142D01*
X131154819Y-79132142D02*
X131154819Y-78751190D01*
X131154819Y-78751190D02*
X131202438Y-78655952D01*
X131202438Y-78655952D02*
X131250057Y-78608333D01*
X131250057Y-78608333D02*
X131345295Y-78560714D01*
X131345295Y-78560714D02*
X131488152Y-78560714D01*
X131488152Y-78560714D02*
X131583390Y-78608333D01*
X131583390Y-78608333D02*
X131631009Y-78655952D01*
X131631009Y-78655952D02*
X131678628Y-78751190D01*
X131678628Y-78751190D02*
X131678628Y-79132142D01*
X131488152Y-77703571D02*
X132154819Y-77703571D01*
X131107200Y-77941666D02*
X131821485Y-78179761D01*
X131821485Y-78179761D02*
X131821485Y-77560714D01*
X130859580Y-57166666D02*
X130907200Y-57214285D01*
X130907200Y-57214285D02*
X130954819Y-57357142D01*
X130954819Y-57357142D02*
X130954819Y-57452380D01*
X130954819Y-57452380D02*
X130907200Y-57595237D01*
X130907200Y-57595237D02*
X130811961Y-57690475D01*
X130811961Y-57690475D02*
X130716723Y-57738094D01*
X130716723Y-57738094D02*
X130526247Y-57785713D01*
X130526247Y-57785713D02*
X130383390Y-57785713D01*
X130383390Y-57785713D02*
X130192914Y-57738094D01*
X130192914Y-57738094D02*
X130097676Y-57690475D01*
X130097676Y-57690475D02*
X130002438Y-57595237D01*
X130002438Y-57595237D02*
X129954819Y-57452380D01*
X129954819Y-57452380D02*
X129954819Y-57357142D01*
X129954819Y-57357142D02*
X130002438Y-57214285D01*
X130002438Y-57214285D02*
X130050057Y-57166666D01*
X130954819Y-56214285D02*
X130954819Y-56785713D01*
X130954819Y-56499999D02*
X129954819Y-56499999D01*
X129954819Y-56499999D02*
X130097676Y-56595237D01*
X130097676Y-56595237D02*
X130192914Y-56690475D01*
X130192914Y-56690475D02*
X130240533Y-56785713D01*
X150342261Y-84450057D02*
X150247023Y-84402438D01*
X150247023Y-84402438D02*
X150151785Y-84307200D01*
X150151785Y-84307200D02*
X150008928Y-84164342D01*
X150008928Y-84164342D02*
X149913690Y-84116723D01*
X149913690Y-84116723D02*
X149818452Y-84116723D01*
X149866071Y-84354819D02*
X149770833Y-84307200D01*
X149770833Y-84307200D02*
X149675595Y-84211961D01*
X149675595Y-84211961D02*
X149627976Y-84021485D01*
X149627976Y-84021485D02*
X149627976Y-83688152D01*
X149627976Y-83688152D02*
X149675595Y-83497676D01*
X149675595Y-83497676D02*
X149770833Y-83402438D01*
X149770833Y-83402438D02*
X149866071Y-83354819D01*
X149866071Y-83354819D02*
X150056547Y-83354819D01*
X150056547Y-83354819D02*
X150151785Y-83402438D01*
X150151785Y-83402438D02*
X150247023Y-83497676D01*
X150247023Y-83497676D02*
X150294642Y-83688152D01*
X150294642Y-83688152D02*
X150294642Y-84021485D01*
X150294642Y-84021485D02*
X150247023Y-84211961D01*
X150247023Y-84211961D02*
X150151785Y-84307200D01*
X150151785Y-84307200D02*
X150056547Y-84354819D01*
X150056547Y-84354819D02*
X149866071Y-84354819D01*
X150675595Y-83450057D02*
X150723214Y-83402438D01*
X150723214Y-83402438D02*
X150818452Y-83354819D01*
X150818452Y-83354819D02*
X151056547Y-83354819D01*
X151056547Y-83354819D02*
X151151785Y-83402438D01*
X151151785Y-83402438D02*
X151199404Y-83450057D01*
X151199404Y-83450057D02*
X151247023Y-83545295D01*
X151247023Y-83545295D02*
X151247023Y-83640533D01*
X151247023Y-83640533D02*
X151199404Y-83783390D01*
X151199404Y-83783390D02*
X150627976Y-84354819D01*
X150627976Y-84354819D02*
X151247023Y-84354819D01*
X135261905Y-52806819D02*
X135833333Y-52806819D01*
X135547619Y-53806819D02*
X135547619Y-52806819D01*
X136166667Y-53806819D02*
X136166667Y-52806819D01*
X136166667Y-52806819D02*
X136547619Y-52806819D01*
X136547619Y-52806819D02*
X136642857Y-52854438D01*
X136642857Y-52854438D02*
X136690476Y-52902057D01*
X136690476Y-52902057D02*
X136738095Y-52997295D01*
X136738095Y-52997295D02*
X136738095Y-53140152D01*
X136738095Y-53140152D02*
X136690476Y-53235390D01*
X136690476Y-53235390D02*
X136642857Y-53283009D01*
X136642857Y-53283009D02*
X136547619Y-53330628D01*
X136547619Y-53330628D02*
X136166667Y-53330628D01*
X137690476Y-53806819D02*
X137119048Y-53806819D01*
X137404762Y-53806819D02*
X137404762Y-52806819D01*
X137404762Y-52806819D02*
X137309524Y-52949676D01*
X137309524Y-52949676D02*
X137214286Y-53044914D01*
X137214286Y-53044914D02*
X137119048Y-53092533D01*
X138309524Y-52806819D02*
X138404762Y-52806819D01*
X138404762Y-52806819D02*
X138500000Y-52854438D01*
X138500000Y-52854438D02*
X138547619Y-52902057D01*
X138547619Y-52902057D02*
X138595238Y-52997295D01*
X138595238Y-52997295D02*
X138642857Y-53187771D01*
X138642857Y-53187771D02*
X138642857Y-53425866D01*
X138642857Y-53425866D02*
X138595238Y-53616342D01*
X138595238Y-53616342D02*
X138547619Y-53711580D01*
X138547619Y-53711580D02*
X138500000Y-53759200D01*
X138500000Y-53759200D02*
X138404762Y-53806819D01*
X138404762Y-53806819D02*
X138309524Y-53806819D01*
X138309524Y-53806819D02*
X138214286Y-53759200D01*
X138214286Y-53759200D02*
X138166667Y-53711580D01*
X138166667Y-53711580D02*
X138119048Y-53616342D01*
X138119048Y-53616342D02*
X138071429Y-53425866D01*
X138071429Y-53425866D02*
X138071429Y-53187771D01*
X138071429Y-53187771D02*
X138119048Y-52997295D01*
X138119048Y-52997295D02*
X138166667Y-52902057D01*
X138166667Y-52902057D02*
X138214286Y-52854438D01*
X138214286Y-52854438D02*
X138309524Y-52806819D01*
X153761905Y-66806819D02*
X154333333Y-66806819D01*
X154047619Y-67806819D02*
X154047619Y-66806819D01*
X154666667Y-67806819D02*
X154666667Y-66806819D01*
X154666667Y-66806819D02*
X155047619Y-66806819D01*
X155047619Y-66806819D02*
X155142857Y-66854438D01*
X155142857Y-66854438D02*
X155190476Y-66902057D01*
X155190476Y-66902057D02*
X155238095Y-66997295D01*
X155238095Y-66997295D02*
X155238095Y-67140152D01*
X155238095Y-67140152D02*
X155190476Y-67235390D01*
X155190476Y-67235390D02*
X155142857Y-67283009D01*
X155142857Y-67283009D02*
X155047619Y-67330628D01*
X155047619Y-67330628D02*
X154666667Y-67330628D01*
X156190476Y-67806819D02*
X155619048Y-67806819D01*
X155904762Y-67806819D02*
X155904762Y-66806819D01*
X155904762Y-66806819D02*
X155809524Y-66949676D01*
X155809524Y-66949676D02*
X155714286Y-67044914D01*
X155714286Y-67044914D02*
X155619048Y-67092533D01*
X157047619Y-67140152D02*
X157047619Y-67806819D01*
X156809524Y-66759200D02*
X156571429Y-67473485D01*
X156571429Y-67473485D02*
X157190476Y-67473485D01*
X118504819Y-88833333D02*
X119219104Y-88833333D01*
X119219104Y-88833333D02*
X119361961Y-88880952D01*
X119361961Y-88880952D02*
X119457200Y-88976190D01*
X119457200Y-88976190D02*
X119504819Y-89119047D01*
X119504819Y-89119047D02*
X119504819Y-89214285D01*
X118504819Y-88452380D02*
X118504819Y-87833333D01*
X118504819Y-87833333D02*
X118885771Y-88166666D01*
X118885771Y-88166666D02*
X118885771Y-88023809D01*
X118885771Y-88023809D02*
X118933390Y-87928571D01*
X118933390Y-87928571D02*
X118981009Y-87880952D01*
X118981009Y-87880952D02*
X119076247Y-87833333D01*
X119076247Y-87833333D02*
X119314342Y-87833333D01*
X119314342Y-87833333D02*
X119409580Y-87880952D01*
X119409580Y-87880952D02*
X119457200Y-87928571D01*
X119457200Y-87928571D02*
X119504819Y-88023809D01*
X119504819Y-88023809D02*
X119504819Y-88309523D01*
X119504819Y-88309523D02*
X119457200Y-88404761D01*
X119457200Y-88404761D02*
X119409580Y-88452380D01*
X112738095Y-64306819D02*
X113309523Y-64306819D01*
X113023809Y-65306819D02*
X113023809Y-64306819D01*
X113642857Y-65306819D02*
X113642857Y-64306819D01*
X113642857Y-64306819D02*
X114023809Y-64306819D01*
X114023809Y-64306819D02*
X114119047Y-64354438D01*
X114119047Y-64354438D02*
X114166666Y-64402057D01*
X114166666Y-64402057D02*
X114214285Y-64497295D01*
X114214285Y-64497295D02*
X114214285Y-64640152D01*
X114214285Y-64640152D02*
X114166666Y-64735390D01*
X114166666Y-64735390D02*
X114119047Y-64783009D01*
X114119047Y-64783009D02*
X114023809Y-64830628D01*
X114023809Y-64830628D02*
X113642857Y-64830628D01*
X115071428Y-64640152D02*
X115071428Y-65306819D01*
X114833333Y-64259200D02*
X114595238Y-64973485D01*
X114595238Y-64973485D02*
X115214285Y-64973485D01*
X150772142Y-74104819D02*
X150438809Y-73628628D01*
X150200714Y-74104819D02*
X150200714Y-73104819D01*
X150200714Y-73104819D02*
X150581666Y-73104819D01*
X150581666Y-73104819D02*
X150676904Y-73152438D01*
X150676904Y-73152438D02*
X150724523Y-73200057D01*
X150724523Y-73200057D02*
X150772142Y-73295295D01*
X150772142Y-73295295D02*
X150772142Y-73438152D01*
X150772142Y-73438152D02*
X150724523Y-73533390D01*
X150724523Y-73533390D02*
X150676904Y-73581009D01*
X150676904Y-73581009D02*
X150581666Y-73628628D01*
X150581666Y-73628628D02*
X150200714Y-73628628D01*
X151724523Y-74104819D02*
X151153095Y-74104819D01*
X151438809Y-74104819D02*
X151438809Y-73104819D01*
X151438809Y-73104819D02*
X151343571Y-73247676D01*
X151343571Y-73247676D02*
X151248333Y-73342914D01*
X151248333Y-73342914D02*
X151153095Y-73390533D01*
X152581666Y-73104819D02*
X152391190Y-73104819D01*
X152391190Y-73104819D02*
X152295952Y-73152438D01*
X152295952Y-73152438D02*
X152248333Y-73200057D01*
X152248333Y-73200057D02*
X152153095Y-73342914D01*
X152153095Y-73342914D02*
X152105476Y-73533390D01*
X152105476Y-73533390D02*
X152105476Y-73914342D01*
X152105476Y-73914342D02*
X152153095Y-74009580D01*
X152153095Y-74009580D02*
X152200714Y-74057200D01*
X152200714Y-74057200D02*
X152295952Y-74104819D01*
X152295952Y-74104819D02*
X152486428Y-74104819D01*
X152486428Y-74104819D02*
X152581666Y-74057200D01*
X152581666Y-74057200D02*
X152629285Y-74009580D01*
X152629285Y-74009580D02*
X152676904Y-73914342D01*
X152676904Y-73914342D02*
X152676904Y-73676247D01*
X152676904Y-73676247D02*
X152629285Y-73581009D01*
X152629285Y-73581009D02*
X152581666Y-73533390D01*
X152581666Y-73533390D02*
X152486428Y-73485771D01*
X152486428Y-73485771D02*
X152295952Y-73485771D01*
X152295952Y-73485771D02*
X152200714Y-73533390D01*
X152200714Y-73533390D02*
X152153095Y-73581009D01*
X152153095Y-73581009D02*
X152105476Y-73676247D01*
X134176905Y-56304819D02*
X134176905Y-55304819D01*
X134176905Y-55304819D02*
X134415000Y-55304819D01*
X134415000Y-55304819D02*
X134557857Y-55352438D01*
X134557857Y-55352438D02*
X134653095Y-55447676D01*
X134653095Y-55447676D02*
X134700714Y-55542914D01*
X134700714Y-55542914D02*
X134748333Y-55733390D01*
X134748333Y-55733390D02*
X134748333Y-55876247D01*
X134748333Y-55876247D02*
X134700714Y-56066723D01*
X134700714Y-56066723D02*
X134653095Y-56161961D01*
X134653095Y-56161961D02*
X134557857Y-56257200D01*
X134557857Y-56257200D02*
X134415000Y-56304819D01*
X134415000Y-56304819D02*
X134176905Y-56304819D01*
X135605476Y-55638152D02*
X135605476Y-56304819D01*
X135367381Y-55257200D02*
X135129286Y-55971485D01*
X135129286Y-55971485D02*
X135748333Y-55971485D01*
X131154819Y-83058333D02*
X131869104Y-83058333D01*
X131869104Y-83058333D02*
X132011961Y-83105952D01*
X132011961Y-83105952D02*
X132107200Y-83201190D01*
X132107200Y-83201190D02*
X132154819Y-83344047D01*
X132154819Y-83344047D02*
X132154819Y-83439285D01*
X132154819Y-82582142D02*
X131154819Y-82582142D01*
X131154819Y-82582142D02*
X131154819Y-82201190D01*
X131154819Y-82201190D02*
X131202438Y-82105952D01*
X131202438Y-82105952D02*
X131250057Y-82058333D01*
X131250057Y-82058333D02*
X131345295Y-82010714D01*
X131345295Y-82010714D02*
X131488152Y-82010714D01*
X131488152Y-82010714D02*
X131583390Y-82058333D01*
X131583390Y-82058333D02*
X131631009Y-82105952D01*
X131631009Y-82105952D02*
X131678628Y-82201190D01*
X131678628Y-82201190D02*
X131678628Y-82582142D01*
X131154819Y-81105952D02*
X131154819Y-81582142D01*
X131154819Y-81582142D02*
X131631009Y-81629761D01*
X131631009Y-81629761D02*
X131583390Y-81582142D01*
X131583390Y-81582142D02*
X131535771Y-81486904D01*
X131535771Y-81486904D02*
X131535771Y-81248809D01*
X131535771Y-81248809D02*
X131583390Y-81153571D01*
X131583390Y-81153571D02*
X131631009Y-81105952D01*
X131631009Y-81105952D02*
X131726247Y-81058333D01*
X131726247Y-81058333D02*
X131964342Y-81058333D01*
X131964342Y-81058333D02*
X132059580Y-81105952D01*
X132059580Y-81105952D02*
X132107200Y-81153571D01*
X132107200Y-81153571D02*
X132154819Y-81248809D01*
X132154819Y-81248809D02*
X132154819Y-81486904D01*
X132154819Y-81486904D02*
X132107200Y-81582142D01*
X132107200Y-81582142D02*
X132059580Y-81629761D01*
X155272142Y-52859580D02*
X155224523Y-52907200D01*
X155224523Y-52907200D02*
X155081666Y-52954819D01*
X155081666Y-52954819D02*
X154986428Y-52954819D01*
X154986428Y-52954819D02*
X154843571Y-52907200D01*
X154843571Y-52907200D02*
X154748333Y-52811961D01*
X154748333Y-52811961D02*
X154700714Y-52716723D01*
X154700714Y-52716723D02*
X154653095Y-52526247D01*
X154653095Y-52526247D02*
X154653095Y-52383390D01*
X154653095Y-52383390D02*
X154700714Y-52192914D01*
X154700714Y-52192914D02*
X154748333Y-52097676D01*
X154748333Y-52097676D02*
X154843571Y-52002438D01*
X154843571Y-52002438D02*
X154986428Y-51954819D01*
X154986428Y-51954819D02*
X155081666Y-51954819D01*
X155081666Y-51954819D02*
X155224523Y-52002438D01*
X155224523Y-52002438D02*
X155272142Y-52050057D01*
X156224523Y-52954819D02*
X155653095Y-52954819D01*
X155938809Y-52954819D02*
X155938809Y-51954819D01*
X155938809Y-51954819D02*
X155843571Y-52097676D01*
X155843571Y-52097676D02*
X155748333Y-52192914D01*
X155748333Y-52192914D02*
X155653095Y-52240533D01*
X156605476Y-52050057D02*
X156653095Y-52002438D01*
X156653095Y-52002438D02*
X156748333Y-51954819D01*
X156748333Y-51954819D02*
X156986428Y-51954819D01*
X156986428Y-51954819D02*
X157081666Y-52002438D01*
X157081666Y-52002438D02*
X157129285Y-52050057D01*
X157129285Y-52050057D02*
X157176904Y-52145295D01*
X157176904Y-52145295D02*
X157176904Y-52240533D01*
X157176904Y-52240533D02*
X157129285Y-52383390D01*
X157129285Y-52383390D02*
X156557857Y-52954819D01*
X156557857Y-52954819D02*
X157176904Y-52954819D01*
X158219761Y-83050057D02*
X158124523Y-83002438D01*
X158124523Y-83002438D02*
X158029285Y-82907200D01*
X158029285Y-82907200D02*
X157886428Y-82764342D01*
X157886428Y-82764342D02*
X157791190Y-82716723D01*
X157791190Y-82716723D02*
X157695952Y-82716723D01*
X157743571Y-82954819D02*
X157648333Y-82907200D01*
X157648333Y-82907200D02*
X157553095Y-82811961D01*
X157553095Y-82811961D02*
X157505476Y-82621485D01*
X157505476Y-82621485D02*
X157505476Y-82288152D01*
X157505476Y-82288152D02*
X157553095Y-82097676D01*
X157553095Y-82097676D02*
X157648333Y-82002438D01*
X157648333Y-82002438D02*
X157743571Y-81954819D01*
X157743571Y-81954819D02*
X157934047Y-81954819D01*
X157934047Y-81954819D02*
X158029285Y-82002438D01*
X158029285Y-82002438D02*
X158124523Y-82097676D01*
X158124523Y-82097676D02*
X158172142Y-82288152D01*
X158172142Y-82288152D02*
X158172142Y-82621485D01*
X158172142Y-82621485D02*
X158124523Y-82811961D01*
X158124523Y-82811961D02*
X158029285Y-82907200D01*
X158029285Y-82907200D02*
X157934047Y-82954819D01*
X157934047Y-82954819D02*
X157743571Y-82954819D01*
X158505476Y-81954819D02*
X159124523Y-81954819D01*
X159124523Y-81954819D02*
X158791190Y-82335771D01*
X158791190Y-82335771D02*
X158934047Y-82335771D01*
X158934047Y-82335771D02*
X159029285Y-82383390D01*
X159029285Y-82383390D02*
X159076904Y-82431009D01*
X159076904Y-82431009D02*
X159124523Y-82526247D01*
X159124523Y-82526247D02*
X159124523Y-82764342D01*
X159124523Y-82764342D02*
X159076904Y-82859580D01*
X159076904Y-82859580D02*
X159029285Y-82907200D01*
X159029285Y-82907200D02*
X158934047Y-82954819D01*
X158934047Y-82954819D02*
X158648333Y-82954819D01*
X158648333Y-82954819D02*
X158553095Y-82907200D01*
X158553095Y-82907200D02*
X158505476Y-82859580D01*
X142676905Y-66954819D02*
X142676905Y-65954819D01*
X142676905Y-65954819D02*
X142915000Y-65954819D01*
X142915000Y-65954819D02*
X143057857Y-66002438D01*
X143057857Y-66002438D02*
X143153095Y-66097676D01*
X143153095Y-66097676D02*
X143200714Y-66192914D01*
X143200714Y-66192914D02*
X143248333Y-66383390D01*
X143248333Y-66383390D02*
X143248333Y-66526247D01*
X143248333Y-66526247D02*
X143200714Y-66716723D01*
X143200714Y-66716723D02*
X143153095Y-66811961D01*
X143153095Y-66811961D02*
X143057857Y-66907200D01*
X143057857Y-66907200D02*
X142915000Y-66954819D01*
X142915000Y-66954819D02*
X142676905Y-66954819D01*
X144153095Y-65954819D02*
X143676905Y-65954819D01*
X143676905Y-65954819D02*
X143629286Y-66431009D01*
X143629286Y-66431009D02*
X143676905Y-66383390D01*
X143676905Y-66383390D02*
X143772143Y-66335771D01*
X143772143Y-66335771D02*
X144010238Y-66335771D01*
X144010238Y-66335771D02*
X144105476Y-66383390D01*
X144105476Y-66383390D02*
X144153095Y-66431009D01*
X144153095Y-66431009D02*
X144200714Y-66526247D01*
X144200714Y-66526247D02*
X144200714Y-66764342D01*
X144200714Y-66764342D02*
X144153095Y-66859580D01*
X144153095Y-66859580D02*
X144105476Y-66907200D01*
X144105476Y-66907200D02*
X144010238Y-66954819D01*
X144010238Y-66954819D02*
X143772143Y-66954819D01*
X143772143Y-66954819D02*
X143676905Y-66907200D01*
X143676905Y-66907200D02*
X143629286Y-66859580D01*
X131238095Y-61806819D02*
X131809523Y-61806819D01*
X131523809Y-62806819D02*
X131523809Y-61806819D01*
X132142857Y-62806819D02*
X132142857Y-61806819D01*
X132142857Y-61806819D02*
X132523809Y-61806819D01*
X132523809Y-61806819D02*
X132619047Y-61854438D01*
X132619047Y-61854438D02*
X132666666Y-61902057D01*
X132666666Y-61902057D02*
X132714285Y-61997295D01*
X132714285Y-61997295D02*
X132714285Y-62140152D01*
X132714285Y-62140152D02*
X132666666Y-62235390D01*
X132666666Y-62235390D02*
X132619047Y-62283009D01*
X132619047Y-62283009D02*
X132523809Y-62330628D01*
X132523809Y-62330628D02*
X132142857Y-62330628D01*
X133095238Y-61902057D02*
X133142857Y-61854438D01*
X133142857Y-61854438D02*
X133238095Y-61806819D01*
X133238095Y-61806819D02*
X133476190Y-61806819D01*
X133476190Y-61806819D02*
X133571428Y-61854438D01*
X133571428Y-61854438D02*
X133619047Y-61902057D01*
X133619047Y-61902057D02*
X133666666Y-61997295D01*
X133666666Y-61997295D02*
X133666666Y-62092533D01*
X133666666Y-62092533D02*
X133619047Y-62235390D01*
X133619047Y-62235390D02*
X133047619Y-62806819D01*
X133047619Y-62806819D02*
X133666666Y-62806819D01*
X160265057Y-75657738D02*
X160217438Y-75752976D01*
X160217438Y-75752976D02*
X160122200Y-75848214D01*
X160122200Y-75848214D02*
X159979342Y-75991071D01*
X159979342Y-75991071D02*
X159931723Y-76086309D01*
X159931723Y-76086309D02*
X159931723Y-76181547D01*
X160169819Y-76133928D02*
X160122200Y-76229166D01*
X160122200Y-76229166D02*
X160026961Y-76324404D01*
X160026961Y-76324404D02*
X159836485Y-76372023D01*
X159836485Y-76372023D02*
X159503152Y-76372023D01*
X159503152Y-76372023D02*
X159312676Y-76324404D01*
X159312676Y-76324404D02*
X159217438Y-76229166D01*
X159217438Y-76229166D02*
X159169819Y-76133928D01*
X159169819Y-76133928D02*
X159169819Y-75943452D01*
X159169819Y-75943452D02*
X159217438Y-75848214D01*
X159217438Y-75848214D02*
X159312676Y-75752976D01*
X159312676Y-75752976D02*
X159503152Y-75705357D01*
X159503152Y-75705357D02*
X159836485Y-75705357D01*
X159836485Y-75705357D02*
X160026961Y-75752976D01*
X160026961Y-75752976D02*
X160122200Y-75848214D01*
X160122200Y-75848214D02*
X160169819Y-75943452D01*
X160169819Y-75943452D02*
X160169819Y-76133928D01*
X159503152Y-74848214D02*
X160169819Y-74848214D01*
X159122200Y-75086309D02*
X159836485Y-75324404D01*
X159836485Y-75324404D02*
X159836485Y-74705357D01*
D11*
X113668332Y-83590200D02*
X113525475Y-83542580D01*
X113525475Y-83542580D02*
X113287380Y-83542580D01*
X113287380Y-83542580D02*
X113192142Y-83590200D01*
X113192142Y-83590200D02*
X113144523Y-83637819D01*
X113144523Y-83637819D02*
X113096904Y-83733057D01*
X113096904Y-83733057D02*
X113096904Y-83828295D01*
X113096904Y-83828295D02*
X113144523Y-83923533D01*
X113144523Y-83923533D02*
X113192142Y-83971152D01*
X113192142Y-83971152D02*
X113287380Y-84018771D01*
X113287380Y-84018771D02*
X113477856Y-84066390D01*
X113477856Y-84066390D02*
X113573094Y-84114009D01*
X113573094Y-84114009D02*
X113620713Y-84161628D01*
X113620713Y-84161628D02*
X113668332Y-84256866D01*
X113668332Y-84256866D02*
X113668332Y-84352104D01*
X113668332Y-84352104D02*
X113620713Y-84447342D01*
X113620713Y-84447342D02*
X113573094Y-84494961D01*
X113573094Y-84494961D02*
X113477856Y-84542580D01*
X113477856Y-84542580D02*
X113239761Y-84542580D01*
X113239761Y-84542580D02*
X113096904Y-84494961D01*
X112763570Y-84542580D02*
X112525475Y-83542580D01*
X112525475Y-83542580D02*
X112334999Y-84256866D01*
X112334999Y-84256866D02*
X112144523Y-83542580D01*
X112144523Y-83542580D02*
X111906428Y-84542580D01*
X111573094Y-84447342D02*
X111525475Y-84494961D01*
X111525475Y-84494961D02*
X111430237Y-84542580D01*
X111430237Y-84542580D02*
X111192142Y-84542580D01*
X111192142Y-84542580D02*
X111096904Y-84494961D01*
X111096904Y-84494961D02*
X111049285Y-84447342D01*
X111049285Y-84447342D02*
X111001666Y-84352104D01*
X111001666Y-84352104D02*
X111001666Y-84256866D01*
X111001666Y-84256866D02*
X111049285Y-84114009D01*
X111049285Y-84114009D02*
X111620713Y-83542580D01*
X111620713Y-83542580D02*
X111001666Y-83542580D01*
D10*
X155272142Y-64024819D02*
X154938809Y-63548628D01*
X154700714Y-64024819D02*
X154700714Y-63024819D01*
X154700714Y-63024819D02*
X155081666Y-63024819D01*
X155081666Y-63024819D02*
X155176904Y-63072438D01*
X155176904Y-63072438D02*
X155224523Y-63120057D01*
X155224523Y-63120057D02*
X155272142Y-63215295D01*
X155272142Y-63215295D02*
X155272142Y-63358152D01*
X155272142Y-63358152D02*
X155224523Y-63453390D01*
X155224523Y-63453390D02*
X155176904Y-63501009D01*
X155176904Y-63501009D02*
X155081666Y-63548628D01*
X155081666Y-63548628D02*
X154700714Y-63548628D01*
X156224523Y-64024819D02*
X155653095Y-64024819D01*
X155938809Y-64024819D02*
X155938809Y-63024819D01*
X155938809Y-63024819D02*
X155843571Y-63167676D01*
X155843571Y-63167676D02*
X155748333Y-63262914D01*
X155748333Y-63262914D02*
X155653095Y-63310533D01*
X157176904Y-64024819D02*
X156605476Y-64024819D01*
X156891190Y-64024819D02*
X156891190Y-63024819D01*
X156891190Y-63024819D02*
X156795952Y-63167676D01*
X156795952Y-63167676D02*
X156700714Y-63262914D01*
X156700714Y-63262914D02*
X156605476Y-63310533D01*
X130114580Y-72166666D02*
X130162200Y-72214285D01*
X130162200Y-72214285D02*
X130209819Y-72357142D01*
X130209819Y-72357142D02*
X130209819Y-72452380D01*
X130209819Y-72452380D02*
X130162200Y-72595237D01*
X130162200Y-72595237D02*
X130066961Y-72690475D01*
X130066961Y-72690475D02*
X129971723Y-72738094D01*
X129971723Y-72738094D02*
X129781247Y-72785713D01*
X129781247Y-72785713D02*
X129638390Y-72785713D01*
X129638390Y-72785713D02*
X129447914Y-72738094D01*
X129447914Y-72738094D02*
X129352676Y-72690475D01*
X129352676Y-72690475D02*
X129257438Y-72595237D01*
X129257438Y-72595237D02*
X129209819Y-72452380D01*
X129209819Y-72452380D02*
X129209819Y-72357142D01*
X129209819Y-72357142D02*
X129257438Y-72214285D01*
X129257438Y-72214285D02*
X129305057Y-72166666D01*
X130209819Y-71690475D02*
X130209819Y-71499999D01*
X130209819Y-71499999D02*
X130162200Y-71404761D01*
X130162200Y-71404761D02*
X130114580Y-71357142D01*
X130114580Y-71357142D02*
X129971723Y-71261904D01*
X129971723Y-71261904D02*
X129781247Y-71214285D01*
X129781247Y-71214285D02*
X129400295Y-71214285D01*
X129400295Y-71214285D02*
X129305057Y-71261904D01*
X129305057Y-71261904D02*
X129257438Y-71309523D01*
X129257438Y-71309523D02*
X129209819Y-71404761D01*
X129209819Y-71404761D02*
X129209819Y-71595237D01*
X129209819Y-71595237D02*
X129257438Y-71690475D01*
X129257438Y-71690475D02*
X129305057Y-71738094D01*
X129305057Y-71738094D02*
X129400295Y-71785713D01*
X129400295Y-71785713D02*
X129638390Y-71785713D01*
X129638390Y-71785713D02*
X129733628Y-71738094D01*
X129733628Y-71738094D02*
X129781247Y-71690475D01*
X129781247Y-71690475D02*
X129828866Y-71595237D01*
X129828866Y-71595237D02*
X129828866Y-71404761D01*
X129828866Y-71404761D02*
X129781247Y-71309523D01*
X129781247Y-71309523D02*
X129733628Y-71261904D01*
X129733628Y-71261904D02*
X129638390Y-71214285D01*
X139684642Y-80524819D02*
X139351309Y-80048628D01*
X139113214Y-80524819D02*
X139113214Y-79524819D01*
X139113214Y-79524819D02*
X139494166Y-79524819D01*
X139494166Y-79524819D02*
X139589404Y-79572438D01*
X139589404Y-79572438D02*
X139637023Y-79620057D01*
X139637023Y-79620057D02*
X139684642Y-79715295D01*
X139684642Y-79715295D02*
X139684642Y-79858152D01*
X139684642Y-79858152D02*
X139637023Y-79953390D01*
X139637023Y-79953390D02*
X139589404Y-80001009D01*
X139589404Y-80001009D02*
X139494166Y-80048628D01*
X139494166Y-80048628D02*
X139113214Y-80048628D01*
X140637023Y-80524819D02*
X140065595Y-80524819D01*
X140351309Y-80524819D02*
X140351309Y-79524819D01*
X140351309Y-79524819D02*
X140256071Y-79667676D01*
X140256071Y-79667676D02*
X140160833Y-79762914D01*
X140160833Y-79762914D02*
X140065595Y-79810533D01*
X141494166Y-79858152D02*
X141494166Y-80524819D01*
X141256071Y-79477200D02*
X141017976Y-80191485D01*
X141017976Y-80191485D02*
X141637023Y-80191485D01*
X153748333Y-76524819D02*
X153415000Y-76048628D01*
X153176905Y-76524819D02*
X153176905Y-75524819D01*
X153176905Y-75524819D02*
X153557857Y-75524819D01*
X153557857Y-75524819D02*
X153653095Y-75572438D01*
X153653095Y-75572438D02*
X153700714Y-75620057D01*
X153700714Y-75620057D02*
X153748333Y-75715295D01*
X153748333Y-75715295D02*
X153748333Y-75858152D01*
X153748333Y-75858152D02*
X153700714Y-75953390D01*
X153700714Y-75953390D02*
X153653095Y-76001009D01*
X153653095Y-76001009D02*
X153557857Y-76048628D01*
X153557857Y-76048628D02*
X153176905Y-76048628D01*
X154081667Y-75524819D02*
X154748333Y-75524819D01*
X154748333Y-75524819D02*
X154319762Y-76524819D01*
X143748333Y-53304819D02*
X143272143Y-53304819D01*
X143272143Y-53304819D02*
X143272143Y-52304819D01*
X143986429Y-52304819D02*
X144605476Y-52304819D01*
X144605476Y-52304819D02*
X144272143Y-52685771D01*
X144272143Y-52685771D02*
X144415000Y-52685771D01*
X144415000Y-52685771D02*
X144510238Y-52733390D01*
X144510238Y-52733390D02*
X144557857Y-52781009D01*
X144557857Y-52781009D02*
X144605476Y-52876247D01*
X144605476Y-52876247D02*
X144605476Y-53114342D01*
X144605476Y-53114342D02*
X144557857Y-53209580D01*
X144557857Y-53209580D02*
X144510238Y-53257200D01*
X144510238Y-53257200D02*
X144415000Y-53304819D01*
X144415000Y-53304819D02*
X144129286Y-53304819D01*
X144129286Y-53304819D02*
X144034048Y-53257200D01*
X144034048Y-53257200D02*
X143986429Y-53209580D01*
X138238095Y-70306819D02*
X138809523Y-70306819D01*
X138523809Y-71306819D02*
X138523809Y-70306819D01*
X139142857Y-71306819D02*
X139142857Y-70306819D01*
X139142857Y-70306819D02*
X139523809Y-70306819D01*
X139523809Y-70306819D02*
X139619047Y-70354438D01*
X139619047Y-70354438D02*
X139666666Y-70402057D01*
X139666666Y-70402057D02*
X139714285Y-70497295D01*
X139714285Y-70497295D02*
X139714285Y-70640152D01*
X139714285Y-70640152D02*
X139666666Y-70735390D01*
X139666666Y-70735390D02*
X139619047Y-70783009D01*
X139619047Y-70783009D02*
X139523809Y-70830628D01*
X139523809Y-70830628D02*
X139142857Y-70830628D01*
X140285714Y-70735390D02*
X140190476Y-70687771D01*
X140190476Y-70687771D02*
X140142857Y-70640152D01*
X140142857Y-70640152D02*
X140095238Y-70544914D01*
X140095238Y-70544914D02*
X140095238Y-70497295D01*
X140095238Y-70497295D02*
X140142857Y-70402057D01*
X140142857Y-70402057D02*
X140190476Y-70354438D01*
X140190476Y-70354438D02*
X140285714Y-70306819D01*
X140285714Y-70306819D02*
X140476190Y-70306819D01*
X140476190Y-70306819D02*
X140571428Y-70354438D01*
X140571428Y-70354438D02*
X140619047Y-70402057D01*
X140619047Y-70402057D02*
X140666666Y-70497295D01*
X140666666Y-70497295D02*
X140666666Y-70544914D01*
X140666666Y-70544914D02*
X140619047Y-70640152D01*
X140619047Y-70640152D02*
X140571428Y-70687771D01*
X140571428Y-70687771D02*
X140476190Y-70735390D01*
X140476190Y-70735390D02*
X140285714Y-70735390D01*
X140285714Y-70735390D02*
X140190476Y-70783009D01*
X140190476Y-70783009D02*
X140142857Y-70830628D01*
X140142857Y-70830628D02*
X140095238Y-70925866D01*
X140095238Y-70925866D02*
X140095238Y-71116342D01*
X140095238Y-71116342D02*
X140142857Y-71211580D01*
X140142857Y-71211580D02*
X140190476Y-71259200D01*
X140190476Y-71259200D02*
X140285714Y-71306819D01*
X140285714Y-71306819D02*
X140476190Y-71306819D01*
X140476190Y-71306819D02*
X140571428Y-71259200D01*
X140571428Y-71259200D02*
X140619047Y-71211580D01*
X140619047Y-71211580D02*
X140666666Y-71116342D01*
X140666666Y-71116342D02*
X140666666Y-70925866D01*
X140666666Y-70925866D02*
X140619047Y-70830628D01*
X140619047Y-70830628D02*
X140571428Y-70783009D01*
X140571428Y-70783009D02*
X140476190Y-70735390D01*
X126904761Y-68550057D02*
X126809523Y-68502438D01*
X126809523Y-68502438D02*
X126714285Y-68407200D01*
X126714285Y-68407200D02*
X126571428Y-68264342D01*
X126571428Y-68264342D02*
X126476190Y-68216723D01*
X126476190Y-68216723D02*
X126380952Y-68216723D01*
X126428571Y-68454819D02*
X126333333Y-68407200D01*
X126333333Y-68407200D02*
X126238095Y-68311961D01*
X126238095Y-68311961D02*
X126190476Y-68121485D01*
X126190476Y-68121485D02*
X126190476Y-67788152D01*
X126190476Y-67788152D02*
X126238095Y-67597676D01*
X126238095Y-67597676D02*
X126333333Y-67502438D01*
X126333333Y-67502438D02*
X126428571Y-67454819D01*
X126428571Y-67454819D02*
X126619047Y-67454819D01*
X126619047Y-67454819D02*
X126714285Y-67502438D01*
X126714285Y-67502438D02*
X126809523Y-67597676D01*
X126809523Y-67597676D02*
X126857142Y-67788152D01*
X126857142Y-67788152D02*
X126857142Y-68121485D01*
X126857142Y-68121485D02*
X126809523Y-68311961D01*
X126809523Y-68311961D02*
X126714285Y-68407200D01*
X126714285Y-68407200D02*
X126619047Y-68454819D01*
X126619047Y-68454819D02*
X126428571Y-68454819D01*
X127809523Y-68454819D02*
X127238095Y-68454819D01*
X127523809Y-68454819D02*
X127523809Y-67454819D01*
X127523809Y-67454819D02*
X127428571Y-67597676D01*
X127428571Y-67597676D02*
X127333333Y-67692914D01*
X127333333Y-67692914D02*
X127238095Y-67740533D01*
X133748333Y-73429580D02*
X133700714Y-73477200D01*
X133700714Y-73477200D02*
X133557857Y-73524819D01*
X133557857Y-73524819D02*
X133462619Y-73524819D01*
X133462619Y-73524819D02*
X133319762Y-73477200D01*
X133319762Y-73477200D02*
X133224524Y-73381961D01*
X133224524Y-73381961D02*
X133176905Y-73286723D01*
X133176905Y-73286723D02*
X133129286Y-73096247D01*
X133129286Y-73096247D02*
X133129286Y-72953390D01*
X133129286Y-72953390D02*
X133176905Y-72762914D01*
X133176905Y-72762914D02*
X133224524Y-72667676D01*
X133224524Y-72667676D02*
X133319762Y-72572438D01*
X133319762Y-72572438D02*
X133462619Y-72524819D01*
X133462619Y-72524819D02*
X133557857Y-72524819D01*
X133557857Y-72524819D02*
X133700714Y-72572438D01*
X133700714Y-72572438D02*
X133748333Y-72620057D01*
X134081667Y-72524819D02*
X134748333Y-72524819D01*
X134748333Y-72524819D02*
X134319762Y-73524819D01*
X175467261Y-80780057D02*
X175372023Y-80732438D01*
X175372023Y-80732438D02*
X175276785Y-80637200D01*
X175276785Y-80637200D02*
X175133928Y-80494342D01*
X175133928Y-80494342D02*
X175038690Y-80446723D01*
X175038690Y-80446723D02*
X174943452Y-80446723D01*
X174991071Y-80684819D02*
X174895833Y-80637200D01*
X174895833Y-80637200D02*
X174800595Y-80541961D01*
X174800595Y-80541961D02*
X174752976Y-80351485D01*
X174752976Y-80351485D02*
X174752976Y-80018152D01*
X174752976Y-80018152D02*
X174800595Y-79827676D01*
X174800595Y-79827676D02*
X174895833Y-79732438D01*
X174895833Y-79732438D02*
X174991071Y-79684819D01*
X174991071Y-79684819D02*
X175181547Y-79684819D01*
X175181547Y-79684819D02*
X175276785Y-79732438D01*
X175276785Y-79732438D02*
X175372023Y-79827676D01*
X175372023Y-79827676D02*
X175419642Y-80018152D01*
X175419642Y-80018152D02*
X175419642Y-80351485D01*
X175419642Y-80351485D02*
X175372023Y-80541961D01*
X175372023Y-80541961D02*
X175276785Y-80637200D01*
X175276785Y-80637200D02*
X175181547Y-80684819D01*
X175181547Y-80684819D02*
X174991071Y-80684819D01*
X176324404Y-79684819D02*
X175848214Y-79684819D01*
X175848214Y-79684819D02*
X175800595Y-80161009D01*
X175800595Y-80161009D02*
X175848214Y-80113390D01*
X175848214Y-80113390D02*
X175943452Y-80065771D01*
X175943452Y-80065771D02*
X176181547Y-80065771D01*
X176181547Y-80065771D02*
X176276785Y-80113390D01*
X176276785Y-80113390D02*
X176324404Y-80161009D01*
X176324404Y-80161009D02*
X176372023Y-80256247D01*
X176372023Y-80256247D02*
X176372023Y-80494342D01*
X176372023Y-80494342D02*
X176324404Y-80589580D01*
X176324404Y-80589580D02*
X176276785Y-80637200D01*
X176276785Y-80637200D02*
X176181547Y-80684819D01*
X176181547Y-80684819D02*
X175943452Y-80684819D01*
X175943452Y-80684819D02*
X175848214Y-80637200D01*
X175848214Y-80637200D02*
X175800595Y-80589580D01*
X121954819Y-61142857D02*
X121478628Y-61476190D01*
X121954819Y-61714285D02*
X120954819Y-61714285D01*
X120954819Y-61714285D02*
X120954819Y-61333333D01*
X120954819Y-61333333D02*
X121002438Y-61238095D01*
X121002438Y-61238095D02*
X121050057Y-61190476D01*
X121050057Y-61190476D02*
X121145295Y-61142857D01*
X121145295Y-61142857D02*
X121288152Y-61142857D01*
X121288152Y-61142857D02*
X121383390Y-61190476D01*
X121383390Y-61190476D02*
X121431009Y-61238095D01*
X121431009Y-61238095D02*
X121478628Y-61333333D01*
X121478628Y-61333333D02*
X121478628Y-61714285D01*
X121954819Y-60190476D02*
X121954819Y-60761904D01*
X121954819Y-60476190D02*
X120954819Y-60476190D01*
X120954819Y-60476190D02*
X121097676Y-60571428D01*
X121097676Y-60571428D02*
X121192914Y-60666666D01*
X121192914Y-60666666D02*
X121240533Y-60761904D01*
X120954819Y-59285714D02*
X120954819Y-59761904D01*
X120954819Y-59761904D02*
X121431009Y-59809523D01*
X121431009Y-59809523D02*
X121383390Y-59761904D01*
X121383390Y-59761904D02*
X121335771Y-59666666D01*
X121335771Y-59666666D02*
X121335771Y-59428571D01*
X121335771Y-59428571D02*
X121383390Y-59333333D01*
X121383390Y-59333333D02*
X121431009Y-59285714D01*
X121431009Y-59285714D02*
X121526247Y-59238095D01*
X121526247Y-59238095D02*
X121764342Y-59238095D01*
X121764342Y-59238095D02*
X121859580Y-59285714D01*
X121859580Y-59285714D02*
X121907200Y-59333333D01*
X121907200Y-59333333D02*
X121954819Y-59428571D01*
X121954819Y-59428571D02*
X121954819Y-59666666D01*
X121954819Y-59666666D02*
X121907200Y-59761904D01*
X121907200Y-59761904D02*
X121859580Y-59809523D01*
X151748333Y-67954819D02*
X151415000Y-67478628D01*
X151176905Y-67954819D02*
X151176905Y-66954819D01*
X151176905Y-66954819D02*
X151557857Y-66954819D01*
X151557857Y-66954819D02*
X151653095Y-67002438D01*
X151653095Y-67002438D02*
X151700714Y-67050057D01*
X151700714Y-67050057D02*
X151748333Y-67145295D01*
X151748333Y-67145295D02*
X151748333Y-67288152D01*
X151748333Y-67288152D02*
X151700714Y-67383390D01*
X151700714Y-67383390D02*
X151653095Y-67431009D01*
X151653095Y-67431009D02*
X151557857Y-67478628D01*
X151557857Y-67478628D02*
X151176905Y-67478628D01*
X152319762Y-67383390D02*
X152224524Y-67335771D01*
X152224524Y-67335771D02*
X152176905Y-67288152D01*
X152176905Y-67288152D02*
X152129286Y-67192914D01*
X152129286Y-67192914D02*
X152129286Y-67145295D01*
X152129286Y-67145295D02*
X152176905Y-67050057D01*
X152176905Y-67050057D02*
X152224524Y-67002438D01*
X152224524Y-67002438D02*
X152319762Y-66954819D01*
X152319762Y-66954819D02*
X152510238Y-66954819D01*
X152510238Y-66954819D02*
X152605476Y-67002438D01*
X152605476Y-67002438D02*
X152653095Y-67050057D01*
X152653095Y-67050057D02*
X152700714Y-67145295D01*
X152700714Y-67145295D02*
X152700714Y-67192914D01*
X152700714Y-67192914D02*
X152653095Y-67288152D01*
X152653095Y-67288152D02*
X152605476Y-67335771D01*
X152605476Y-67335771D02*
X152510238Y-67383390D01*
X152510238Y-67383390D02*
X152319762Y-67383390D01*
X152319762Y-67383390D02*
X152224524Y-67431009D01*
X152224524Y-67431009D02*
X152176905Y-67478628D01*
X152176905Y-67478628D02*
X152129286Y-67573866D01*
X152129286Y-67573866D02*
X152129286Y-67764342D01*
X152129286Y-67764342D02*
X152176905Y-67859580D01*
X152176905Y-67859580D02*
X152224524Y-67907200D01*
X152224524Y-67907200D02*
X152319762Y-67954819D01*
X152319762Y-67954819D02*
X152510238Y-67954819D01*
X152510238Y-67954819D02*
X152605476Y-67907200D01*
X152605476Y-67907200D02*
X152653095Y-67859580D01*
X152653095Y-67859580D02*
X152700714Y-67764342D01*
X152700714Y-67764342D02*
X152700714Y-67573866D01*
X152700714Y-67573866D02*
X152653095Y-67478628D01*
X152653095Y-67478628D02*
X152605476Y-67431009D01*
X152605476Y-67431009D02*
X152510238Y-67383390D01*
X118238095Y-53306819D02*
X118809523Y-53306819D01*
X118523809Y-54306819D02*
X118523809Y-53306819D01*
X119142857Y-54306819D02*
X119142857Y-53306819D01*
X119142857Y-53306819D02*
X119523809Y-53306819D01*
X119523809Y-53306819D02*
X119619047Y-53354438D01*
X119619047Y-53354438D02*
X119666666Y-53402057D01*
X119666666Y-53402057D02*
X119714285Y-53497295D01*
X119714285Y-53497295D02*
X119714285Y-53640152D01*
X119714285Y-53640152D02*
X119666666Y-53735390D01*
X119666666Y-53735390D02*
X119619047Y-53783009D01*
X119619047Y-53783009D02*
X119523809Y-53830628D01*
X119523809Y-53830628D02*
X119142857Y-53830628D01*
X120619047Y-53306819D02*
X120142857Y-53306819D01*
X120142857Y-53306819D02*
X120095238Y-53783009D01*
X120095238Y-53783009D02*
X120142857Y-53735390D01*
X120142857Y-53735390D02*
X120238095Y-53687771D01*
X120238095Y-53687771D02*
X120476190Y-53687771D01*
X120476190Y-53687771D02*
X120571428Y-53735390D01*
X120571428Y-53735390D02*
X120619047Y-53783009D01*
X120619047Y-53783009D02*
X120666666Y-53878247D01*
X120666666Y-53878247D02*
X120666666Y-54116342D01*
X120666666Y-54116342D02*
X120619047Y-54211580D01*
X120619047Y-54211580D02*
X120571428Y-54259200D01*
X120571428Y-54259200D02*
X120476190Y-54306819D01*
X120476190Y-54306819D02*
X120238095Y-54306819D01*
X120238095Y-54306819D02*
X120142857Y-54259200D01*
X120142857Y-54259200D02*
X120095238Y-54211580D01*
X133261905Y-84306819D02*
X133833333Y-84306819D01*
X133547619Y-85306819D02*
X133547619Y-84306819D01*
X134166667Y-85306819D02*
X134166667Y-84306819D01*
X134166667Y-84306819D02*
X134547619Y-84306819D01*
X134547619Y-84306819D02*
X134642857Y-84354438D01*
X134642857Y-84354438D02*
X134690476Y-84402057D01*
X134690476Y-84402057D02*
X134738095Y-84497295D01*
X134738095Y-84497295D02*
X134738095Y-84640152D01*
X134738095Y-84640152D02*
X134690476Y-84735390D01*
X134690476Y-84735390D02*
X134642857Y-84783009D01*
X134642857Y-84783009D02*
X134547619Y-84830628D01*
X134547619Y-84830628D02*
X134166667Y-84830628D01*
X135690476Y-85306819D02*
X135119048Y-85306819D01*
X135404762Y-85306819D02*
X135404762Y-84306819D01*
X135404762Y-84306819D02*
X135309524Y-84449676D01*
X135309524Y-84449676D02*
X135214286Y-84544914D01*
X135214286Y-84544914D02*
X135119048Y-84592533D01*
X136642857Y-85306819D02*
X136071429Y-85306819D01*
X136357143Y-85306819D02*
X136357143Y-84306819D01*
X136357143Y-84306819D02*
X136261905Y-84449676D01*
X136261905Y-84449676D02*
X136166667Y-84544914D01*
X136166667Y-84544914D02*
X136071429Y-84592533D01*
X167436666Y-52144819D02*
X167436666Y-52859104D01*
X167436666Y-52859104D02*
X167389047Y-53001961D01*
X167389047Y-53001961D02*
X167293809Y-53097200D01*
X167293809Y-53097200D02*
X167150952Y-53144819D01*
X167150952Y-53144819D02*
X167055714Y-53144819D01*
X167865238Y-52240057D02*
X167912857Y-52192438D01*
X167912857Y-52192438D02*
X168008095Y-52144819D01*
X168008095Y-52144819D02*
X168246190Y-52144819D01*
X168246190Y-52144819D02*
X168341428Y-52192438D01*
X168341428Y-52192438D02*
X168389047Y-52240057D01*
X168389047Y-52240057D02*
X168436666Y-52335295D01*
X168436666Y-52335295D02*
X168436666Y-52430533D01*
X168436666Y-52430533D02*
X168389047Y-52573390D01*
X168389047Y-52573390D02*
X167817619Y-53144819D01*
X167817619Y-53144819D02*
X168436666Y-53144819D01*
X117944819Y-59333333D02*
X118659104Y-59333333D01*
X118659104Y-59333333D02*
X118801961Y-59380952D01*
X118801961Y-59380952D02*
X118897200Y-59476190D01*
X118897200Y-59476190D02*
X118944819Y-59619047D01*
X118944819Y-59619047D02*
X118944819Y-59714285D01*
X118944819Y-58333333D02*
X118944819Y-58904761D01*
X118944819Y-58619047D02*
X117944819Y-58619047D01*
X117944819Y-58619047D02*
X118087676Y-58714285D01*
X118087676Y-58714285D02*
X118182914Y-58809523D01*
X118182914Y-58809523D02*
X118230533Y-58904761D01*
X134272142Y-61884819D02*
X133938809Y-61408628D01*
X133700714Y-61884819D02*
X133700714Y-60884819D01*
X133700714Y-60884819D02*
X134081666Y-60884819D01*
X134081666Y-60884819D02*
X134176904Y-60932438D01*
X134176904Y-60932438D02*
X134224523Y-60980057D01*
X134224523Y-60980057D02*
X134272142Y-61075295D01*
X134272142Y-61075295D02*
X134272142Y-61218152D01*
X134272142Y-61218152D02*
X134224523Y-61313390D01*
X134224523Y-61313390D02*
X134176904Y-61361009D01*
X134176904Y-61361009D02*
X134081666Y-61408628D01*
X134081666Y-61408628D02*
X133700714Y-61408628D01*
X135224523Y-61884819D02*
X134653095Y-61884819D01*
X134938809Y-61884819D02*
X134938809Y-60884819D01*
X134938809Y-60884819D02*
X134843571Y-61027676D01*
X134843571Y-61027676D02*
X134748333Y-61122914D01*
X134748333Y-61122914D02*
X134653095Y-61170533D01*
X135557857Y-60884819D02*
X136224523Y-60884819D01*
X136224523Y-60884819D02*
X135795952Y-61884819D01*
X121238095Y-70806819D02*
X121809523Y-70806819D01*
X121523809Y-71806819D02*
X121523809Y-70806819D01*
X122142857Y-71806819D02*
X122142857Y-70806819D01*
X122142857Y-70806819D02*
X122523809Y-70806819D01*
X122523809Y-70806819D02*
X122619047Y-70854438D01*
X122619047Y-70854438D02*
X122666666Y-70902057D01*
X122666666Y-70902057D02*
X122714285Y-70997295D01*
X122714285Y-70997295D02*
X122714285Y-71140152D01*
X122714285Y-71140152D02*
X122666666Y-71235390D01*
X122666666Y-71235390D02*
X122619047Y-71283009D01*
X122619047Y-71283009D02*
X122523809Y-71330628D01*
X122523809Y-71330628D02*
X122142857Y-71330628D01*
X123190476Y-71806819D02*
X123380952Y-71806819D01*
X123380952Y-71806819D02*
X123476190Y-71759200D01*
X123476190Y-71759200D02*
X123523809Y-71711580D01*
X123523809Y-71711580D02*
X123619047Y-71568723D01*
X123619047Y-71568723D02*
X123666666Y-71378247D01*
X123666666Y-71378247D02*
X123666666Y-70997295D01*
X123666666Y-70997295D02*
X123619047Y-70902057D01*
X123619047Y-70902057D02*
X123571428Y-70854438D01*
X123571428Y-70854438D02*
X123476190Y-70806819D01*
X123476190Y-70806819D02*
X123285714Y-70806819D01*
X123285714Y-70806819D02*
X123190476Y-70854438D01*
X123190476Y-70854438D02*
X123142857Y-70902057D01*
X123142857Y-70902057D02*
X123095238Y-70997295D01*
X123095238Y-70997295D02*
X123095238Y-71235390D01*
X123095238Y-71235390D02*
X123142857Y-71330628D01*
X123142857Y-71330628D02*
X123190476Y-71378247D01*
X123190476Y-71378247D02*
X123285714Y-71425866D01*
X123285714Y-71425866D02*
X123476190Y-71425866D01*
X123476190Y-71425866D02*
X123571428Y-71378247D01*
X123571428Y-71378247D02*
X123619047Y-71330628D01*
X123619047Y-71330628D02*
X123666666Y-71235390D01*
D12*
%TO.C,JP2*%
X133000000Y-86100000D02*
X133000000Y-88900000D01*
X131000000Y-86100000D02*
X133000000Y-86100000D01*
X133000000Y-88900000D02*
X131000000Y-88900000D01*
X131000000Y-88900000D02*
X131000000Y-86100000D01*
%TO.C,JP1*%
X127000000Y-86100000D02*
X127000000Y-88900000D01*
X125000000Y-86100000D02*
X127000000Y-86100000D01*
X127000000Y-88900000D02*
X125000000Y-88900000D01*
X125000000Y-88900000D02*
X125000000Y-86100000D01*
%TO.C,R21*%
X130745276Y-89977500D02*
X131254724Y-89977500D01*
X130745276Y-91022500D02*
X131254724Y-91022500D01*
%TO.C,R20*%
X129167224Y-89022500D02*
X128657776Y-89022500D01*
X129167224Y-87977500D02*
X128657776Y-87977500D01*
%TO.C,R19*%
X125772936Y-75380000D02*
X127227064Y-75380000D01*
X125772936Y-77200000D02*
X127227064Y-77200000D01*
%TO.C,R9*%
X125772936Y-73090000D02*
X127227064Y-73090000D01*
X125772936Y-74910000D02*
X127227064Y-74910000D01*
%TO.C,U2*%
X132155000Y-69630000D02*
X132155000Y-67680000D01*
X132155000Y-69630000D02*
X132155000Y-71580000D01*
X137275000Y-69630000D02*
X137275000Y-67680000D01*
X137275000Y-69630000D02*
X137275000Y-71580000D01*
X132250000Y-72330000D02*
X131920000Y-72570000D01*
X131920000Y-72090000D01*
X132250000Y-72330000D01*
G36*
X132250000Y-72330000D02*
G01*
X131920000Y-72570000D01*
X131920000Y-72090000D01*
X132250000Y-72330000D01*
G37*
%TO.C,U1*%
X124355000Y-57637500D02*
X124355000Y-55687500D01*
X124355000Y-57637500D02*
X124355000Y-59587500D01*
X129475000Y-57637500D02*
X129475000Y-55687500D01*
X129475000Y-57637500D02*
X129475000Y-59587500D01*
X129805000Y-55165000D02*
X129475000Y-54925000D01*
X129805000Y-54685000D01*
X129805000Y-55165000D01*
G36*
X129805000Y-55165000D02*
G01*
X129475000Y-54925000D01*
X129805000Y-54685000D01*
X129805000Y-55165000D01*
G37*
%TO.C,R13*%
X159660276Y-64477500D02*
X160169724Y-64477500D01*
X159660276Y-65522500D02*
X160169724Y-65522500D01*
%TO.C,R10*%
X178102500Y-79942742D02*
X178102500Y-80417258D01*
X179147500Y-79942742D02*
X179147500Y-80417258D01*
%TO.C,C5*%
X111768733Y-95490000D02*
X112061267Y-95490000D01*
X111768733Y-96510000D02*
X112061267Y-96510000D01*
%TO.C,Q6*%
X174115000Y-77617500D02*
X174115000Y-76967500D01*
X174115000Y-77617500D02*
X174115000Y-78267500D01*
X177235000Y-77617500D02*
X177235000Y-76967500D01*
X177235000Y-77617500D02*
X177235000Y-78267500D01*
X177515000Y-76695000D02*
X177185000Y-76455000D01*
X177515000Y-76215000D01*
X177515000Y-76695000D01*
G36*
X177515000Y-76695000D02*
G01*
X177185000Y-76455000D01*
X177515000Y-76215000D01*
X177515000Y-76695000D01*
G37*
%TO.C,U3*%
X125440000Y-81587500D02*
X125440000Y-79637500D01*
X125440000Y-81587500D02*
X125440000Y-83537500D01*
X130560000Y-81587500D02*
X130560000Y-79637500D01*
X130560000Y-81587500D02*
X130560000Y-83537500D01*
X125535000Y-84287500D02*
X125205000Y-84527500D01*
X125205000Y-84047500D01*
X125535000Y-84287500D01*
G36*
X125535000Y-84287500D02*
G01*
X125205000Y-84527500D01*
X125205000Y-84047500D01*
X125535000Y-84287500D01*
G37*
%TO.C,TP7*%
X134450000Y-55000000D02*
G75*
G02*
X132550000Y-55000000I-950000J0D01*
G01*
X132550000Y-55000000D02*
G75*
G02*
X134450000Y-55000000I950000J0D01*
G01*
%TO.C,R18*%
X178102500Y-74942742D02*
X178102500Y-75417258D01*
X179147500Y-74942742D02*
X179147500Y-75417258D01*
%TO.C,JP3*%
X123500000Y-64100000D02*
X125500000Y-64100000D01*
X123500000Y-66900000D02*
X123500000Y-64100000D01*
X125500000Y-64100000D02*
X125500000Y-66900000D01*
X125500000Y-66900000D02*
X123500000Y-66900000D01*
%TO.C,C3*%
X145698767Y-72490000D02*
X145406233Y-72490000D01*
X145698767Y-73510000D02*
X145406233Y-73510000D01*
%TO.C,R1*%
X130392500Y-58262742D02*
X130392500Y-58737258D01*
X131437500Y-58262742D02*
X131437500Y-58737258D01*
%TO.C,C11*%
X136238748Y-63765000D02*
X136761252Y-63765000D01*
X136238748Y-65235000D02*
X136761252Y-65235000D01*
%TO.C,R3*%
X127677742Y-61977500D02*
X128152258Y-61977500D01*
X127677742Y-63022500D02*
X128152258Y-63022500D01*
%TO.C,R12*%
X129254724Y-85977500D02*
X128745276Y-85977500D01*
X129254724Y-87022500D02*
X128745276Y-87022500D01*
%TO.C,R6*%
X161052258Y-73977500D02*
X160577742Y-73977500D01*
X161052258Y-75022500D02*
X160577742Y-75022500D01*
%TO.C,D1*%
X137115000Y-79735000D02*
X139575000Y-79735000D01*
X139575000Y-78265000D02*
X137115000Y-78265000D01*
X139575000Y-79735000D02*
X139575000Y-78265000D01*
%TO.C,TP13*%
X128450000Y-70000000D02*
G75*
G02*
X126550000Y-70000000I-950000J0D01*
G01*
X126550000Y-70000000D02*
G75*
G02*
X128450000Y-70000000I950000J0D01*
G01*
%TO.C,U5*%
X144015000Y-74265000D02*
X142065000Y-74265000D01*
X144015000Y-74265000D02*
X145965000Y-74265000D01*
X144015000Y-79385000D02*
X142065000Y-79385000D01*
X144015000Y-79385000D02*
X145965000Y-79385000D01*
X146955000Y-79620000D02*
X146475000Y-79620000D01*
X146715000Y-79290000D01*
X146955000Y-79620000D01*
G36*
X146955000Y-79620000D02*
G01*
X146475000Y-79620000D01*
X146715000Y-79290000D01*
X146955000Y-79620000D01*
G37*
%TO.C,TP1*%
X120950000Y-64000000D02*
G75*
G02*
X119050000Y-64000000I-950000J0D01*
G01*
X119050000Y-64000000D02*
G75*
G02*
X120950000Y-64000000I950000J0D01*
G01*
%TO.C,R5*%
X154792500Y-80237258D02*
X154792500Y-79762742D01*
X155837500Y-80237258D02*
X155837500Y-79762742D01*
%TO.C,C10*%
X155768733Y-60990000D02*
X156061267Y-60990000D01*
X155768733Y-62010000D02*
X156061267Y-62010000D01*
%TO.C,R4*%
X149677742Y-76977500D02*
X150152258Y-76977500D01*
X149677742Y-78022500D02*
X150152258Y-78022500D01*
%TO.C,D2*%
X136915000Y-77460000D02*
X139775000Y-77460000D01*
X139775000Y-75540000D02*
X136915000Y-75540000D01*
X139775000Y-77460000D02*
X139775000Y-75540000D01*
%TO.C,R2*%
X122477500Y-56745276D02*
X122477500Y-57254724D01*
X123522500Y-56745276D02*
X123522500Y-57254724D01*
%TO.C,JP4*%
X132500000Y-77375000D02*
X134500000Y-77375000D01*
X132500000Y-80175000D02*
X132500000Y-77375000D01*
X134500000Y-77375000D02*
X134500000Y-80175000D01*
X134500000Y-80175000D02*
X132500000Y-80175000D01*
%TO.C,C1*%
X130140000Y-54884165D02*
X130140000Y-55115835D01*
X130860000Y-54884165D02*
X130860000Y-55115835D01*
%TO.C,Q2*%
X150437500Y-79940000D02*
X149787500Y-79940000D01*
X150437500Y-79940000D02*
X151087500Y-79940000D01*
X150437500Y-83060000D02*
X149787500Y-83060000D01*
X150437500Y-83060000D02*
X151087500Y-83060000D01*
X151840000Y-83340000D02*
X151360000Y-83340000D01*
X151600000Y-83010000D01*
X151840000Y-83340000D01*
G36*
X151840000Y-83340000D02*
G01*
X151360000Y-83340000D01*
X151600000Y-83010000D01*
X151840000Y-83340000D01*
G37*
%TO.C,TP10*%
X137950000Y-55000000D02*
G75*
G02*
X136050000Y-55000000I-950000J0D01*
G01*
X136050000Y-55000000D02*
G75*
G02*
X137950000Y-55000000I950000J0D01*
G01*
%TO.C,TP14*%
X156450000Y-69000000D02*
G75*
G02*
X154550000Y-69000000I-950000J0D01*
G01*
X154550000Y-69000000D02*
G75*
G02*
X156450000Y-69000000I950000J0D01*
G01*
%TO.C,J3*%
X110140000Y-85440000D02*
X110140000Y-91560000D01*
X110140000Y-88000000D02*
X114500000Y-88000000D01*
X110140000Y-91560000D02*
X117960000Y-91560000D01*
X112400000Y-86200000D02*
X112400000Y-87200000D01*
X112400000Y-86700000D02*
X110140000Y-86700000D01*
X112400000Y-87200000D02*
X110140000Y-87200000D01*
X112400000Y-87200000D02*
X114000000Y-87200000D01*
X112400000Y-89800000D02*
X114000000Y-89800000D01*
X112400000Y-90800000D02*
X112400000Y-89800000D01*
X114000000Y-86200000D02*
X112400000Y-86200000D01*
X114000000Y-87200000D02*
X114000000Y-86200000D01*
X114000000Y-89800000D02*
X114000000Y-90800000D01*
X114000000Y-90800000D02*
X112400000Y-90800000D01*
X114500000Y-88000000D02*
X114500000Y-89000000D01*
X114500000Y-89000000D02*
X110140000Y-89000000D01*
X116360000Y-85440000D02*
X116360000Y-86360000D01*
X116360000Y-86360000D02*
X117960000Y-86360000D01*
X116360000Y-86640000D02*
X116360000Y-86360000D01*
X116360000Y-86640000D02*
X117575000Y-86640000D01*
X116360000Y-90640000D02*
X116360000Y-90360000D01*
X116360000Y-91560000D02*
X116360000Y-90640000D01*
X117960000Y-85440000D02*
X110140000Y-85440000D01*
X117960000Y-86360000D02*
X117960000Y-85440000D01*
X117960000Y-90640000D02*
X116360000Y-90640000D01*
X117960000Y-91560000D02*
X117960000Y-90640000D01*
%TO.C,TP4*%
X114950000Y-66500000D02*
G75*
G02*
X113050000Y-66500000I-950000J0D01*
G01*
X113050000Y-66500000D02*
G75*
G02*
X114950000Y-66500000I950000J0D01*
G01*
%TO.C,R16*%
X151142064Y-71265000D02*
X150687936Y-71265000D01*
X151142064Y-72735000D02*
X150687936Y-72735000D01*
%TO.C,D4*%
X133055000Y-56540000D02*
X133055000Y-58460000D01*
X133055000Y-58460000D02*
X135915000Y-58460000D01*
X135915000Y-56540000D02*
X133055000Y-56540000D01*
%TO.C,JP5*%
X132500000Y-80825000D02*
X134500000Y-80825000D01*
X132500000Y-83625000D02*
X132500000Y-80825000D01*
X134500000Y-80825000D02*
X134500000Y-83625000D01*
X134500000Y-83625000D02*
X132500000Y-83625000D01*
%TO.C,C12*%
X153477500Y-55152500D02*
X154265000Y-55152500D01*
X153871250Y-54758750D02*
X153871250Y-55546250D01*
X154505000Y-54654437D02*
X154505000Y-55940000D01*
X154505000Y-54654437D02*
X155569437Y-53590000D01*
X154505000Y-59345563D02*
X154505000Y-58060000D01*
X154505000Y-59345563D02*
X155569437Y-60410000D01*
X155569437Y-53590000D02*
X161325000Y-53590000D01*
X155569437Y-60410000D02*
X161325000Y-60410000D01*
X161325000Y-53590000D02*
X161325000Y-55940000D01*
X161325000Y-60410000D02*
X161325000Y-58060000D01*
%TO.C,Q3*%
X158377500Y-78440000D02*
X157727500Y-78440000D01*
X158377500Y-78440000D02*
X159027500Y-78440000D01*
X158377500Y-81560000D02*
X157727500Y-81560000D01*
X158377500Y-81560000D02*
X159027500Y-81560000D01*
X157215000Y-78490000D02*
X156975000Y-78160000D01*
X157455000Y-78160000D01*
X157215000Y-78490000D01*
G36*
X157215000Y-78490000D02*
G01*
X156975000Y-78160000D01*
X157455000Y-78160000D01*
X157215000Y-78490000D01*
G37*
%TO.C,D5*%
X139905000Y-67350000D02*
X139905000Y-70650000D01*
X139905000Y-67350000D02*
X145415000Y-67350000D01*
X139905000Y-70650000D02*
X145415000Y-70650000D01*
%TO.C,TP2*%
X133450000Y-64000000D02*
G75*
G02*
X131550000Y-64000000I-950000J0D01*
G01*
X131550000Y-64000000D02*
G75*
G02*
X133450000Y-64000000I950000J0D01*
G01*
%TO.C,Q4*%
X155755000Y-75562500D02*
X155755000Y-74912500D01*
X155755000Y-75562500D02*
X155755000Y-76212500D01*
X158875000Y-75562500D02*
X158875000Y-74912500D01*
X158875000Y-75562500D02*
X158875000Y-76212500D01*
X159155000Y-74640000D02*
X158825000Y-74400000D01*
X159155000Y-74160000D01*
X159155000Y-74640000D01*
G36*
X159155000Y-74640000D02*
G01*
X158825000Y-74400000D01*
X159155000Y-74160000D01*
X159155000Y-74640000D01*
G37*
%TO.C,SW2*%
D11*
X115635000Y-82150000D02*
X109335000Y-82150000D01*
X109335000Y-68850000D01*
X115635000Y-68850000D01*
X115635000Y-82150000D01*
D12*
%TO.C,R11*%
X155660276Y-64477500D02*
X156169724Y-64477500D01*
X155660276Y-65522500D02*
X156169724Y-65522500D01*
%TO.C,C9*%
X130555000Y-72115835D02*
X130555000Y-71884165D01*
X131275000Y-72115835D02*
X131275000Y-71884165D01*
%TO.C,R14*%
X140072776Y-80977500D02*
X140582224Y-80977500D01*
X140072776Y-82022500D02*
X140582224Y-82022500D01*
%TO.C,R7*%
X153677742Y-76977500D02*
X154152258Y-76977500D01*
X153677742Y-78022500D02*
X154152258Y-78022500D01*
%TO.C,L3*%
X139505000Y-53590000D02*
X139505000Y-57040000D01*
X139505000Y-53590000D02*
X152325000Y-53590000D01*
X139505000Y-66410000D02*
X139505000Y-62960000D01*
X139505000Y-66410000D02*
X152325000Y-66410000D01*
X152325000Y-53590000D02*
X152325000Y-57040000D01*
X152325000Y-66410000D02*
X152325000Y-62960000D01*
%TO.C,TP8*%
X140450000Y-72500000D02*
G75*
G02*
X138550000Y-72500000I-950000J0D01*
G01*
X138550000Y-72500000D02*
G75*
G02*
X140450000Y-72500000I950000J0D01*
G01*
%TO.C,Q1*%
X126405000Y-65437500D02*
X126405000Y-64787500D01*
X126405000Y-65437500D02*
X126405000Y-66087500D01*
X129525000Y-65437500D02*
X129525000Y-64787500D01*
X129525000Y-65437500D02*
X129525000Y-66087500D01*
X129805000Y-64515000D02*
X129475000Y-64275000D01*
X129805000Y-64035000D01*
X129805000Y-64515000D01*
G36*
X129805000Y-64515000D02*
G01*
X129475000Y-64275000D01*
X129805000Y-64035000D01*
X129805000Y-64515000D01*
G37*
%TO.C,C7*%
X133768733Y-73990000D02*
X134061267Y-73990000D01*
X133768733Y-75010000D02*
X134061267Y-75010000D01*
%TO.C,Q5*%
X175562500Y-81070000D02*
X174912500Y-81070000D01*
X175562500Y-81070000D02*
X176212500Y-81070000D01*
X175562500Y-84190000D02*
X174912500Y-84190000D01*
X175562500Y-84190000D02*
X176212500Y-84190000D01*
X174400000Y-81120000D02*
X174160000Y-80790000D01*
X174640000Y-80790000D01*
X174400000Y-81120000D01*
G36*
X174400000Y-81120000D02*
G01*
X174160000Y-80790000D01*
X174640000Y-80790000D01*
X174400000Y-81120000D01*
G37*
%TO.C,R15*%
X120892500Y-57254724D02*
X120892500Y-56745276D01*
X121937500Y-57254724D02*
X121937500Y-56745276D01*
%TO.C,R8*%
X151142064Y-68765000D02*
X150687936Y-68765000D01*
X151142064Y-70235000D02*
X150687936Y-70235000D01*
%TO.C,TP5*%
X120450000Y-55500000D02*
G75*
G02*
X118550000Y-55500000I-950000J0D01*
G01*
X118550000Y-55500000D02*
G75*
G02*
X120450000Y-55500000I950000J0D01*
G01*
%TO.C,TP11*%
X135950000Y-86500000D02*
G75*
G02*
X134050000Y-86500000I-950000J0D01*
G01*
X134050000Y-86500000D02*
G75*
G02*
X135950000Y-86500000I950000J0D01*
G01*
%TO.C,J2*%
X165170000Y-53690000D02*
X166500000Y-53690000D01*
X165170000Y-55020000D02*
X165170000Y-53690000D01*
X165170000Y-56290000D02*
X165170000Y-94450000D01*
X165170000Y-56290000D02*
X167770000Y-56290000D01*
X165170000Y-94450000D02*
X170370000Y-94450000D01*
X167770000Y-53690000D02*
X170370000Y-53690000D01*
X167770000Y-56290000D02*
X167770000Y-53690000D01*
X170370000Y-53690000D02*
X170370000Y-94450000D01*
%TO.C,J1*%
X109205000Y-54420000D02*
X110910000Y-54420000D01*
X109205000Y-63580000D02*
X109205000Y-54420000D01*
X110910000Y-63580000D02*
X109205000Y-63580000D01*
X112920000Y-63580000D02*
X114840000Y-63580000D01*
X114840000Y-54420000D02*
X112920000Y-54420000D01*
%TO.C,R17*%
X135169724Y-59477500D02*
X134660276Y-59477500D01*
X135169724Y-60522500D02*
X134660276Y-60522500D01*
%TO.C,TP9*%
X123450000Y-73000000D02*
G75*
G02*
X121550000Y-73000000I-950000J0D01*
G01*
X121550000Y-73000000D02*
G75*
G02*
X123450000Y-73000000I950000J0D01*
G01*
%TD*%
%LPC*%
%TO.C,JP2*%
G36*
X132750000Y-86275000D02*
G01*
X131250000Y-86275000D01*
X131250000Y-88725000D01*
X132750000Y-88725000D01*
X132750000Y-86275000D01*
G37*
%TO.C,JP1*%
G36*
X126750000Y-86275000D02*
G01*
X125250000Y-86275000D01*
X125250000Y-88725000D01*
X126750000Y-88725000D01*
X126750000Y-86275000D01*
G37*
%TO.C,JP3*%
G36*
X123750000Y-66725000D02*
G01*
X125250000Y-66725000D01*
X125250000Y-64275000D01*
X123750000Y-64275000D01*
X123750000Y-66725000D01*
G37*
%TO.C,JP4*%
G36*
X132750000Y-80000000D02*
G01*
X134250000Y-80000000D01*
X134250000Y-77550000D01*
X132750000Y-77550000D01*
X132750000Y-80000000D01*
G37*
%TO.C,JP5*%
G36*
X132750000Y-83450000D02*
G01*
X134250000Y-83450000D01*
X134250000Y-81000000D01*
X132750000Y-81000000D01*
X132750000Y-83450000D01*
G37*
%TD*%
D13*
%TO.C,JP2*%
X132000000Y-86775000D03*
D14*
X132000000Y-88225000D03*
%TD*%
D13*
%TO.C,JP1*%
X126000000Y-86775000D03*
D14*
X126000000Y-88225000D03*
%TD*%
D15*
%TO.C,R21*%
X130087500Y-90500000D03*
X131912500Y-90500000D03*
%TD*%
D16*
%TO.C,R20*%
X129825000Y-88500000D03*
X128000000Y-88500000D03*
%TD*%
D17*
%TO.C,R19*%
X124950000Y-76290000D03*
X128050000Y-76290000D03*
%TD*%
%TO.C,R9*%
X124950000Y-74000000D03*
X128050000Y-74000000D03*
%TD*%
D18*
%TO.C,U2*%
X132810000Y-72267500D03*
X134080000Y-72267500D03*
X135350000Y-72267500D03*
X136620000Y-72267500D03*
X136620000Y-66992500D03*
X135350000Y-66992500D03*
X134080000Y-66992500D03*
X132810000Y-66992500D03*
D19*
X134715000Y-69630000D03*
%TD*%
D20*
%TO.C,U1*%
X128915000Y-55000000D03*
X127915000Y-55000000D03*
X126915000Y-55000000D03*
X125915000Y-55000000D03*
X124915000Y-55000000D03*
X124915000Y-60275000D03*
X125915000Y-60275000D03*
X126915000Y-60275000D03*
X127915000Y-60275000D03*
X128915000Y-60275000D03*
D21*
X126915000Y-57637500D03*
%TD*%
D15*
%TO.C,R13*%
X159002500Y-65000000D03*
X160827500Y-65000000D03*
%TD*%
D22*
%TO.C,R10*%
X178625000Y-79355000D03*
X178625000Y-81005000D03*
%TD*%
D23*
%TO.C,C5*%
X111052500Y-96000000D03*
X112777500Y-96000000D03*
%TD*%
D24*
%TO.C,Q6*%
X176625000Y-76680000D03*
X174725000Y-76680000D03*
X175675000Y-78555000D03*
%TD*%
D25*
%TO.C,U3*%
X126095000Y-84062500D03*
X127365000Y-84062500D03*
X128635000Y-84062500D03*
X129905000Y-84062500D03*
X129905000Y-79112500D03*
X128635000Y-79112500D03*
X127365000Y-79112500D03*
X126095000Y-79112500D03*
%TD*%
D26*
%TO.C,TP7*%
X133500000Y-55000000D03*
%TD*%
D22*
%TO.C,R18*%
X178625000Y-74355000D03*
X178625000Y-76005000D03*
%TD*%
D27*
%TO.C,JP3*%
X124500000Y-66225000D03*
D28*
X124500000Y-64775000D03*
%TD*%
D29*
%TO.C,C3*%
X146415000Y-73000000D03*
X144690000Y-73000000D03*
%TD*%
D22*
%TO.C,R1*%
X130915000Y-57675000D03*
X130915000Y-59325000D03*
%TD*%
D30*
%TO.C,C11*%
X135462500Y-64500000D03*
X137537500Y-64500000D03*
%TD*%
D31*
%TO.C,R3*%
X127090000Y-62500000D03*
X128740000Y-62500000D03*
%TD*%
D16*
%TO.C,R12*%
X129912500Y-86500000D03*
X128087500Y-86500000D03*
%TD*%
D32*
%TO.C,R6*%
X161640000Y-74500000D03*
X159990000Y-74500000D03*
%TD*%
D33*
%TO.C,D1*%
X138790000Y-79000000D03*
X137040000Y-79000000D03*
%TD*%
D26*
%TO.C,TP13*%
X127500000Y-70000000D03*
%TD*%
D34*
%TO.C,U5*%
X146490000Y-78730000D03*
X146490000Y-77460000D03*
X146490000Y-76190000D03*
X146490000Y-74920000D03*
X141540000Y-74920000D03*
X141540000Y-76190000D03*
X141540000Y-77460000D03*
X141540000Y-78730000D03*
D35*
X144015000Y-76825000D03*
%TD*%
D26*
%TO.C,TP1*%
X120000000Y-64000000D03*
%TD*%
D36*
%TO.C,R5*%
X155315000Y-80825000D03*
X155315000Y-79175000D03*
%TD*%
D23*
%TO.C,C10*%
X155052500Y-61500000D03*
X156777500Y-61500000D03*
%TD*%
D31*
%TO.C,R4*%
X149090000Y-77500000D03*
X150740000Y-77500000D03*
%TD*%
D37*
%TO.C,D2*%
X138940000Y-76500000D03*
X136890000Y-76500000D03*
%TD*%
D38*
%TO.C,R2*%
X123000000Y-56087500D03*
X123000000Y-57912500D03*
%TD*%
D27*
%TO.C,JP4*%
X133500000Y-79500000D03*
D28*
X133500000Y-78050000D03*
%TD*%
D39*
%TO.C,C1*%
X130500000Y-54432500D03*
X130500000Y-55567500D03*
%TD*%
D40*
%TO.C,Q2*%
X151375000Y-82450000D03*
X151375000Y-80550000D03*
X149500000Y-81500000D03*
%TD*%
D26*
%TO.C,TP10*%
X137000000Y-55000000D03*
%TD*%
%TO.C,TP14*%
X155500000Y-69000000D03*
%TD*%
D41*
%TO.C,J3*%
X116500000Y-87500000D03*
D42*
X116500000Y-89500000D03*
%TD*%
D26*
%TO.C,TP4*%
X114000000Y-66500000D03*
%TD*%
D43*
%TO.C,R16*%
X151915000Y-72000000D03*
X149915000Y-72000000D03*
%TD*%
D44*
%TO.C,D4*%
X133890000Y-57500000D03*
X135940000Y-57500000D03*
%TD*%
D27*
%TO.C,JP5*%
X133500000Y-82950000D03*
D28*
X133500000Y-81500000D03*
%TD*%
D45*
%TO.C,C12*%
X155215000Y-57000000D03*
X160615000Y-57000000D03*
%TD*%
D46*
%TO.C,Q3*%
X157440000Y-79050000D03*
X157440000Y-80950000D03*
X159315000Y-80000000D03*
%TD*%
D47*
%TO.C,D5*%
X141415000Y-69000000D03*
X145415000Y-69000000D03*
%TD*%
D26*
%TO.C,TP2*%
X132500000Y-64000000D03*
%TD*%
D24*
%TO.C,Q4*%
X158265000Y-74625000D03*
X156365000Y-74625000D03*
X157315000Y-76500000D03*
%TD*%
D48*
%TO.C,SW2*%
X110915000Y-82150000D03*
X110915000Y-68850000D03*
D49*
X120115000Y-80300000D03*
D48*
X120115000Y-75500000D03*
X120115000Y-70700000D03*
%TD*%
D15*
%TO.C,R11*%
X155002500Y-65000000D03*
X156827500Y-65000000D03*
%TD*%
D50*
%TO.C,C9*%
X130915000Y-72567500D03*
X130915000Y-71432500D03*
%TD*%
D15*
%TO.C,R14*%
X139415000Y-81500000D03*
X141240000Y-81500000D03*
%TD*%
D31*
%TO.C,R7*%
X153090000Y-77500000D03*
X154740000Y-77500000D03*
%TD*%
D51*
%TO.C,L3*%
X140965000Y-60000000D03*
X150865000Y-60000000D03*
%TD*%
D26*
%TO.C,TP8*%
X139500000Y-72500000D03*
%TD*%
D24*
%TO.C,Q1*%
X128915000Y-64500000D03*
X127015000Y-64500000D03*
X127965000Y-66375000D03*
%TD*%
D23*
%TO.C,C7*%
X133052500Y-74500000D03*
X134777500Y-74500000D03*
%TD*%
D46*
%TO.C,Q5*%
X174625000Y-81680000D03*
X174625000Y-83580000D03*
X176500000Y-82630000D03*
%TD*%
D52*
%TO.C,R15*%
X121415000Y-57912500D03*
X121415000Y-56087500D03*
%TD*%
D43*
%TO.C,R8*%
X151915000Y-69500000D03*
X149915000Y-69500000D03*
%TD*%
D26*
%TO.C,TP5*%
X119500000Y-55500000D03*
%TD*%
%TO.C,TP11*%
X135000000Y-86500000D03*
%TD*%
D53*
%TO.C,J2*%
X166500000Y-55020000D03*
D54*
X169040000Y-55020000D03*
X166500000Y-57560000D03*
X169040000Y-57560000D03*
X166500000Y-60100000D03*
X169040000Y-60100000D03*
X166500000Y-62640000D03*
X169040000Y-62640000D03*
X166500000Y-65180000D03*
X169040000Y-65180000D03*
X166500000Y-67720000D03*
X169040000Y-67720000D03*
X166500000Y-70260000D03*
X169040000Y-70260000D03*
X166500000Y-72800000D03*
X169040000Y-72800000D03*
X166500000Y-75340000D03*
X169040000Y-75340000D03*
X166500000Y-77880000D03*
X169040000Y-77880000D03*
X166500000Y-80420000D03*
X169040000Y-80420000D03*
X166500000Y-82960000D03*
X169040000Y-82960000D03*
X166500000Y-85500000D03*
X169040000Y-85500000D03*
X166500000Y-88040000D03*
X169040000Y-88040000D03*
X166500000Y-90580000D03*
X169040000Y-90580000D03*
X166500000Y-93120000D03*
X169040000Y-93120000D03*
%TD*%
D55*
%TO.C,J1*%
X115595000Y-56110000D03*
D56*
X115595000Y-61890000D03*
D57*
X116715000Y-55800000D03*
X116715000Y-56600000D03*
D58*
X116715000Y-57750000D03*
X116715000Y-58750000D03*
X116715000Y-59250000D03*
X116715000Y-60250000D03*
D57*
X116715000Y-61400000D03*
X116715000Y-62200000D03*
X116715000Y-62200000D03*
X116715000Y-61400000D03*
D58*
X116715000Y-60750000D03*
X116715000Y-59750000D03*
X116715000Y-58250000D03*
X116715000Y-57250000D03*
D57*
X116715000Y-56600000D03*
X116715000Y-55800000D03*
D59*
X116115000Y-54680000D03*
D60*
X111915000Y-54680000D03*
D59*
X116115000Y-63320000D03*
D60*
X111915000Y-63320000D03*
%TD*%
D16*
%TO.C,R17*%
X135827500Y-60000000D03*
X134002500Y-60000000D03*
%TD*%
D26*
%TO.C,TP9*%
X122500000Y-73000000D03*
%TD*%
%LPD*%
M02*
