%TF.GenerationSoftware,KiCad,Pcbnew,9.0.0*%
%TF.CreationDate,2025-03-25T19:31:46+02:00*%
%TF.ProjectId,shaun-proj,73686175-6e2d-4707-926f-6a2e6b696361,rev?*%
%TF.SameCoordinates,Original*%
%TF.FileFunction,Soldermask,Top*%
%TF.FilePolarity,Negative*%
%FSLAX46Y46*%
G04 Gerber Fmt 4.6, Leading zero omitted, Abs format (unit mm)*
G04 Created by KiCad (PCBNEW 9.0.0) date 2025-03-25 19:31:46*
%MOMM*%
%LPD*%
G01*
G04 APERTURE LIST*
G04 Aperture macros list*
%AMRoundRect*
0 Rectangle with rounded corners*
0 $1 Rounding radius*
0 $2 $3 $4 $5 $6 $7 $8 $9 X,Y pos of 4 corners*
0 Add a 4 corners polygon primitive as box body*
4,1,4,$2,$3,$4,$5,$6,$7,$8,$9,$2,$3,0*
0 Add four circle primitives for the rounded corners*
1,1,$1+$1,$2,$3*
1,1,$1+$1,$4,$5*
1,1,$1+$1,$6,$7*
1,1,$1+$1,$8,$9*
0 Add four rect primitives between the rounded corners*
20,1,$1+$1,$2,$3,$4,$5,0*
20,1,$1+$1,$4,$5,$6,$7,0*
20,1,$1+$1,$6,$7,$8,$9,0*
20,1,$1+$1,$8,$9,$2,$3,0*%
%AMFreePoly0*
4,1,6,1.000000,0.000000,0.500000,-0.750000,-0.500000,-0.750000,-0.500000,0.750000,0.500000,0.750000,1.000000,0.000000,1.000000,0.000000,$1*%
%AMFreePoly1*
4,1,6,0.500000,-0.750000,-0.650000,-0.750000,-0.150000,0.000000,-0.650000,0.750000,0.500000,0.750000,0.500000,-0.750000,0.500000,-0.750000,$1*%
G04 Aperture macros list end*
%ADD10FreePoly0,270.000000*%
%ADD11FreePoly1,270.000000*%
%ADD12RoundRect,0.237500X-0.250000X-0.237500X0.250000X-0.237500X0.250000X0.237500X-0.250000X0.237500X0*%
%ADD13RoundRect,0.237500X0.250000X0.237500X-0.250000X0.237500X-0.250000X-0.237500X0.250000X-0.237500X0*%
%ADD14RoundRect,0.250000X-0.400000X-0.625000X0.400000X-0.625000X0.400000X0.625000X-0.400000X0.625000X0*%
%ADD15RoundRect,0.150000X0.150000X-0.662500X0.150000X0.662500X-0.150000X0.662500X-0.150000X-0.662500X0*%
%ADD16R,3.200000X2.514000*%
%ADD17RoundRect,0.150000X-0.150000X0.687500X-0.150000X-0.687500X0.150000X-0.687500X0.150000X0.687500X0*%
%ADD18R,3.300000X2.100000*%
%ADD19RoundRect,0.200000X-0.275000X0.200000X-0.275000X-0.200000X0.275000X-0.200000X0.275000X0.200000X0*%
%ADD20RoundRect,0.237500X-0.300000X-0.237500X0.300000X-0.237500X0.300000X0.237500X-0.300000X0.237500X0*%
%ADD21RoundRect,0.150000X-0.150000X0.587500X-0.150000X-0.587500X0.150000X-0.587500X0.150000X0.587500X0*%
%ADD22RoundRect,0.150000X0.150000X-0.825000X0.150000X0.825000X-0.150000X0.825000X-0.150000X-0.825000X0*%
%ADD23C,1.500000*%
%ADD24FreePoly0,90.000000*%
%ADD25FreePoly1,90.000000*%
%ADD26RoundRect,0.237500X0.300000X0.237500X-0.300000X0.237500X-0.300000X-0.237500X0.300000X-0.237500X0*%
%ADD27RoundRect,0.250000X-0.337500X-0.475000X0.337500X-0.475000X0.337500X0.475000X-0.337500X0.475000X0*%
%ADD28RoundRect,0.200000X-0.200000X-0.275000X0.200000X-0.275000X0.200000X0.275000X-0.200000X0.275000X0*%
%ADD29RoundRect,0.200000X0.200000X0.275000X-0.200000X0.275000X-0.200000X-0.275000X0.200000X-0.275000X0*%
%ADD30RoundRect,0.237500X0.287500X0.237500X-0.287500X0.237500X-0.287500X-0.237500X0.287500X-0.237500X0*%
%ADD31RoundRect,0.150000X0.825000X0.150000X-0.825000X0.150000X-0.825000X-0.150000X0.825000X-0.150000X0*%
%ADD32R,2.410000X3.300000*%
%ADD33RoundRect,0.200000X0.275000X-0.200000X0.275000X0.200000X-0.275000X0.200000X-0.275000X-0.200000X0*%
%ADD34RoundRect,0.250000X0.325000X0.450000X-0.325000X0.450000X-0.325000X-0.450000X0.325000X-0.450000X0*%
%ADD35RoundRect,0.237500X-0.237500X0.250000X-0.237500X-0.250000X0.237500X-0.250000X0.237500X0.250000X0*%
%ADD36RoundRect,0.155000X-0.155000X0.212500X-0.155000X-0.212500X0.155000X-0.212500X0.155000X0.212500X0*%
%ADD37RoundRect,0.150000X0.587500X0.150000X-0.587500X0.150000X-0.587500X-0.150000X0.587500X-0.150000X0*%
%ADD38RoundRect,0.250000X-0.625000X0.350000X-0.625000X-0.350000X0.625000X-0.350000X0.625000X0.350000X0*%
%ADD39O,1.750000X1.200000*%
%ADD40RoundRect,0.250000X0.350000X0.450000X-0.350000X0.450000X-0.350000X-0.450000X0.350000X-0.450000X0*%
%ADD41RoundRect,0.250000X-0.325000X-0.450000X0.325000X-0.450000X0.325000X0.450000X-0.325000X0.450000X0*%
%ADD42RoundRect,0.250000X-1.500000X-0.550000X1.500000X-0.550000X1.500000X0.550000X-1.500000X0.550000X0*%
%ADD43RoundRect,0.150000X-0.587500X-0.150000X0.587500X-0.150000X0.587500X0.150000X-0.587500X0.150000X0*%
%ADD44RoundRect,0.250000X-1.000000X-0.650000X1.000000X-0.650000X1.000000X0.650000X-1.000000X0.650000X0*%
%ADD45C,1.600000*%
%ADD46RoundRect,0.400000X-0.400000X-0.400000X0.400000X-0.400000X0.400000X0.400000X-0.400000X0.400000X0*%
%ADD47RoundRect,0.155000X0.155000X-0.212500X0.155000X0.212500X-0.155000X0.212500X-0.155000X-0.212500X0*%
%ADD48RoundRect,0.250000X-1.200000X-2.450000X1.200000X-2.450000X1.200000X2.450000X-1.200000X2.450000X0*%
%ADD49RoundRect,0.237500X0.237500X-0.250000X0.237500X0.250000X-0.237500X0.250000X-0.237500X-0.250000X0*%
%ADD50R,1.700000X1.700000*%
%ADD51O,1.700000X1.700000*%
%ADD52C,0.600000*%
%ADD53C,0.650000*%
%ADD54R,1.240000X0.600000*%
%ADD55R,1.240000X0.300000*%
%ADD56O,2.100000X1.000000*%
%ADD57O,1.800000X1.000000*%
G04 APERTURE END LIST*
%TO.C,JP2*%
G36*
X132750000Y-86275000D02*
G01*
X131250000Y-86275000D01*
X131250000Y-88725000D01*
X132750000Y-88725000D01*
X132750000Y-86275000D01*
G37*
%TO.C,JP1*%
G36*
X126750000Y-86275000D02*
G01*
X125250000Y-86275000D01*
X125250000Y-88725000D01*
X126750000Y-88725000D01*
X126750000Y-86275000D01*
G37*
%TO.C,JP3*%
G36*
X123750000Y-66725000D02*
G01*
X125250000Y-66725000D01*
X125250000Y-64275000D01*
X123750000Y-64275000D01*
X123750000Y-66725000D01*
G37*
%TO.C,JP4*%
G36*
X132750000Y-80000000D02*
G01*
X134250000Y-80000000D01*
X134250000Y-77550000D01*
X132750000Y-77550000D01*
X132750000Y-80000000D01*
G37*
%TO.C,JP5*%
G36*
X132750000Y-83450000D02*
G01*
X134250000Y-83450000D01*
X134250000Y-81000000D01*
X132750000Y-81000000D01*
X132750000Y-83450000D01*
G37*
%TD*%
D10*
%TO.C,JP2*%
X132000000Y-86775000D03*
D11*
X132000000Y-88225000D03*
%TD*%
D10*
%TO.C,JP1*%
X126000000Y-86775000D03*
D11*
X126000000Y-88225000D03*
%TD*%
D12*
%TO.C,R21*%
X130087500Y-90500000D03*
X131912500Y-90500000D03*
%TD*%
D13*
%TO.C,R20*%
X129825000Y-88500000D03*
X128000000Y-88500000D03*
%TD*%
D14*
%TO.C,R19*%
X124950000Y-76290000D03*
X128050000Y-76290000D03*
%TD*%
%TO.C,R9*%
X124950000Y-74000000D03*
X128050000Y-74000000D03*
%TD*%
D15*
%TO.C,U2*%
X132810000Y-72267500D03*
X134080000Y-72267500D03*
X135350000Y-72267500D03*
X136620000Y-72267500D03*
X136620000Y-66992500D03*
X135350000Y-66992500D03*
X134080000Y-66992500D03*
X132810000Y-66992500D03*
D16*
X134715000Y-69630000D03*
%TD*%
D17*
%TO.C,U1*%
X128915000Y-55000000D03*
X127915000Y-55000000D03*
X126915000Y-55000000D03*
X125915000Y-55000000D03*
X124915000Y-55000000D03*
X124915000Y-60275000D03*
X125915000Y-60275000D03*
X126915000Y-60275000D03*
X127915000Y-60275000D03*
X128915000Y-60275000D03*
D18*
X126915000Y-57637500D03*
%TD*%
D12*
%TO.C,R13*%
X159002500Y-65000000D03*
X160827500Y-65000000D03*
%TD*%
D19*
%TO.C,R10*%
X178625000Y-79355000D03*
X178625000Y-81005000D03*
%TD*%
D20*
%TO.C,C5*%
X111052500Y-96000000D03*
X112777500Y-96000000D03*
%TD*%
D21*
%TO.C,Q6*%
X176625000Y-76680000D03*
X174725000Y-76680000D03*
X175675000Y-78555000D03*
%TD*%
D22*
%TO.C,U3*%
X126095000Y-84062500D03*
X127365000Y-84062500D03*
X128635000Y-84062500D03*
X129905000Y-84062500D03*
X129905000Y-79112500D03*
X128635000Y-79112500D03*
X127365000Y-79112500D03*
X126095000Y-79112500D03*
%TD*%
D23*
%TO.C,TP7*%
X133500000Y-55000000D03*
%TD*%
D19*
%TO.C,R18*%
X178625000Y-74355000D03*
X178625000Y-76005000D03*
%TD*%
D24*
%TO.C,JP3*%
X124500000Y-66225000D03*
D25*
X124500000Y-64775000D03*
%TD*%
D26*
%TO.C,C3*%
X146415000Y-73000000D03*
X144690000Y-73000000D03*
%TD*%
D19*
%TO.C,R1*%
X130915000Y-57675000D03*
X130915000Y-59325000D03*
%TD*%
D27*
%TO.C,C11*%
X135462500Y-64500000D03*
X137537500Y-64500000D03*
%TD*%
D28*
%TO.C,R3*%
X127090000Y-62500000D03*
X128740000Y-62500000D03*
%TD*%
D13*
%TO.C,R12*%
X129912500Y-86500000D03*
X128087500Y-86500000D03*
%TD*%
D29*
%TO.C,R6*%
X161640000Y-74500000D03*
X159990000Y-74500000D03*
%TD*%
D30*
%TO.C,D1*%
X138790000Y-79000000D03*
X137040000Y-79000000D03*
%TD*%
D23*
%TO.C,TP13*%
X127500000Y-70000000D03*
%TD*%
D31*
%TO.C,U5*%
X146490000Y-78730000D03*
X146490000Y-77460000D03*
X146490000Y-76190000D03*
X146490000Y-74920000D03*
X141540000Y-74920000D03*
X141540000Y-76190000D03*
X141540000Y-77460000D03*
X141540000Y-78730000D03*
D32*
X144015000Y-76825000D03*
%TD*%
D23*
%TO.C,TP1*%
X120000000Y-64000000D03*
%TD*%
D33*
%TO.C,R5*%
X155315000Y-80825000D03*
X155315000Y-79175000D03*
%TD*%
D20*
%TO.C,C10*%
X155052500Y-61500000D03*
X156777500Y-61500000D03*
%TD*%
D28*
%TO.C,R4*%
X149090000Y-77500000D03*
X150740000Y-77500000D03*
%TD*%
D34*
%TO.C,D2*%
X138940000Y-76500000D03*
X136890000Y-76500000D03*
%TD*%
D35*
%TO.C,R2*%
X123000000Y-56087500D03*
X123000000Y-57912500D03*
%TD*%
D24*
%TO.C,JP4*%
X133500000Y-79500000D03*
D25*
X133500000Y-78050000D03*
%TD*%
D36*
%TO.C,C1*%
X130500000Y-54432500D03*
X130500000Y-55567500D03*
%TD*%
D37*
%TO.C,Q2*%
X151375000Y-82450000D03*
X151375000Y-80550000D03*
X149500000Y-81500000D03*
%TD*%
D23*
%TO.C,TP10*%
X137000000Y-55000000D03*
%TD*%
%TO.C,TP14*%
X155500000Y-69000000D03*
%TD*%
D38*
%TO.C,J3*%
X116500000Y-87500000D03*
D39*
X116500000Y-89500000D03*
%TD*%
D23*
%TO.C,TP4*%
X114000000Y-66500000D03*
%TD*%
D40*
%TO.C,R16*%
X151915000Y-72000000D03*
X149915000Y-72000000D03*
%TD*%
D41*
%TO.C,D4*%
X133890000Y-57500000D03*
X135940000Y-57500000D03*
%TD*%
D24*
%TO.C,JP5*%
X133500000Y-82950000D03*
D25*
X133500000Y-81500000D03*
%TD*%
D42*
%TO.C,C12*%
X155215000Y-57000000D03*
X160615000Y-57000000D03*
%TD*%
D43*
%TO.C,Q3*%
X157440000Y-79050000D03*
X157440000Y-80950000D03*
X159315000Y-80000000D03*
%TD*%
D44*
%TO.C,D5*%
X141415000Y-69000000D03*
X145415000Y-69000000D03*
%TD*%
D23*
%TO.C,TP2*%
X132500000Y-64000000D03*
%TD*%
D21*
%TO.C,Q4*%
X158265000Y-74625000D03*
X156365000Y-74625000D03*
X157315000Y-76500000D03*
%TD*%
D45*
%TO.C,SW2*%
X110915000Y-82150000D03*
X110915000Y-68850000D03*
D46*
X120115000Y-80300000D03*
D45*
X120115000Y-75500000D03*
X120115000Y-70700000D03*
%TD*%
D12*
%TO.C,R11*%
X155002500Y-65000000D03*
X156827500Y-65000000D03*
%TD*%
D47*
%TO.C,C9*%
X130915000Y-72567500D03*
X130915000Y-71432500D03*
%TD*%
D12*
%TO.C,R14*%
X139415000Y-81500000D03*
X141240000Y-81500000D03*
%TD*%
D28*
%TO.C,R7*%
X153090000Y-77500000D03*
X154740000Y-77500000D03*
%TD*%
D48*
%TO.C,L3*%
X140965000Y-60000000D03*
X150865000Y-60000000D03*
%TD*%
D23*
%TO.C,TP8*%
X139500000Y-72500000D03*
%TD*%
D21*
%TO.C,Q1*%
X128915000Y-64500000D03*
X127015000Y-64500000D03*
X127965000Y-66375000D03*
%TD*%
D20*
%TO.C,C7*%
X133052500Y-74500000D03*
X134777500Y-74500000D03*
%TD*%
D43*
%TO.C,Q5*%
X174625000Y-81680000D03*
X174625000Y-83580000D03*
X176500000Y-82630000D03*
%TD*%
D49*
%TO.C,R15*%
X121415000Y-57912500D03*
X121415000Y-56087500D03*
%TD*%
D40*
%TO.C,R8*%
X151915000Y-69500000D03*
X149915000Y-69500000D03*
%TD*%
D23*
%TO.C,TP5*%
X119500000Y-55500000D03*
%TD*%
%TO.C,TP11*%
X135000000Y-86500000D03*
%TD*%
D50*
%TO.C,J2*%
X166500000Y-55020000D03*
D51*
X169040000Y-55020000D03*
X166500000Y-57560000D03*
X169040000Y-57560000D03*
X166500000Y-60100000D03*
X169040000Y-60100000D03*
X166500000Y-62640000D03*
X169040000Y-62640000D03*
X166500000Y-65180000D03*
X169040000Y-65180000D03*
X166500000Y-67720000D03*
X169040000Y-67720000D03*
X166500000Y-70260000D03*
X169040000Y-70260000D03*
X166500000Y-72800000D03*
X169040000Y-72800000D03*
X166500000Y-75340000D03*
X169040000Y-75340000D03*
X166500000Y-77880000D03*
X169040000Y-77880000D03*
X166500000Y-80420000D03*
X169040000Y-80420000D03*
X166500000Y-82960000D03*
X169040000Y-82960000D03*
X166500000Y-85500000D03*
X169040000Y-85500000D03*
X166500000Y-88040000D03*
X169040000Y-88040000D03*
X166500000Y-90580000D03*
X169040000Y-90580000D03*
X166500000Y-93120000D03*
X169040000Y-93120000D03*
%TD*%
D52*
%TO.C,J1*%
X115595000Y-56110000D03*
D53*
X115595000Y-61890000D03*
D54*
X116715000Y-55800000D03*
X116715000Y-56600000D03*
D55*
X116715000Y-57750000D03*
X116715000Y-58750000D03*
X116715000Y-59250000D03*
X116715000Y-60250000D03*
D54*
X116715000Y-61400000D03*
X116715000Y-62200000D03*
X116715000Y-62200000D03*
X116715000Y-61400000D03*
D55*
X116715000Y-60750000D03*
X116715000Y-59750000D03*
X116715000Y-58250000D03*
X116715000Y-57250000D03*
D54*
X116715000Y-56600000D03*
X116715000Y-55800000D03*
D56*
X116115000Y-54680000D03*
D57*
X111915000Y-54680000D03*
D56*
X116115000Y-63320000D03*
D57*
X111915000Y-63320000D03*
%TD*%
D13*
%TO.C,R17*%
X135827500Y-60000000D03*
X134002500Y-60000000D03*
%TD*%
D23*
%TO.C,TP9*%
X122500000Y-73000000D03*
%TD*%
M02*
